<svg id="Capa_1" data-name="Capa 1" xmlns="http://www.w3.org/2000/svg" viewBox="0 0 667 622"><path d="M438.31,497.35c35.16,11.52,81.25-3.89,109.3-22.06,1,16.12-13.14,27.26-28,30.81,7.61,2.5,16.16,5.3,24.07,6.84-6.57,13.63-24,12.14-36,10.3,2.86,4.1,22.18,9.37,20.95,16.34-1.2,13.29-26.54,3.93-31.31-.79,3.21,9.47,2,19.6-8.44,19.34-9.49,0-17.79-16.36-22.25-22-9.88-14.81-17.87-32.16-37.78-29.21" style="fill:#406faf"/><path d="M228,494.85c-35.72,9.64-80.93-8.19-108-27.82-1.89,16.05,11.68,27.92,26.31,32.26-7.72,2.08-16.41,4.43-24.39,5.55,5.84,14,23.29,13.39,35.4,12.19-3.08,3.94-22.65,8.19-21.79,15.21.49,13.33,26.3,5.33,31.31.87-3.71,9.29-3,19.46,7.4,19.75,9.47.55,18.63-15.39,23.38-20.81,10.65-14.27,19.56-31.17,39.28-27.18" style="fill:#406faf"/></svg>