<svg id="Capa_1" data-name="Capa 1" xmlns="http://www.w3.org/2000/svg" viewBox="0 0 667 622"><path d="M401.16,492.14c18.09,24.13-10.64,55.65-30.76,65.22,11.27,1.85,21-4,30.26-10.86-4,8.51-8.7,18.43-15.54,25.6,9.09-.91,19.15-5.7,24.95-12.49-2.67,5.67-5,12.38-7.64,18.06,55.77,1.17,61.22-82,3.73-81.43" style="fill:#406faf"/><g style="opacity:0.33"><path d="M401.16,492.14c18.09,24.13-10.64,55.65-30.76,65.22,11.27,1.85,21-4,30.26-10.86-4,8.51-8.7,18.43-15.54,25.6,9.09-.91,19.15-5.7,24.95-12.49-2.67,5.67-5,12.38-7.64,18.06,55.77,1.17,61.22-82,3.73-81.43"/></g><path d="M259.45,492.58c-19.28,23.18,7.82,56.11,27.42,66.69-11.34,1.28-20.71-5-29.66-12.37,3.57,8.69,7.75,18.84,14.22,26.35-9-1.37-18.84-6.66-24.29-13.74,2.39,5.8,4.34,12.62,6.73,18.42-55.77-1.65-57-85,.38-81.51" style="fill:#406faf"/><g style="opacity:0.33"><path d="M259.45,492.58c-19.28,23.18,7.82,56.11,27.42,66.69-11.34,1.28-20.71-5-29.66-12.37,3.57,8.69,7.75,18.84,14.22,26.35-9-1.37-18.84-6.66-24.29-13.74,2.39,5.8,4.34,12.62,6.73,18.42-55.77-1.65-57-85,.38-81.51"/></g></svg>