<svg id="Capa_1" data-name="Capa 1" xmlns="http://www.w3.org/2000/svg" viewBox="0 0 667 622"><path d="M376.58,530.59c2.66-.33,2.33-2.33,4.33-4,3.33-3.67,7.67-6.33,11.67-9.67,3-3,4.33-4,5.33-8,1-4.33-.33-6.66,4.67-8.33,9-3.67,9.66,5.67,16.66,7,7,1,14.67-.67,21-3.67.34,8.34-2.58,9.7-11.58,11-6,1-17.08,5-17.08-3.37-5,1-8,5.33-12.34,7.67-6.66,4-17.33,9-21,15.66" style="fill:#f8b19c"/><path d="M437.12,507.54c6.34,2.24,12.31,5.22,18.65,7.08,3,1.12,15.3,3.36,10.45,6.72-7.09,5.22-33.58-7.46-30.6-14.18" style="fill:#73be44"/><path d="M433.32,510.86c6.75,5.34,10.82,13.95,18,20-4.58,5.9-16.88-3.9-18.19-7.61-1.78-4.38.25-9.51-1-14" style="fill:#73be44"/><path d="M416.5,511.74c2.34,5.67-7,13-7.66,19-11.67.67,5.66-17.67,7.66-19.67" style="fill:#73be44"/><path d="M427.5,513.71c1.76,3.85,3,7.85,4.94,11.54.8,1.84,5.16,8.4,1.52,7.67-5.46-.93-11.29-18.47-6.94-20" style="fill:#73be44"/><path d="M424.34,513.44c.53,5.39-1.59,11-1.16,16.89-4.68.5-5.61-9.35-4.5-11.56,1.21-2.72,4.42-4,5.92-6.6" style="fill:#73be44"/><path d="M302.59,530.59c-2.67-.33-2.34-2.33-4.34-4-3.33-3.67-7.66-6.33-11.66-9.67-3-3-4.34-4-5.34-8-1-4.33.34-6.66-4.66-8.33-9-3.67-9.67,5.67-16.67,7-7,1-14.67-.67-21-3.67-.33,8.34,2.58,9.7,11.58,11,6,1,17.09,5,17.09-3.37,5,1,8,5.33,12.33,7.67,6.67,4,17.33,9,21,15.66" style="fill:#f8b19c"/><path d="M242.05,507.54c-6.34,2.24-12.31,5.22-18.66,7.08-3,1.12-15.29,3.36-10.44,6.72,7.09,5.22,33.58-7.46,30.59-14.18" style="fill:#73be44"/><path d="M245.85,510.86c-6.75,5.34-10.82,13.95-18,20,4.59,5.9,16.88-3.9,18.19-7.61,1.78-4.38-.25-9.51,1-14" style="fill:#73be44"/><path d="M262.66,511.74c-2.33,5.67,7,13,7.67,19,11.67.67-5.67-17.67-7.67-19.67" style="fill:#73be44"/><path d="M251.66,513.71c-1.75,3.85-3,7.85-4.93,11.54-.8,1.84-5.16,8.4-1.53,7.67,5.47-.93,11.29-18.47,7-20" style="fill:#73be44"/><path d="M254.83,513.44c-.53,5.39,1.59,11,1.15,16.89,4.68.5,5.61-9.35,4.51-11.56-1.21-2.72-4.42-4-5.92-6.6" style="fill:#73be44"/><path d="M342.4,235.88c18.9-15.26,41.39-22.19,64.38-27.17-5.5-10.47-28-11.84-37.31-5.62-5.87,4.16-10,11-13.8,16.75-5.95,9.44-13.11,17.28-19.4,26" style="fill:#73be44"/><path d="M340.75,235.67c-14.32-19.63-34.26-32.13-55.19-42.88,8-8.7,30.16-4.2,37.5,4.21,4.6,5.53,6.85,13.19,9,19.74,3.31,10.66,8.2,20.08,12,30.14" style="fill:#73be44"/><path d="M340.75,235.67c-8.59-33.2-28.26-60-50.14-85,15.05-7.25,41.76,10.18,47,25,3.17,9.65,2.14,20.87,1.57,30.59-1.2,15.7.32,30.61.11,45.8" style="fill:#73be44"/><path d="M340.75,235.67c9.33-40,3.33-79.34-6-118,20,.66,38.66,34,36,52.66-2,12-9.34,23.34-15.34,33.34-10,16-16.66,32.66-25.33,48.66" style="fill:#73be44"/><polygon points="353.3 527.06 327.52 527.06 334.67 401 346.15 401 353.3 527.06" style="fill:#f8b19c"/><path d="M374.37,515.71a9.07,9.07,0,0,0,1.38-5,51.08,51.08,0,0,1-6,1.95c-1.64-1-3.33-1.93-5.07-2.77,4.58-2.17,8.18-5.54,9-11.18-6,2-11.34,6-18,6,7.33-2,8-9.34,6-15.34-4.39,4.94-12.39,9.43-16.94,14.95-1.88-.18-3.79-.28-5.73-.28s-3.85.1-5.73.28c-4.56-5.52-12.55-10-16.94-14.95-2,6-1.33,13.34,6,15.34-6.67,0-12-4-18-6,.85,5.65,4.45,9,9,11.18-1.74.84-3.43,1.77-5.07,2.77a51.71,51.71,0,0,1-6-1.95,9.1,9.1,0,0,0,1.38,5.05,59,59,0,1,0,70.58,0Z" style="fill:#73be44"/><path d="M326.08,469.67c-.66,1.1.15,2.81,1.7,4s3.36,1.54,4.3.65.35-3-1.45-4.34S326.73,468.55,326.08,469.67Z" style="fill:#73be44"/><path d="M323.41,483.67c0,.64.54,1.23,1.45,1.64a6.89,6.89,0,0,0,3.76.42,6.1,6.1,0,0,0,3.67-1.85c.74-.86.84-1.72.45-2.21a2.57,2.57,0,0,0-2-.72,13.56,13.56,0,0,0-2.87.17C325.68,481.43,323.39,482.34,323.41,483.67Z" style="fill:#73be44"/><path d="M329.41,497.67a2.93,2.93,0,0,0,1.81-.1,2.87,2.87,0,0,0,2.09-2.09,2.86,2.86,0,0,0,.1-1.81,1.75,1.75,0,0,0-1.5-1.18,3.51,3.51,0,0,0-3.67,3.67A1.73,1.73,0,0,0,329.41,497.67Z" style="fill:#73be44"/><path d="M340.08,488.33c-1.05.74-1.07,2.62,0,4.49s3,2.93,4,2.18,1.07-2.63,0-4.49S341.14,487.58,340.08,488.33Z" style="fill:#73be44"/><path d="M342.74,505a1.81,1.81,0,0,0,.16,2,5.43,5.43,0,0,0,4.79,2.22,2.38,2.38,0,0,0,1.72-.9,1.81,1.81,0,0,0-.16-2,5.06,5.06,0,0,0-2.25-1.8,5,5,0,0,0-2.54-.42A2.39,2.39,0,0,0,342.74,505Z" style="fill:#73be44"/><path d="M346.74,483c.06,1.28,1.75,2.32,4,2.72s4.36-.13,4.68-1.39-1.37-2.78-3.91-3.21a6.3,6.3,0,0,0-3.36.28C347.26,481.76,346.74,482.36,346.74,483Z" style="fill:#73be44"/><path d="M346.08,469c-.24.59.11,1.38,1,2.11a8.3,8.3,0,0,0,3.84,1.71,8.44,8.44,0,0,0,4.18-.21c1.06-.38,1.68-1,1.67-1.61,0-1.31-2.34-2.27-5-2.77S346.6,467.8,346.08,469Z" style="fill:#73be44"/><path d="M339.41,461.67a2.39,2.39,0,0,0-3.17,1.46,2.52,2.52,0,0,0,1.17,3.2,2.38,2.38,0,0,0,3.17-1.47A2.51,2.51,0,0,0,339.41,461.67Z" style="fill:#73be44"/><path d="M453.41,380.67c7,8,18,8,27,6-6-9-26-18-26-29,12,1,28-8,25-23-8.3,6-18.87,8.65-28.72,8.29a111.22,111.22,0,0,0,1.16-16c0-61.15-49.57-87.72-110.72-87.72S230.41,265.8,230.41,327a111.55,111.55,0,0,0,1.15,15.93c-10.25.68-21.45-1.88-30.15-8.21-3,15,13,24,25,23,0,11-20,20-26,29,9,2,20,2,27-6,1,18-19,28-27,41,17,4,35-4,40-21-1,13-9,23-10,35,14,5,26-8,30-20,0,10-8,25,2,30,10,4,28-9,31-17-1,8-6,23,2,28,8,4,20-4,23-10-8,18,8,16,17,5a31.45,31.45,0,0,0,5-10.82,31.45,31.45,0,0,0,5,10.82c9,11,25,13,17-5,3,6,15,14,23,10,8-5,3-20,2-28,3,8,21,21,31,17,10-5,2-20,2-30,4,12,16,25,30,20-1-12-9-22-10-35,5,17,23,25,40,21C472.41,408.67,452.41,398.67,453.41,380.67Z" style="fill:#f8b19c"/><path d="M453.41,380.67c7,8,18,8,27,6-6-9-26-18-26-29,12,1,28-8,25-23-8.3,6-18.87,8.65-28.72,8.29a111.22,111.22,0,0,0,1.16-16c0-35.48-16.69-59.31-42.65-73.07-16.08,8.76-39.69,14.29-66,14.29-27.41,0-51.88-6-68-15.4-27.18,13.57-44.8,37.74-44.8,74.18a111.55,111.55,0,0,0,1.15,15.93c-10.25.68-21.45-1.88-30.15-8.21-3,15,13,24,25,23,0,11-20,20-26,29,9,2,20,2,27-6,1,18-19,28-27,41,17,4,35-4,40-21-1,13-9,23-10,35,14,5,26-8,30-20,0,10-8,25,2,30,10,4,28-9,31-17-1,8-6,23,2,28,8,4,20-4,23-10-8,18,8,16,17,5a31.45,31.45,0,0,0,5-10.82,31.45,31.45,0,0,0,5,10.82c9,11,25,13,17-5,3,6,15,14,23,10,8-5,3-20,2-28,3,8,21,21,31,17,10-5,2-20,2-30,4,12,16,25,30,20-1-12-9-22-10-35,5,17,23,25,40,21C472.41,408.67,452.41,398.67,453.41,380.67Z" style="fill:#73be44"/><path d="M357.32,327.41c0,40.65,20.69,73.59,46.22,73.59s46.21-32.94,46.21-73.59-20.69-73.58-46.21-73.58S357.32,286.77,357.32,327.41Z" style="fill:#30572a"/><path d="M361.41,314.08c0,29.68,18.86,53.73,42.13,53.73s42.12-24.05,42.12-53.73-18.86-53.73-42.12-53.73S361.41,284.41,361.41,314.08Z" style="fill:#fff"/><ellipse cx="279.29" cy="327.41" rx="46.22" ry="73.59" style="fill:#30572a"/><path d="M321.41,314.08c0,29.68-18.86,53.73-42.12,53.73s-42.12-24.05-42.12-53.73,18.85-53.73,42.12-53.73S321.41,284.41,321.41,314.08Z" style="fill:#fff"/><path d="M261.15,314.82c0,7.9-4.57,14.31-10.21,14.31s-10.21-6.41-10.21-14.31,4.57-14.31,10.21-14.31S261.15,306.92,261.15,314.82Z"/><path d="M441.17,314.82c0,7.9-4.57,14.31-10.21,14.31s-10.22-6.41-10.22-14.31,4.58-14.31,10.22-14.31S441.17,306.92,441.17,314.82Z"/><path d="M282.08,241.67c-.32.56.14,1.48,1,2.59a27.82,27.82,0,0,0,3.93,3.77,19.12,19.12,0,0,0,4.83,2.95c1.43.54,2.52.55,2.86,0s0-1.5-.88-2.66a22.32,22.32,0,0,0-3.9-4,16.7,16.7,0,0,0-5-2.87C283.48,241,282.39,241.11,282.08,241.67Z" style="fill:#73be44"/><path d="M298.08,233.67c-.9.94-.19,3,.93,4.87a10.61,10.61,0,0,0,1.82,2.3,2.37,2.37,0,0,0,1.91.83c.63-.12,1.12-.79,1.23-1.84a6.17,6.17,0,0,0-1-3.72,6.36,6.36,0,0,0-2.74-2.54A1.93,1.93,0,0,0,298.08,233.67Z" style="fill:#73be44"/><path d="M306.74,252.33a2.23,2.23,0,0,0-.12,1.93,4.75,4.75,0,0,0,1.34,2c1.34,1.23,3.21,1.67,4.12.75s.57-2.77-1-4.2a4.45,4.45,0,0,0-2.53-1.2A1.91,1.91,0,0,0,306.74,252.33Z" style="fill:#73be44"/><path d="M316.08,233.67c-1,.79-.45,3.23.94,5.66s3.18,4.11,4.39,3.67,1.25-3.26-.35-6S317.09,232.87,316.08,233.67Z" style="fill:#73be44"/><path d="M324.08,253c-.53,1.17.72,2.95,2.78,4.41s4.44,2,5.22.92-.29-3.17-2.56-4.76a7.49,7.49,0,0,0-3.38-1.34C325.13,252.14,324.36,252.42,324.08,253Z" style="fill:#73be44"/><path d="M335.41,232.33c-.94.55-.47,3.56,1.33,6.75s4.23,5.31,5.34,4.59.51-3.66-1.27-6.87a14.22,14.22,0,0,0-2.92-3.76,4.58,4.58,0,0,0-1.4-.87,2.15,2.15,0,0,0-.64-.13,1,1,0,0,1-.17,0s-.18,0-.33,0-.13.18-.1.18l0,.05A.18.18,0,0,0,335.41,232.33Z" style="fill:#73be44"/><path d="M358.08,245c1.26.33,3.06-2.45,4.62-5.95s2.44-6.63,1.38-7.38c-.53-.36-1.49,0-2.56,1a13.76,13.76,0,0,0-3.08,4.5C356.7,241.07,356.85,244.68,358.08,245Z" style="fill:#73be44"/><path d="M354.08,259.67c1.31,0,2.27-1.77,2.46-3.5a5.43,5.43,0,0,0-.14-2.21,2.87,2.87,0,0,0-1-1.63,1.66,1.66,0,0,0-2,.32,4.65,4.65,0,0,0-1.46,2.95C351.66,258,352.82,259.65,354.08,259.67Z" style="fill:#73be44"/><path d="M376.74,247.67c.66.08,1.32-.65,2.09-1.69s1.68-2.46,2.73-4c2.09-3.14,4-5.91,3.18-6.94-.4-.49-1.46-.4-2.81.32a12.48,12.48,0,0,0-4.25,4,11.13,11.13,0,0,0-2,5.64C375.62,246.6,376.12,247.59,376.74,247.67Z" style="fill:#73be44"/><path d="M376.75,257.66a2.88,2.88,0,1,0,.35-3.65A2.6,2.6,0,0,0,376.75,257.66Z" style="fill:#73be44"/><path d="M393.41,250.33c.8,1,3.94-.23,6.75-2.68a18.7,18.7,0,0,0,3.25-3.5c.71-1.05,1-1.94.67-2.48s-1.34-.6-2.63-.17a13.43,13.43,0,0,0-4.32,2.6C394.22,246.64,392.65,249.32,393.41,250.33Z" style="fill:#73be44"/><path d="M361.73,320.56c-.07-.77-.13-1.54-.18-2.32C361.6,319,361.66,319.79,361.73,320.56Z" style="fill:#182a42"/><path d="M362.16,324.11c-.13-.86-.24-1.73-.34-2.61C361.92,322.38,362,323.24,362.16,324.11Z" style="fill:#182a42"/><path d="M361.5,317.3c-.05-1.06-.09-2.14-.09-3.22C361.41,315.16,361.45,316.24,361.5,317.3Z" style="fill:#182a42"/><path d="M445.49,318.79c.05-.69.09-1.38.12-2.08C445.58,317.41,445.54,318.1,445.49,318.79Z" style="fill:#182a42"/><path d="M362.8,327.79c-.22-1.05-.41-2.12-.57-3.19C362.39,325.67,362.58,326.74,362.8,327.79Z" style="fill:#182a42"/><path d="M363.52,330.84c-.25-1-.48-1.94-.69-2.93C363,328.9,363.27,329.88,363.52,330.84Z" style="fill:#182a42"/><path d="M444.9,324.2a110.36,110.36,0,0,0-19.82-1.78c-22.75,0-43.35,6.8-58.34,17.81,7.2,16.45,21,27.58,36.8,27.58,21.9,0,39.89-21.32,41.92-48.57C445.33,320.92,445.15,322.57,444.9,324.2Z" style="fill:#30572a"/><path d="M366.73,340.22a61.86,61.86,0,0,1-2.22-5.9A61.86,61.86,0,0,0,366.73,340.22Z" style="fill:#182a42"/><path d="M364.42,334c-.28-.89-.53-1.78-.77-2.68C363.89,332.24,364.14,333.13,364.42,334Z" style="fill:#182a42"/><path d="M410.08,366.09c0-24.83-27.35-45.25-62.42-47.75l-7.24-20.25v20h0v-20l-7.23,20.25c-35.08,2.5-62.44,22.92-62.44,47.75,0,16.68,12.36,31.38,31.12,40h0c36.77,22,38.55,50,38.55,50v-42h0v42s1.78-28,38.56-50h0C397.72,397.46,410.08,382.77,410.08,366.09Z" style="fill:#6b6b6b"/><path d="M340.41,414.09v-116l-7.23,20.25c-35.08,2.5-62.44,22.92-62.44,47.75,0,16.68,12.36,31.38,31.12,40h0c36.77,22,38.55,50,38.55,50Z" style="fill:#8c8b8b"/><path d="M313.84,527.79s25.54,10.22,50.49,0c0,0-5.6,11.52-11.35,5.13,0,0-2.26,12.52-8.64,3.38,0,0-5.51,15.4-10.26.13,0,0-6.89,9.07-9-5C325.06,531.42,320.06,539.68,313.84,527.79Z" style="fill:#b5d344"/><path d="M307.76,545.94s31.7,12.67,62.64,0c0,0-6.94,14.29-14.08,6.37,0,0-2.8,15.53-10.72,4.19,0,0-6.83,19.1-12.73.16,0,0-8.54,11.25-11.18-6.22C321.69,550.44,315.48,560.69,307.76,545.94Z" style="fill:#b5d344"/><path d="M297.84,562.91s41.73,16.69,82.48,0c0,0-9.13,18.82-18.54,8.39,0,0-3.68,20.45-14.11,5.52,0,0-9,25.15-16.77.21,0,0-11.24,14.82-14.72-8.18C316.18,568.85,308,582.34,297.84,562.91Z" style="fill:#b5d344"/></svg>