<svg id="Capa_1" data-name="Capa 1" xmlns="http://www.w3.org/2000/svg" viewBox="0 0 667 622"><path d="M474,302.28a140.54,140.54,0,1,0-281.07,0v40.93a139.9,139.9,0,0,0,28.76,85.18c-2.88,6.41-10.68,9.62-17,11.35,2.67,9.33,15.34,5.33,19.34-.67-.67,8-5.34,13.34-8,20.67,6.29,2.29,15-5.24,17.39-12.05-.42,5.87,2.26,12.4,7.27,4.05,4.12,8.57,8.41,9.37,12.33,6.69a140.55,140.55,0,0,0,160.92,0c3.92,2.68,8.21,1.88,12.32-6.69,5,8.35,7.7,1.82,7.28-4.05,2.36,6.81,11.1,14.34,17.39,12.05-2.67-7.33-7.33-12.67-8-20.67,4,6,16.67,10,19.33.67-6.32-1.73-14.12-4.94-17-11.35A140,140,0,0,0,474,343.21Z" style="fill:#406faf"/><path d="M388.17,528.45c0,51.67-24.48,93.55-54.67,93.55s-54.66-41.88-54.66-93.55,24.47-93.55,54.66-93.55S388.17,476.79,388.17,528.45Z" style="fill:#406faf"/><path d="M324,182.74c-45.52-6.69-13.39-81.66,29.45-79-8,9.37-44.18,24.1-26.77,40.16,8-26.77,52.21-30.79,46.85,2.68-14.72,2.68-58.9-1.34-49.53,28.11" style="fill:#406faf"/><path d="M474,343.21A140.13,140.13,0,0,1,430.37,445a43.63,43.63,0,0,1-4.58.25C388.33,445.28,358,397,358,337.51s30.37-107.77,67.83-107.77c13.67,0,26.4,6.44,37,17.49a140.17,140.17,0,0,1,11.19,55Z" style="fill:#fff;opacity:0.26"/><path d="M193,343.21A140.13,140.13,0,0,0,236.63,445a43.63,43.63,0,0,0,4.58.25C278.67,445.28,309,397,309,337.51s-30.37-107.77-67.83-107.77c-13.67,0-26.4,6.44-37.05,17.49a140.17,140.17,0,0,0-11.19,55Z" style="fill:#fff;opacity:0.26"/><path d="M373.71,322.13c0,32,21.84,57.92,48.78,57.92s48.78-25.93,48.78-57.92-21.84-57.92-48.78-57.92S373.71,290.15,373.71,322.13Z"/><path d="M373.71,329.13c0,32,21.84,57.92,48.78,57.92s48.78-25.93,48.78-57.92-21.84-57.92-48.78-57.92S373.71,297.15,373.71,329.13Z" style="fill:#efe836"/><path d="M378.46,329.13c0,28.87,19.71,52.28,44,52.28s44-23.41,44-52.28-19.72-52.28-44-52.28S378.46,300.26,378.46,329.13Z" style="fill:#fff"/><path d="M388.21,341.13c0,22.48,15.35,40.71,34.28,40.71s34.28-18.23,34.28-40.71-15.35-40.7-34.28-40.7S388.21,318.65,388.21,341.13Z"/><path d="M453.5,282.63c10.67,18,32.67-4.67,35.34-17.33,1.33,8.66-4.67,15.33-10.67,20.66a10,10,0,0,0,10-4c-.67,6.67-8,12-14,14.67a14.91,14.91,0,0,0,14-.67c-4.67,6.67-12,11.34-20,10"/><path d="M293.29,322.13c0,32-21.84,57.92-48.78,57.92s-48.78-25.93-48.78-57.92,21.84-57.92,48.78-57.92S293.29,290.15,293.29,322.13Z"/><path d="M293.29,329.13c0,32-21.84,57.92-48.78,57.92s-48.78-25.93-48.78-57.92,21.84-57.92,48.78-57.92S293.29,297.15,293.29,329.13Z" style="fill:#efe836"/><path d="M288.54,329.13c0,28.87-19.71,52.28-44,52.28s-44-23.41-44-52.28,19.72-52.28,44-52.28S288.54,300.26,288.54,329.13Z" style="fill:#fff"/><path d="M278.79,341.13c0,22.48-15.35,40.71-34.28,40.71s-34.28-18.23-34.28-40.71,15.35-40.7,34.28-40.7S278.79,318.65,278.79,341.13Z"/><path d="M360.59,489.26a177.89,177.89,0,0,1-27.09-46.94v-.58l-.12.29-.12-.29v.58A177.69,177.69,0,0,1,306,489.43a69.12,69.12,0,1,0,54.55-.17Z" style="fill:#406faf"/><path d="M360.59,489.26a177.89,177.89,0,0,1-27.09-46.94v-.58l-.12.29-.12-.29v.58A177.69,177.69,0,0,1,306,489.43a69.12,69.12,0,1,0,54.55-.17Z" style="fill:#fff;opacity:0.26"/><circle cx="333.5" cy="354.33" r="68.58" transform="translate(-118.8 174.91) rotate(-25.1)" style="fill:#406faf"/><circle cx="333.5" cy="354.33" r="68.58" transform="translate(-118.8 174.91) rotate(-25.1)" style="opacity:0.14"/><path d="M403.77,371.55a70.27,70.27,0,1,0-121.22,48.22h0l.08.05a70.35,70.35,0,0,0,19.19,14.24c19.89,16.08,30.4,29.07,31.58,30.55v.16l.06-.08.06.08v-.16c1.17-1.47,11.61-14.38,31.36-30.37A70.06,70.06,0,0,0,403.77,371.55Z" style="fill:#f37725"/><path d="M333.5,301.48h0v163.3h0v-.16c1.17-1.47,11.61-14.38,31.36-30.37A70,70,0,0,0,333.5,301.48Z" style="fill:#e26026"/><path d="M310.7,507.29s23.07,9.23,45.6,0c0,0-5.05,10.41-10.25,4.64,0,0-2,11.3-7.8,3.05,0,0-5,13.91-9.27.12,0,0-6.22,8.19-8.14-4.53C320.84,510.57,316.32,518,310.7,507.29Z" style="fill:#406faf"/><path d="M299.22,518.79s34.69,13.88,68.56,0c0,0-7.6,15.64-15.42,7,0,0-3.06,17-11.72,4.58,0,0-7.48,20.91-13.94.17,0,0-9.34,12.33-12.23-6.79C314.47,523.73,307.67,534.94,299.22,518.79Z" style="fill:#406faf"/><path d="M282.76,532.18s51,20.41,100.85,0c0,0-11.17,23-22.67,10.26,0,0-4.5,25-17.25,6.75,0,0-11,30.75-20.5.25,0,0-13.75,18.13-18-10C305.19,539.44,295.19,555.94,282.76,532.18Z" style="fill:#406faf"/><path d="M333.5,487.62a68.34,68.34,0,0,1,68.25,64.83c.05-1.16.08-2.32.08-3.5a68.33,68.33,0,0,0-136.66,0c0,1.18,0,2.34.08,3.5A68.34,68.34,0,0,1,333.5,487.62Z" style="fill:#fff;opacity:0.58"/><path d="M213.5,282.63c-10.67,18-32.67-4.67-35.34-17.33-1.33,8.66,4.67,15.33,10.67,20.66a10,10,0,0,1-10-4c.67,6.67,8,12,14,14.67a14.91,14.91,0,0,1-14-.67c4.67,6.67,12,11.34,20,10"/></svg>