<svg id="Capa_1" data-name="Capa 1" xmlns="http://www.w3.org/2000/svg" viewBox="0 0 667 622"><path d="M518.9,393.82c9.21-7.52,20.92-15.05,29.28-23.42,13.38-13.38,21.75-30.95,33.46-45.17,18.4,24.26,55.21,23.42,84.48,18.41,4.19,15.05-16.73,15.05-25.93,13.38,7.53,4.18,23.42,19.24,15.06,28.44-6.69,6.69-30.11-.84-37.64-3.35,7.53,5.86,17.56,25.93,4.18,32.63-10.87,4.18-25.93-10-30.11-17.57,11.71,22.59-14.22,20.08-17.57.84,8.37,17.56-15.89,14.22-21.75,2.51,10,10-7.53,16.73-11.71,1.67-4.18,3.35-13.38,2.51-17.56,2.51" style="fill:#b6cce9"/><path d="M526.43,395.5l53.12-47.26,49.35,7.52s22.59,11.3-16.31,8.79c0,0,14.22,15.05-16.31,12.54,0,0,10.87,14.11-9.62,7.27,0,0,8.45,14.48-20.24-4.34,0,0,5.47,14.52-5.27,4.34,0,0-1,8-12.13,4.45C549,388.81,542.74,383.79,526.43,395.5Z" style="fill:#7ea7d8"/><path d="M148.1,393.82c-9.21-7.52-20.92-15.05-29.28-23.42C105.44,357,97.07,339.45,85.36,325.23,67,349.49,30.15,348.65.88,343.64-3.31,358.69,17.61,358.69,26.81,357c-7.53,4.18-23.43,19.24-15.06,28.44,6.69,6.69,30.11-.84,37.64-3.35C41.86,388,31.83,408,45.21,414.74c10.87,4.18,25.93-10,30.11-17.57-11.71,22.59,14.22,20.08,17.57.84-8.37,17.56,15.89,14.22,21.75,2.51-10,10,7.53,16.73,11.71,1.67,4.18,3.35,13.38,2.51,17.56,2.51" style="fill:#b6cce9"/><path d="M140.57,395.5,87.45,348.24,38.1,355.76s-22.59,11.3,16.31,8.79c0,0-14.22,15.05,16.31,12.54,0,0-10.87,14.11,9.62,7.27,0,0-8.45,14.48,20.24-4.34,0,0-5.47,14.52,5.27,4.34,0,0,1,8,12.13,4.45C118,388.81,124.26,383.79,140.57,395.5Z" style="fill:#7ea7d8"/><path d="M541.92,434.22c6.67,2,13.34,6.67,20,5.34-2.69-7.65-17.24-25-30.1-30.17a198.32,198.32,0,0,0-16.64-68c8.59,2,15.77.6,16.08-9.19,0-17.12-26.55-28.21-41.18-32.69l-.12-.15c9.63,2.69,34.54,12.86,25.3-3.16-7.34-12.66-28.67-14-41.34-18,9.34-.66,43.34-5.33,20-16.66-8.15-4.35-29.58-3.82-41.2,1.21a199,199,0,0,0-28.26-17.83l.13-.05-.37-.08a198.38,198.38,0,0,0-33.84-13.74c9.21-.79,21.29-1.06,27.54-6.18-5-10.46-28.92-4.18-44.34,1.9-1.14-.24-2.29-.46-3.44-.68a22.14,22.14,0,0,0,5.12-20.55c-6.91,2.65-15.09,10.4-18.12,18.5a200.8,200.8,0,0,0-46.86-.27c-3.11-8-11.19-15.61-18-18.23A22.13,22.13,0,0,0,297,225.7c-1.32.24-2.63.49-3.94.75-15.43-6-38.6-11.83-43.49-1.56,5.83,4.77,16.71,5.33,25.61,6a199.06,199.06,0,0,0-62,31.21c-11.89-4.42-31.79-4.71-39.58-.56-23.33,11.33,10.67,16,20,16.66-12.66,4-34,5.34-41.33,18-8.34,14.45,11.11,7.59,22.07,4.14l-.17.22c-15,5-37.9,15.73-37.9,31.64.27,8.74,6,10.77,13.37,9.7a198.48,198.48,0,0,0-16.48,68.64c-12.17,6.22-25,21.85-27.56,29,6.67,1.33,13.34-3.34,20-5.34-4.66,5.34-19.33,10-19.33,18,0,12,18,3.16,28.37-2.85.06.4.11.8.17,1.2-11.88,10.89-32.56,34.67-20.54,42.32,7.72,4.72,18.46-6.56,25.69-17.52A196.93,196.93,0,0,0,154,512c-8.83-1.52-17.57-2.92-27.11-1.08-1,10.23,18.7,12.63,33.27,12.39.37.63.73,1.26,1.11,1.88-8.27,4.2-15.73,12.3-14.38,20.4,2.84,15.34,16.82,2.58,24.19-5.64l.83,1.14c-4.87,11.83-10.61,35.55,3.64,37.83,4.75,1,11.16-5.93,16.93-14.19a202.6,202.6,0,0,0,20.18,17.38c2.87,7.57,7.33,14.62,10.89,16.81,6.82,4.29,10.38,2.56,12.18-1.86a199.9,199.9,0,0,0,195.56-1.16c1.65,5.25,5.21,7.67,12.59,3,4-2.44,9.05-10.9,11.8-19.41A202.6,202.6,0,0,0,474,563.25c6,8.89,12.9,16.64,17.92,15.64,15.17-2.43,7.7-29.14,2.72-40,.13-.19.27-.37.41-.55,6.84,8,22.52,23.52,25.54,7.18,1.46-8.73-7.32-17.46-16.32-21.31l.61-1c14.69.55,36.74-1.51,35.71-12.33-10.52-2-20.06-.12-29.82,1.55a198.75,198.75,0,0,0,15.07-39.8c7.13,11.69,19,25.36,27.42,20.25,12.81-8.15-11.49-34.6-22.75-44.28l.09-.59c9.7,5.83,30.66,17.16,30.66,4.2C561.26,444.22,546.59,439.56,541.92,434.22Z" style="fill:#406faf"/><path d="M405.72,357.09A64.11,64.11,0,1,0,469.83,293,64.11,64.11,0,0,0,405.72,357.09Z" style="fill:#1f406c"/><path d="M418.21,348.39a51.62,51.62,0,1,0,51.62-51.63A51.62,51.62,0,0,0,418.21,348.39Z" style="fill:#fff"/><path d="M261.79,357.09A64.11,64.11,0,1,1,197.68,293,64.11,64.11,0,0,1,261.79,357.09Z" style="fill:#1f406c"/><path d="M249.31,348.39a51.63,51.63,0,1,1-51.63-51.63A51.63,51.63,0,0,1,249.31,348.39Z" style="fill:#fff"/><path d="M491.48,348.39c0,8.05,5,14.58,11.12,14.58s11.12-6.53,11.12-14.58-5-14.59-11.12-14.59S491.48,340.33,491.48,348.39Z"/><path d="M176,348.39c0,8.05-5,14.58-11.12,14.58s-11.12-6.53-11.12-14.58,5-14.59,11.12-14.59S176,340.33,176,348.39Z"/><circle cx="333.76" cy="482.72" r="138.93" style="fill:#b6cce9"/><polygon points="333.3 367.92 361.4 352.53 333.3 352.53 333.18 352.53 305.72 352.53 333.82 367.92 333.18 367.98 333.24 367.95 333.3 367.98 333.3 367.92" style="fill:#c66728"/><polygon points="333.55 330.97 333.55 354.89 369.61 354.89 333.55 330.97" style="fill:#f6a76c"/><polygon points="333.71 330.97 333.71 354.89 297.65 354.89 333.71 330.97" style="fill:#f58938"/><path d="M428.08,265.64c-1.23-14.77,25.24-36.93,38.17-37.55-1.85,5.54-4.31,10.47-8.62,14.16,9.85-3.69,20.31-6.15,30.78-5.54-3.08,2.46-8,3.7-11.7,4.31,11.7,0,20.93-1.23,32.62,2.46-5.54,2.46-11.69,3.08-17.85,3.08,8.62,3.69,25.85,7.39,25.85,19.7-7.38-.62-18.46-6.77-25.23-11.08,3.69,2.46,15.39,16,9.23,20.92-4.92,3.08-20.93-12.92-24-16,2.46,2.46,11.69,13.54,6.15,16.62-4.31,2.46-16.62-11.08-20.31-12.93-10.46-5.54-20.93-4.3-31.39.62" style="fill:#1f406c"/><path d="M239.43,265.64c1.23-14.77-25.24-36.93-38.16-37.55,1.84,5.54,4.31,10.47,8.61,14.16-9.84-3.69-20.31-6.15-30.77-5.54,3.08,2.46,8,3.7,11.69,4.31-11.69,0-20.92-1.23-32.62,2.46,5.54,2.46,11.7,3.08,17.85,3.08-8.61,3.69-25.85,7.39-25.85,19.7,7.39-.62,18.47-6.77,25.24-11.08-3.7,2.46-15.39,16-9.24,20.92,4.93,3.08,20.93-12.92,24-16-2.46,2.46-11.7,13.54-6.16,16.62,4.31,2.46,16.62-11.08,20.31-12.93,10.47-5.54,20.93-4.3,31.4.62" style="fill:#1f406c"/><path d="M241.54,522.89s93.31,39.48,184.43,0c0,0-20.43,44.51-41.46,19.84,0,0-8.23,48.37-31.55,13.06,0,0-20.12,59.49-37.49.49,0,0-25.15,35.06-32.92-19.35C282.55,536.93,264.26,568.85,241.54,522.89Z" style="fill:#7ea7d8"/></svg>