<svg id="Capa_1" data-name="Capa 1" xmlns="http://www.w3.org/2000/svg" viewBox="0 0 667 622"><path d="M403.48,490.51c8.87,28.82-28.82,48.78-51,51,10,5.55,21.06,3.33,32.14,0-6.65,6.65-14.41,14.41-23.28,18.85,8.87,2.21,19.95,1.11,27.71-3.33-4.43,4.44-8.86,10-13.3,14.41,52.1,20,85.35-56.53,31-75.37" style="fill:#406faf"/><g style="opacity:0.33"><path d="M403.48,490.51c8.87,28.82-28.82,48.78-51,51,10,5.55,21.06,3.33,32.14,0-6.65,6.65-14.41,14.41-23.28,18.85,8.87,2.21,19.95,1.11,27.71-3.33-4.43,4.44-8.86,10-13.3,14.41,52.1,20,85.35-56.53,31-75.37"/></g><path d="M256.87,490.51c-8.87,28.82,28.82,48.78,51,51-10,5.55-21.06,3.33-32.15,0,6.65,6.65,14.41,14.41,23.28,18.85-8.87,2.21-19.95,1.11-27.71-3.33,4.43,4.44,8.87,10,13.3,14.41-52.1,20-85.35-56.53-31-75.37" style="fill:#406faf"/><g style="opacity:0.33"><path d="M256.87,490.51c-8.87,28.82,28.82,48.78,51,51-10,5.55-21.06,3.33-32.15,0,6.65,6.65,14.41,14.41,23.28,18.85-8.87,2.21-19.95,1.11-27.71-3.33,4.43,4.44,8.87,10,13.3,14.41-52.1,20-85.35-56.53-31-75.37"/></g></svg>