<svg id="Capa_1" data-name="Capa 1" xmlns="http://www.w3.org/2000/svg" viewBox="0 0 667 622"><path d="M499.92,376.34A45.86,45.86,0,0,0,517.65,373c-2.21,10-11.08,23.28-18.84,31,4.43,3.33,8.86,7.76,14.41,8.87-4.44,11.09-16.63,14.41-27.71,14.41,3.32,5.55,17.73,7.76,15.51,15.52-3.32,10-22.16,4.44-26.6,2.22,13.3,27.71-24.38,11.08-37.68,11.08,1.1,12.2,0,36.58-20,22.17,4.44,18.85-17.73,8.87-22.17-1.11" style="fill:#406faf"/><path d="M167.08,376.34A45.86,45.86,0,0,1,149.35,373c2.21,10,11.08,23.28,18.84,31-4.43,3.33-8.87,7.76-14.41,8.87,4.44,11.09,16.63,14.41,27.71,14.41-3.32,5.55-17.73,7.76-15.52,15.52,3.33,10,22.17,4.44,26.61,2.22-13.3,27.71,24.38,11.08,37.69,11.08-1.12,12.2,0,36.58,19.95,22.17-4.44,18.85,17.73,8.87,22.17-1.11" style="fill:#406faf"/><path d="M419.81,542.05c0,44.16-40.93,80-91.43,80S237,586.21,237,542.05s40.93-79.94,91.43-79.94S419.81,497.9,419.81,542.05Z" style="fill:#406faf"/><path d="M508.87,348c0,86.63-78.52,156.85-175.37,156.85S158.13,434.61,158.13,348,183.52,218.85,333.5,218.85C470.8,218.85,508.87,261.36,508.87,348Z" style="fill:#406faf"/><path d="M342.23,319.69c-16-36.09,28.08-78.87,61.5-88.23,29.42-8,136.37,37.43,129.68-20.06,12,18.72,13.37,52.14-20,54.82,5.35,0,9.36,2.67,16,1.33-9.35,46.8-119-28.07-139,1.34" style="fill:#1f406c"/><path d="M324.77,319.69c16-36.09-28.08-78.87-61.5-88.23-29.41-8-136.37,37.43-129.68-20.06-12,18.72-13.37,52.14,20,54.82-5.35,0-9.36,2.67-16,1.33,9.35,46.8,119-28.07,139,1.34" style="fill:#1f406c"/><path d="M420.46,239.35c-43.37,0-79.44,38.38-87,89-7.52-50.62-43.59-89-87-89-48.83,0-88.41,48.64-88.41,108.63s39.58,108.63,88.41,108.63c43.37,0,79.44-38.37,87-89,7.52,50.62,43.59,89,87,89,48.83,0,88.41-48.63,88.41-108.63S469.29,239.35,420.46,239.35Z" style="fill:#b6cce9"/><path d="M333.5,490.47c53.16-7.82,106.22-36.53,106.22-36.53L334.13,373h-1.55L227,453.94s53.06,28.71,106.22,36.53v0l.14,0,.15,0Z" style="fill:#b6cce9"/><path d="M333.5,354v72s15.47-33.84,38.65-39.47C372.15,386.53,342.37,387,333.5,354Z" style="fill:#848383"/><path d="M333.5,354v72S318,392.16,294.86,386.53C294.86,386.53,324.63,387,333.5,354Z" style="fill:#b7b7b8"/><path d="M345,347.59a80.47,80.47,0,1,0,80.47-80.47A80.46,80.46,0,0,0,345,347.59Z" style="fill:#fff"/><path d="M354.52,347.59a70.95,70.95,0,1,0,71-70.94A71,71,0,0,0,354.52,347.59Z" style="fill:#2e6b8e"/><path d="M358.58,340.94A62.46,62.46,0,1,0,421,278.49,62.46,62.46,0,0,0,358.58,340.94Z"/><path d="M366.85,305.7A16.68,16.68,0,1,0,383.53,289,16.68,16.68,0,0,0,366.85,305.7Z" style="fill:#fff"/><circle cx="241.53" cy="347.59" r="80.47" style="fill:#fff"/><path d="M312.48,347.59a70.95,70.95,0,1,1-71-70.94A70.95,70.95,0,0,1,312.48,347.59Z" style="fill:#2e6b8e"/><path d="M398.91,560.33c0,34.06-31.58,61.67-70.53,61.67s-70.53-27.61-70.53-61.67,57.15-61.68,70.53-61.68S398.91,526.26,398.91,560.33Z" style="fill:#b6cce9"/><path d="M308.42,340.94A62.45,62.45,0,1,1,246,278.49,62.46,62.46,0,0,1,308.42,340.94Z"/><path d="M300.15,305.7A16.68,16.68,0,1,1,283.47,289,16.68,16.68,0,0,1,300.15,305.7Z" style="fill:#fff"/><path d="M293.11,529.8s35.69,14.28,70.54,0c0,0-7.82,16.09-15.86,7.18,0,0-3.15,17.48-12.06,4.72,0,0-7.7,21.51-14.34.17,0,0-9.62,12.68-12.6-7C308.79,534.88,301.8,546.42,293.11,529.8Z" style="fill:#7ea7d8"/><path d="M285.05,549.51s43.84,17.54,86.66,0c0,0-9.6,19.78-19.48,8.82,0,0-3.87,21.48-14.83,5.8,0,0-9.45,26.42-17.61.21,0,0-11.82,15.58-15.47-8.59C304.32,555.75,295.72,569.93,285.05,549.51Z" style="fill:#7ea7d8"/><path d="M272.49,567.85s56.55,22.63,111.78,0c0,0-12.38,25.51-25.13,11.38,0,0-5,27.71-19.12,7.48,0,0-12.2,34.08-22.73.27,0,0-15.24,20.09-20-11.08C297.34,575.9,286.26,594.19,272.49,567.85Z" style="fill:#7ea7d8"/><path d="M403.48,490.51c8.87,28.82-28.82,48.78-51,51,10,5.55,21.06,3.33,32.14,0-6.65,6.65-14.41,14.41-23.28,18.85,8.87,2.21,19.95,1.11,27.71-3.33-4.43,4.44-8.86,10-13.3,14.41,52.1,20,85.35-56.53,31-75.37" style="fill:#1f406c"/><path d="M256.87,490.51c-8.87,28.82,28.82,48.78,51,51-10,5.55-21.06,3.33-32.15,0,6.65,6.65,14.41,14.41,23.28,18.85-8.87,2.21-19.95,1.11-27.71-3.33,4.43,4.44,8.87,10,13.3,14.41-52.1,20-85.35-56.53-31-75.37" style="fill:#1f406c"/></svg>