<svg id="Capa_1" data-name="Capa 1" xmlns="http://www.w3.org/2000/svg" viewBox="0 0 667 622"><path d="M369.67,530.59c2.66-.33,2.33-2.33,4.33-4,3.33-3.67,7.67-6.33,11.67-9.67,3-3,4.33-4,5.33-8,1-4.33-.33-6.66,4.67-8.33,9-3.67,9.66,5.67,16.66,7,7,1,14.67-.67,21-3.67.34,8.34-2.58,9.7-11.58,11-6,1-17.08,5-17.08-3.37-5,1-8,5.33-12.34,7.67-6.66,4-17.33,9-21,15.66" style="fill:#f8b19c"/><path d="M430.2,507.54c6.34,2.24,12.32,5.22,18.66,7.08,3,1.12,15.29,3.36,10.44,6.72-7.09,5.22-33.57-7.46-30.59-14.18" style="fill:#e81e25"/><path d="M426.41,510.86c6.75,5.34,10.82,13.95,18,20-4.58,5.9-16.88-3.9-18.19-7.61-1.78-4.38.25-9.51-1-14" style="fill:#e81e25"/><path d="M409.59,511.74c2.33,5.67-7,13-7.67,19-11.66.67,5.67-17.67,7.67-19.67" style="fill:#e81e25"/><path d="M420.59,513.71c1.76,3.85,3,7.85,4.94,11.54.79,1.84,5.16,8.4,1.52,7.67-5.47-.93-11.29-18.47-6.94-20" style="fill:#e81e25"/><path d="M417.42,513.44c.54,5.39-1.58,11-1.15,16.89-4.68.5-5.61-9.35-4.5-11.56,1.2-2.72,4.41-4,5.91-6.6" style="fill:#e81e25"/><path d="M295.67,530.59c-2.66-.33-2.33-2.33-4.33-4-3.33-3.67-7.67-6.33-11.67-9.67-3-3-4.33-4-5.33-8-1-4.33.33-6.66-4.67-8.33-9-3.67-9.66,5.67-16.66,7-7,1-14.67-.67-21-3.67-.34,8.34,2.58,9.7,11.58,11,6,1,17.08,5,17.08-3.37,5,1,8,5.33,12.34,7.67,6.66,4,17.33,9,21,15.66" style="fill:#f8b19c"/><path d="M235.14,507.54c-6.35,2.24-12.32,5.22-18.66,7.08-3,1.12-15.29,3.36-10.44,6.72,7.08,5.22,33.57-7.46,30.59-14.18" style="fill:#e81e25"/><path d="M238.93,510.86c-6.75,5.34-10.82,13.95-18,20,4.58,5.9,16.88-3.9,18.19-7.61,1.78-4.38-.25-9.51,1-14" style="fill:#e81e25"/><path d="M255.75,511.74c-2.33,5.67,7,13,7.67,19,11.66.67-5.67-17.67-7.67-19.67" style="fill:#e81e25"/><path d="M244.75,513.71c-1.76,3.85-3,7.85-4.94,11.54-.79,1.84-5.16,8.4-1.52,7.67,5.47-.93,11.29-18.47,6.94-20" style="fill:#e81e25"/><path d="M247.92,513.44c-.54,5.39,1.58,11,1.15,16.89,4.68.5,5.61-9.35,4.5-11.56-1.2-2.72-4.41-4-5.91-6.6" style="fill:#e81e25"/><path d="M335.48,235.88c18.9-15.26,41.4-22.19,64.39-27.17-5.5-10.47-28.06-11.84-37.31-5.62-5.88,4.16-10,11-13.81,16.75-5.95,9.44-13.11,17.28-19.4,26" style="fill:#e81e25"/><path d="M333.83,235.67c-14.31-19.63-34.25-32.13-55.18-42.88,8-8.7,30.16-4.2,37.49,4.21,4.61,5.53,6.86,13.19,9,19.74,3.31,10.66,8.2,20.08,12,30.14" style="fill:#e81e25"/><path d="M333.83,235.67c-8.59-33.2-28.26-60-50.13-85,15.05-7.25,41.76,10.18,47,25,3.17,9.65,2.13,20.87,1.57,30.59-1.2,15.7.32,30.61.11,45.8" style="fill:#e81e25"/><path d="M333.83,235.67c9.34-40,3.34-79.34-6-118,20,.66,38.67,34,36,52.66-2,12-9.33,23.34-15.33,33.34-10,16-16.67,32.66-25.33,48.66" style="fill:#e81e25"/><polygon points="346.38 527.06 320.61 527.06 327.76 401 339.24 401 346.38 527.06" style="fill:#f8b19c"/><path d="M367.46,515.71a9.07,9.07,0,0,0,1.37-5,50.94,50.94,0,0,1-5.95,1.95c-1.64-1-3.33-1.93-5.07-2.77,4.57-2.17,8.18-5.54,9-11.18-6,2-11.33,6-18,6,7.34-2,8-9.34,6-15.34-4.39,4.94-12.38,9.43-16.93,14.95-1.89-.18-3.8-.28-5.73-.28s-3.85.1-5.74.28c-4.55-5.52-12.54-10-16.93-14.95-2,6-1.33,13.34,6,15.34-6.67,0-12-4-18-6,.85,5.65,4.45,9,9,11.18-1.73.84-3.42,1.77-5.06,2.77a50.48,50.48,0,0,1-6-1.95,9.19,9.19,0,0,0,1.37,5.05,59,59,0,1,0,70.59,0Z" style="fill:#e81e25"/><path d="M319.17,469.67c-.66,1.1.15,2.81,1.7,4s3.36,1.54,4.3.65.35-3-1.45-4.34S319.82,468.55,319.17,469.67Z" style="fill:#e81e25"/><path d="M316.5,483.67c0,.64.54,1.23,1.44,1.64a6.93,6.93,0,0,0,3.77.42,6.13,6.13,0,0,0,3.67-1.85c.74-.86.84-1.72.45-2.21a2.57,2.57,0,0,0-2-.72,13.56,13.56,0,0,0-2.87.17C318.76,481.43,316.48,482.34,316.5,483.67Z" style="fill:#e81e25"/><path d="M322.5,497.67a2.93,2.93,0,0,0,1.81-.1,2.87,2.87,0,0,0,2.09-2.09,2.93,2.93,0,0,0,.1-1.81,1.75,1.75,0,0,0-1.5-1.18,3.51,3.51,0,0,0-3.67,3.67A1.73,1.73,0,0,0,322.5,497.67Z" style="fill:#e81e25"/><path d="M333.17,488.33c-1.05.74-1.08,2.62,0,4.49s3,2.93,4,2.18,1.07-2.63,0-4.49S334.23,487.58,333.17,488.33Z" style="fill:#e81e25"/><path d="M335.83,505a1.81,1.81,0,0,0,.16,2,5.43,5.43,0,0,0,4.79,2.22,2.38,2.38,0,0,0,1.72-.9,1.81,1.81,0,0,0-.16-2,5.09,5.09,0,0,0-2.26-1.8,5,5,0,0,0-2.53-.42A2.38,2.38,0,0,0,335.83,505Z" style="fill:#e81e25"/><path d="M339.83,483c.05,1.28,1.74,2.32,4,2.72s4.36-.13,4.69-1.39-1.38-2.78-3.91-3.21a6.29,6.29,0,0,0-3.36.28C340.34,481.76,339.83,482.36,339.83,483Z" style="fill:#e81e25"/><path d="M339.17,469c-.24.59.11,1.38,1,2.11a8.3,8.3,0,0,0,3.84,1.71,8.39,8.39,0,0,0,4.17-.21c1.06-.38,1.68-1,1.68-1.61,0-1.31-2.34-2.27-5-2.77S339.69,467.8,339.17,469Z" style="fill:#e81e25"/><path d="M332.5,461.67a2.38,2.38,0,0,0-3.17,1.46,2.52,2.52,0,0,0,1.17,3.2,2.37,2.37,0,0,0,3.16-1.47A2.49,2.49,0,0,0,332.5,461.67Z" style="fill:#e81e25"/><path d="M446.5,380.67c7,8,18,8,27,6-6-9-26-18-26-29,12,1,28-8,25-23-8.3,6-18.87,8.65-28.72,8.29a111.22,111.22,0,0,0,1.16-16c0-61.15-49.57-87.72-110.72-87.72S223.5,265.8,223.5,327a113,113,0,0,0,1.14,15.93c-10.24.68-21.44-1.88-30.14-8.21-3,15,13,24,25,23,0,11-20,20-26,29,9,2,20,2,27-6,1,18-19,28-27,41,17,4,35-4,40-21-1,13-9,23-10,35,14,5,26-8,30-20,0,10-8,25,2,30,10,4,28-9,31-17-1,8-6,23,2,28,8,4,20-4,23-10-8,18,8,16,17,5a31.45,31.45,0,0,0,5-10.82,31.45,31.45,0,0,0,5,10.82c9,11,25,13,17-5,3,6,15,14,23,10,8-5,3-20,2-28,3,8,21,21,31,17,10-5,2-20,2-30,4,12,16,25,30,20-1-12-9-22-10-35,5,17,23,25,40,21C465.5,408.67,445.5,398.67,446.5,380.67Z" style="fill:#f8b19c"/><path d="M446.5,380.67c7,8,18,8,27,6-6-9-26-18-26-29,12,1,28-8,25-23-8.3,6-18.87,8.65-28.72,8.29a111.22,111.22,0,0,0,1.16-16c0-35.48-16.69-59.31-42.65-73.07-16.09,8.76-39.7,14.29-66,14.29-27.41,0-51.88-6-68-15.4C241.11,266.34,223.5,290.51,223.5,327a113,113,0,0,0,1.14,15.93c-10.24.68-21.44-1.88-30.14-8.21-3,15,13,24,25,23,0,11-20,20-26,29,9,2,20,2,27-6,1,18-19,28-27,41,17,4,35-4,40-21-1,13-9,23-10,35,14,5,26-8,30-20,0,10-8,25,2,30,10,4,28-9,31-17-1,8-6,23,2,28,8,4,20-4,23-10-8,18,8,16,17,5a31.45,31.45,0,0,0,5-10.82,31.45,31.45,0,0,0,5,10.82c9,11,25,13,17-5,3,6,15,14,23,10,8-5,3-20,2-28,3,8,21,21,31,17,10-5,2-20,2-30,4,12,16,25,30,20-1-12-9-22-10-35,5,17,23,25,40,21C465.5,408.67,445.5,398.67,446.5,380.67Z" style="fill:#e81e25"/><path d="M350.4,327.41c0,40.65,20.7,73.59,46.22,73.59s46.22-32.94,46.22-73.59-20.69-73.58-46.22-73.58S350.4,286.77,350.4,327.41Z" style="fill:#681013"/><path d="M354.5,314.08c0,29.68,18.86,53.73,42.12,53.73s42.13-24.05,42.13-53.73-18.86-53.73-42.13-53.73S354.5,284.41,354.5,314.08Z" style="fill:#fff"/><path d="M318.6,327.41c0,40.65-20.7,73.59-46.22,73.59s-46.22-32.94-46.22-73.59,20.69-73.58,46.22-73.58S318.6,286.77,318.6,327.41Z" style="fill:#681013"/><path d="M314.5,314.08c0,29.68-18.86,53.73-42.12,53.73s-42.13-24.05-42.13-53.73,18.86-53.73,42.13-53.73S314.5,284.41,314.5,314.08Z" style="fill:#fff"/><path d="M254.24,314.82c0,7.9-4.57,14.31-10.21,14.31s-10.22-6.41-10.22-14.31,4.58-14.31,10.22-14.31S254.24,306.92,254.24,314.82Z"/><path d="M434.26,314.82c0,7.9-4.58,14.31-10.22,14.31s-10.21-6.41-10.21-14.31,4.57-14.31,10.21-14.31S434.26,306.92,434.26,314.82Z"/><path d="M275.17,241.67c-.32.56.14,1.48,1,2.59a27.67,27.67,0,0,0,3.92,3.77A19.3,19.3,0,0,0,285,251c1.44.54,2.52.55,2.87,0s0-1.5-.88-2.66a22.08,22.08,0,0,0-3.91-4,16.55,16.55,0,0,0-5-2.87C276.56,241,275.48,241.11,275.17,241.67Z" style="fill:#e81e25"/><path d="M291.17,233.67c-.91.94-.19,3,.93,4.87a10.91,10.91,0,0,0,1.81,2.3,2.39,2.39,0,0,0,1.92.83c.63-.12,1.11-.79,1.23-1.84a6.24,6.24,0,0,0-1-3.72,6.38,6.38,0,0,0-2.75-2.54A1.92,1.92,0,0,0,291.17,233.67Z" style="fill:#e81e25"/><path d="M299.83,252.33a2.23,2.23,0,0,0-.13,1.93,4.87,4.87,0,0,0,1.35,2c1.34,1.23,3.21,1.67,4.12.75s.57-2.77-1-4.2a4.45,4.45,0,0,0-2.53-1.2A1.91,1.91,0,0,0,299.83,252.33Z" style="fill:#e81e25"/><path d="M309.17,233.67c-1,.79-.45,3.23.94,5.66s3.18,4.11,4.39,3.67,1.24-3.26-.35-6S310.17,232.87,309.17,233.67Z" style="fill:#e81e25"/><path d="M317.17,253c-.54,1.17.71,2.95,2.78,4.41s4.44,2,5.22.92-.29-3.17-2.57-4.76a7.42,7.42,0,0,0-3.37-1.34C318.21,252.14,317.45,252.42,317.17,253Z" style="fill:#e81e25"/><path d="M328.5,232.33c-.94.55-.48,3.56,1.33,6.75s4.23,5.31,5.34,4.59.51-3.66-1.27-6.87A14.43,14.43,0,0,0,331,233a4.5,4.5,0,0,0-1.41-.87,2.08,2.08,0,0,0-.63-.13,1,1,0,0,1-.17,0s-.18,0-.33,0-.13.18-.1.18a.1.1,0,0,0,0,.05A.18.18,0,0,0,328.5,232.33Z" style="fill:#e81e25"/><path d="M351.17,245c1.26.33,3.06-2.45,4.62-5.95s2.43-6.63,1.38-7.38c-.53-.36-1.5,0-2.56,1a13.76,13.76,0,0,0-3.08,4.5C349.79,241.07,349.93,244.68,351.17,245Z" style="fill:#e81e25"/><path d="M347.17,259.67c1.3,0,2.27-1.77,2.46-3.5a5.62,5.62,0,0,0-.14-2.21,2.93,2.93,0,0,0-1-1.63,1.66,1.66,0,0,0-2,.32A4.6,4.6,0,0,0,345,255.6C344.75,258,345.91,259.65,347.17,259.67Z" style="fill:#e81e25"/><path d="M369.83,247.67c.65.08,1.32-.65,2.08-1.69s1.68-2.46,2.74-4c2.09-3.14,4-5.91,3.18-6.94-.4-.49-1.46-.4-2.81.32a12.48,12.48,0,0,0-4.25,4,11.25,11.25,0,0,0-2,5.64C368.71,246.6,369.21,247.59,369.83,247.67Z" style="fill:#e81e25"/><path d="M369.83,257.67a2.88,2.88,0,1,0,.35-3.65A2.61,2.61,0,0,0,369.83,257.67Z" style="fill:#e81e25"/><path d="M386.5,250.33c.79,1,3.94-.23,6.75-2.69a19.06,19.06,0,0,0,3.25-3.49c.71-1.05,1-1.94.67-2.48s-1.34-.6-2.63-.17a13.43,13.43,0,0,0-4.32,2.6C387.31,246.64,385.73,249.32,386.5,250.33Z" style="fill:#e81e25"/><path d="M354.82,320.56c-.08-.77-.13-1.54-.18-2.32C354.69,319,354.74,319.79,354.82,320.56Z" style="fill:#182a42"/><path d="M355.24,324.11q-.18-1.29-.33-2.61C355,322.38,355.12,323.24,355.24,324.11Z" style="fill:#182a42"/><path d="M354.58,317.3c-.05-1.06-.08-2.14-.08-3.22C354.5,315.16,354.53,316.24,354.58,317.3Z" style="fill:#182a42"/><path d="M438.58,318.79c0-.69.09-1.38.12-2.08C438.67,317.41,438.62,318.1,438.58,318.79Z" style="fill:#182a42"/><path d="M355.89,327.79c-.22-1.05-.41-2.12-.58-3.19C355.48,325.67,355.67,326.74,355.89,327.79Z" style="fill:#182a42"/><path d="M356.6,330.84c-.25-1-.48-1.94-.68-2.93C356.12,328.9,356.35,329.88,356.6,330.84Z" style="fill:#182a42"/><path d="M438,324.2a110.36,110.36,0,0,0-19.82-1.78c-22.75,0-43.35,6.8-58.34,17.81,7.2,16.45,21,27.58,36.79,27.58,21.9,0,39.89-21.32,41.93-48.57C438.42,320.92,438.23,322.57,438,324.2Z" style="fill:#681013"/><path d="M359.82,340.22a61.86,61.86,0,0,1-2.22-5.9A61.86,61.86,0,0,0,359.82,340.22Z" style="fill:#182a42"/><path d="M357.51,334c-.28-.89-.54-1.78-.78-2.68C357,332.24,357.23,333.13,357.51,334Z" style="fill:#182a42"/><path d="M403.17,366.09c0-24.83-27.35-45.25-62.43-47.75l-7.23-20.25v20h0v-20l-7.23,20.25c-35.08,2.5-62.44,22.92-62.44,47.75,0,16.68,12.36,31.38,31.12,40h0c36.77,22,38.55,50,38.55,50v-42h0v42s1.78-28,38.55-50h0C390.81,397.46,403.17,382.77,403.17,366.09Z" style="fill:#6b6b6b"/><path d="M333.5,414.09v-116l-7.23,20.25c-35.08,2.5-62.44,22.92-62.44,47.75,0,16.68,12.36,31.38,31.12,40h0c36.77,22,38.55,50,38.55,50Z" style="fill:#8c8b8b"/><path d="M306.92,527.79s25.55,10.22,50.5,0c0,0-5.6,11.52-11.36,5.13,0,0-2.25,12.52-8.63,3.38,0,0-5.51,15.4-10.27.13,0,0-6.88,9.07-9-5C318.15,531.42,313.15,539.68,306.92,527.79Z" style="fill:#681013"/><path d="M300.85,545.94s31.69,12.67,62.64,0c0,0-6.94,14.29-14.08,6.37,0,0-2.8,15.53-10.72,4.19,0,0-6.83,19.1-12.73.16,0,0-8.54,11.25-11.18-6.22C314.78,550.44,308.57,560.69,300.85,545.94Z" style="fill:#681013"/><path d="M290.93,562.91s41.73,16.69,82.48,0c0,0-9.14,18.82-18.54,8.39,0,0-3.68,20.45-14.11,5.52,0,0-9,25.15-16.77.21,0,0-11.25,14.82-14.72-8.18C309.27,568.85,301.09,582.34,290.93,562.91Z" style="fill:#681013"/></svg>