<svg id="Capa_1" data-name="Capa 1" xmlns="http://www.w3.org/2000/svg" viewBox="0 0 667 622"><path d="M369.67,530.59c2.66-.33,2.33-2.33,4.33-4,3.33-3.67,7.67-6.33,11.67-9.67,3-3,4.33-4,5.33-8,1-4.33-.33-6.66,4.67-8.33,9-3.67,9.66,5.67,16.66,7,7,1,14.67-.67,21-3.67.34,8.34-2.58,9.7-11.58,11-6,1-17.08,5-17.08-3.37-5,1-8,5.33-12.34,7.67-6.66,4-17.33,9-21,15.66" style="fill:#f8b19c"/><path d="M430.2,507.54c6.34,2.24,12.32,5.22,18.66,7.08,3,1.12,15.29,3.36,10.44,6.72-7.09,5.22-33.57-7.46-30.59-14.18" style="fill:#406faf"/><path d="M426.41,510.86c6.75,5.34,10.82,13.95,18,20-4.58,5.9-16.88-3.9-18.19-7.61-1.78-4.38.25-9.51-1-14" style="fill:#406faf"/><path d="M409.59,511.74c2.33,5.67-7,13-7.67,19-11.66.67,5.67-17.67,7.67-19.67" style="fill:#406faf"/><path d="M420.59,513.71c1.76,3.85,3,7.85,4.94,11.54.79,1.84,5.16,8.4,1.52,7.67-5.47-.93-11.29-18.47-6.94-20" style="fill:#406faf"/><path d="M417.42,513.44c.54,5.39-1.58,11-1.15,16.89-4.68.5-5.61-9.35-4.5-11.56,1.2-2.72,4.41-4,5.91-6.6" style="fill:#406faf"/><path d="M295.67,530.59c-2.66-.33-2.33-2.33-4.33-4-3.33-3.67-7.67-6.33-11.67-9.67-3-3-4.33-4-5.33-8-1-4.33.33-6.66-4.67-8.33-9-3.67-9.66,5.67-16.66,7-7,1-14.67-.67-21-3.67-.34,8.34,2.58,9.7,11.58,11,6,1,17.08,5,17.08-3.37,5,1,8,5.33,12.34,7.67,6.66,4,17.33,9,21,15.66" style="fill:#f8b19c"/><path d="M235.14,507.54c-6.35,2.24-12.32,5.22-18.66,7.08-3,1.12-15.29,3.36-10.44,6.72,7.08,5.22,33.57-7.46,30.59-14.18" style="fill:#406faf"/><path d="M238.93,510.86c-6.75,5.34-10.82,13.95-18,20,4.58,5.9,16.88-3.9,18.19-7.61,1.78-4.38-.25-9.51,1-14" style="fill:#406faf"/><path d="M255.75,511.74c-2.33,5.67,7,13,7.67,19,11.66.67-5.67-17.67-7.67-19.67" style="fill:#406faf"/><path d="M244.75,513.71c-1.76,3.85-3,7.85-4.94,11.54-.79,1.84-5.16,8.4-1.52,7.67,5.47-.93,11.29-18.47,6.94-20" style="fill:#406faf"/><path d="M247.92,513.44c-.54,5.39,1.58,11,1.15,16.89,4.68.5,5.61-9.35,4.5-11.56-1.2-2.72-4.41-4-5.91-6.6" style="fill:#406faf"/></svg>