<svg id="Capa_1" data-name="Capa 1" xmlns="http://www.w3.org/2000/svg" viewBox="0 0 667 622"><path d="M375.87,470.74c17.5,3,37,19,49.5,30.5,9.5,8.5,32,27.5,29.5,41.5-2.5,1-5,1.5-7.5.5.5,7,5,14,4,21.5-2,12-7.5,5-10.5-3,1.5,6,1,29-10.5,27-9-1.5-10-24-11-30.5-7-37.5-27.5-62.5-52-92.5" style="fill:#406faf"/><g style="opacity:0.26"><path d="M417.37,527.41c-.33,5,3.67,7,6.34,2.33,2-3.66.33-9.33-1-13,2.33,2,8,6.34,10.33,2.34,1.67-3-3-8-4.67-9.67,2.38,1.24,4.13.71,5.25-.74C444,518.3,456.79,532,454.87,542.74c-2.5,1-5,1.5-7.5.5.5,7,5,14,4,21.5-2,12-7.5,5-10.5-3,1.5,6,1,29-10.5,27-9-1.5-10-24-11-30.5A134.7,134.7,0,0,0,412.46,534,7.31,7.31,0,0,0,417.37,527.41Z" style="fill:#fff"/></g><path d="M290.88,470.74c-17.5,3-37,19-49.5,30.5-9.5,8.5-32,27.5-29.5,41.5,2.5,1,5,1.5,7.5.5-.5,7-5,14-4,21.5,2,12,7.5,5,10.5-3-1.5,6-1,29,10.5,27,9-1.5,10-24,11-30.5,7-37.5,27.5-62.5,52-92.5" style="fill:#406faf"/><g style="opacity:0.26"><path d="M249.38,527.41c.33,5-3.67,7-6.33,2.33-2-3.66-.34-9.33,1-13-2.34,2-8,6.34-10.34,2.34-1.66-3,3-8,4.67-9.67-2.38,1.24-4.13.71-5.25-.74C222.78,518.3,210,532,211.88,542.74c2.5,1,5,1.5,7.5.5-.5,7-5,14-4,21.5,2,12,7.5,5,10.5-3-1.5,6-1,29,10.5,27,9-1.5,10-24,11-30.5A133.89,133.89,0,0,1,254.3,534,7.31,7.31,0,0,1,249.38,527.41Z" style="fill:#fff"/></g></svg>