<svg id="Capa_1" data-name="Capa 1" xmlns="http://www.w3.org/2000/svg" viewBox="0 0 667 622"><path d="M376.13,469c17.62-2.15,40.89,7.58,56.17,15,11.54,5.41,38.55,17.15,40.17,31.28-2.11,1.68-4.36,2.87-7,2.63,2.49,6.57,8.81,12,10,19.45,1.53,12.07-5.75,6.94-10.92.14,3.16,5.32,9.28,27.49-2.31,28.88-9,1.15-16.47-20.12-19.29-26.06-17.47-33.91-44.29-52-76.37-73.67" style="fill:#406faf"/><g style="opacity:0.26"><path d="M432.15,511.35c1.12,4.89,5.52,5.65,6.74.42.86-4.09-2.36-9-4.7-12.17,2.81,1.25,9.49,3.77,10.57-.73.74-3.35-5.17-6.8-7.24-7.92,2.63.5,4.15-.51,4.81-2.21,12.69,6.25,28.9,15.68,30.14,26.53-2.11,1.68-4.36,2.87-7,2.63,2.49,6.57,8.81,12,10,19.45,1.53,12.07-5.75,6.94-10.92.14,3.16,5.32,9.28,27.49-2.31,28.88-9,1.15-16.47-20.12-19.29-26.06a133.68,133.68,0,0,0-13.59-21.23A7.31,7.31,0,0,0,432.15,511.35Z" style="fill:#fff"/></g><path d="M290.14,467.83c-17.24-4.25-41.51,2.62-57.57,8.17-12.1,4-40.32,12.42-43.63,26.25,1.89,1.91,4,3.37,6.68,3.45-3.26,6.22-10.18,10.84-12.26,18.11-3,11.8,4.87,7.58,10.82,1.45-3.77,4.9-12.51,26.18-1.17,29,8.85,2.22,18.76-18,22.28-23.56,21.4-31.58,50.19-46.3,84.64-64" style="fill:#406faf"/><g style="opacity:0.26"><path d="M229.54,502.71c-1.69,4.72-6.16,5-6.74-.38-.38-4.16,3.41-8.7,6.09-11.53-2.93.91-9.86,2.62-10.4-2-.34-3.41,5.94-6.14,8.13-7-2.68.18-4.07-1-4.52-2.77-13.34,4.71-30.55,12.16-33.07,22.78,1.9,1.91,4,3.37,6.68,3.45-3.25,6.22-10.16,10.85-12.24,18.12-2.94,11.81,4.89,7.58,10.83,1.44-3.77,4.9-12.47,26.19-1.13,28.94,8.85,2.21,18.74-18,22.24-23.59a134.35,134.35,0,0,1,16-19.47A7.29,7.29,0,0,1,229.54,502.71Z" style="fill:#fff"/></g></svg>