<svg id="Capa_1" data-name="Capa 1" xmlns="http://www.w3.org/2000/svg" viewBox="0 0 667 622"><path d="M461.82,519.58C461.82,576.15,405,622,334.8,622s-127-45.85-127-102.42,56.86-102.41,127-102.41S461.82,463,461.82,519.58Z" style="fill:#406faf"/><path d="M495.88,451.13c-2.35-17.38-24.55-25.38-43.81-32.06,7.45,1.43,16.49.42,24,.62-2.16-22.33-38.14-23.26-55.89-29.9,10.49.27,22.58-1.89,28.81-7.92-13.21-7.76-38.79-5.95-55.28-6.38,21,.55,26.24-19.11-.84-17.34-15,.85-27.46,11.67-35.28,20.12l-21.46,85.17-18.23-85.79c-7.5-8.66-19.5-19.79-34.5-21-27-2.47-22.5,17.32-1.5,17.32-16.5,0-42-2.48-55.5,4.94,6,6.19,18,8.66,28.5,8.66-18,6.18-54,6.18-57,28.44,7.5,0,16.5,1.24,24,0-19.5,6.19-42,13.61-45,30.92,10.5,2.47,21,2.47,31.5,1.24-25.5,29.68,10.5,23.49,31.5,13.6-1.5,21,15,40.81,37.5,17.31,0,17.32,18,32.16,31.5,11.13,3.08,6.11,10.74,11.17,18.16,13.89,1.41,1.92,4.74,2.53,8.86,2.09,3.3.27,6-.22,7.43-1.67,7.61-2.5,15.61-7.4,19-13.5,12.7,21.36,31.25,7,31.91-10.31,21.59,24.06,38.84,4.71,38.14-16.34,20.61,10.43,56.35,17.54,32-12.79C474.79,453.06,485.29,453.33,495.88,451.13Z" style="fill:#406faf"/><g style="opacity:0.5700000000000001"><path d="M495.88,451.13c-2.35-17.38-24.55-25.38-43.81-32.06,7.45,1.43,16.49.42,24,.62-2.16-22.33-38.14-23.26-55.89-29.9,10.49.27,22.58-1.89,28.81-7.92-13.21-7.76-38.79-5.95-55.28-6.38,21,.55,26.24-19.11-.84-17.34-15,.85-27.46,11.67-35.28,20.12l-21.46,85.17-18.23-85.79c-7.5-8.66-19.5-19.79-34.5-21-27-2.47-22.5,17.32-1.5,17.32-16.5,0-42-2.48-55.5,4.94,6,6.19,18,8.66,28.5,8.66-18,6.18-54,6.18-57,28.44,7.5,0,16.5,1.24,24,0-19.5,6.19-42,13.61-45,30.92,10.5,2.47,21,2.47,31.5,1.24-25.5,29.68,10.5,23.49,31.5,13.6-1.5,21,15,40.81,37.5,17.31,0,17.32,18,32.16,31.5,11.13,3.08,6.11,10.74,11.17,18.16,13.89,1.41,1.92,4.74,2.53,8.86,2.09,3.3.27,6-.22,7.43-1.67,7.61-2.5,15.61-7.4,19-13.5,12.7,21.36,31.25,7,31.91-10.31,21.59,24.06,38.84,4.71,38.14-16.34,20.61,10.43,56.35,17.54,32-12.79C474.79,453.06,485.29,453.33,495.88,451.13Z" style="fill:#fff"/></g><path d="M377.36,197.14l-41.25-1.24v0H294.75c23.41,126.68-2.51,257.57-2.51,257.57L334.8,476.5l36.66-21.85S349.83,323.06,377.36,197.14Z" style="fill:#f37f5f"/><path d="M478.82,196.92c0,27.61-40.35,34-63.81,34H259.14c-23.46,0-63.81-6.39-63.81-34V74.26a50,50,0,0,1,50-50H428.82a50,50,0,0,1,50,50Z" style="fill:#f8b19c"/><path d="M276.68,135.59c0,44.26-18.17,80.14-40.58,80.14s-40.58-35.88-40.58-80.14,18.17-80.15,40.58-80.15S276.68,91.33,276.68,135.59Z" style="fill:#e8704f"/><path d="M273.1,126.59c0,37.88-14.33,68.59-32,68.59s-32-30.71-32-68.59S223.43,58,241.1,58,273.1,88.71,273.1,126.59Z" style="fill:#fff"/><ellipse cx="245.1" cy="124.59" rx="27.04" ry="57.96"/><path d="M398.19,137.38c-1.38,44.24,15.65,80.67,38.06,81.38s41.68-34.6,43.06-78.84-15.65-80.67-38.05-81.38S399.58,93.14,398.19,137.38Z" style="fill:#e8704f"/><path d="M402.05,128.5c-1.18,37.86,12.18,69,29.84,69.55S464.84,168.36,466,130.5s-12.17-69-29.84-69.56S403.24,90.64,402.05,128.5Z" style="fill:#fff"/><path d="M276.68,135.59c0,44.26-18.17,80.14-40.58,80.14s-40.58-35.88-40.58-80.14,18.17-80.15,40.58-80.15S276.68,91.33,276.68,135.59Z" style="fill:#e8704f"/><path d="M273.1,126.59c0,37.88-14.33,68.59-32,68.59s-32-30.71-32-68.59S223.43,58,241.1,58,273.1,88.71,273.1,126.59Z" style="fill:#fff"/><path d="M461.16,126.59c0,21.38-12.65,38.71-28.25,38.71S404.66,148,404.66,126.59s12.65-38.71,28.25-38.71S461.16,105.21,461.16,126.59Z"/><path d="M434.45,94.69c0,7.59-5.55,13.75-12.41,13.75s-12.4-6.16-12.4-13.75,5.55-13.76,12.4-13.76S434.45,87.09,434.45,94.69Z" style="fill:#fff"/><path d="M272.14,126.59c0,21.38-12.64,38.71-28.25,38.71S215.64,148,215.64,126.59s12.65-38.71,28.25-38.71S272.14,105.21,272.14,126.59Z"/><path d="M367.55,136c-22.61-23.09-28.09-43.39-29.41-51.39V80.94s0,.7-.24,2c-.16-1.28-.18-2-.18-2l-.11,3.62c-1.58,8-7.68,28.08-31,50.45h30.47Z" style="fill:#ce4f1d"/><path d="M406,175.69c0-28.62-30.83-51.82-68.87-51.82s-68.88,23.2-68.88,51.82c0,26.1,25.63,47.68,59,51.29a83.27,83.27,0,0,1,9.08,18.47c.06.82.09,1.27.09,1.27l.17-.5.17.54s0-.33,0-.94a82.84,82.84,0,0,1,10-18.81C380.15,223.51,406,201.87,406,175.69Z" style="fill:#f37725"/><path d="M486.57,46.38c.12-.1.16-.3-.06-.59a1.66,1.66,0,0,0-.47-.32,2.85,2.85,0,0,0-.64-.16,8,8,0,0,0-3.33.5,36.47,36.47,0,0,0-8.75,4.71,55.19,55.19,0,0,0-7.52,6.19c-1.76,1.79-2.67,3.07-2.34,3.62s2,.18,4.26-.94a66.93,66.93,0,0,0,8.25-5c3.08-2.13,5.74-4.17,7.61-5.61l2.12-1.64.28-.24c.06-.06.11-.12.19-.19S486.46,46.48,486.57,46.38Z" style="fill:#fff"/><path d="M471.12,28.55c-.3-.55-2.16-.21-4.8,1.09a40.7,40.7,0,0,0-9.25,6.57,50.75,50.75,0,0,0-7.41,8.44c-1.62,2.39-2.34,4.09-1.86,4.52s2.07-.5,4.28-2.28,5.05-4.39,8.15-7.25l8-7.28C470.22,30.46,471.45,29.13,471.12,28.55Z" style="fill:#fff"/><path d="M443.87,25.7c-1-.82-5.07,2.33-8.67,7.49S430.15,43.4,431.29,44s4.31-3.22,7.74-8.12S444.86,26.54,443.87,25.7Z" style="fill:#fff"/><path d="M422,19.68c-.59-.23-1.69,1-2.77,3.21a32.6,32.6,0,0,0-2.62,9.23c-1,7.42,0,13.42,1.25,13.44s2.39-5.79,3.37-12.78c.5-3.5.94-6.65,1.18-9S422.66,19.91,422,19.68Z" style="fill:#fff"/><path d="M182.43,45.67a3.21,3.21,0,0,1,.4.3,1.62,1.62,0,0,1,.18.2c.09.07.18.16.28.25l2.06,1.7c1.82,1.5,4.42,3.63,7.43,5.85a66.35,66.35,0,0,0,8.09,5.29c2.23,1.19,3.88,1.62,4.23,1.07s-.53-1.84-2.23-3.69a55.45,55.45,0,0,0-7.32-6.42,36.62,36.62,0,0,0-8.6-5,7.84,7.84,0,0,0-3.31-.6,2.32,2.32,0,0,0-.64.14,1.42,1.42,0,0,0-.48.3C182.28,45.36,182.32,45.56,182.43,45.67Z" style="fill:#fff"/><path d="M198.43,28.33c-.34.57.85,1.94,2.82,3.9L209,39.75c3,3,5.76,5.66,7.92,7.51s3.71,2.82,4.21,2.41-.17-2.14-1.71-4.57a51.72,51.72,0,0,0-7.15-8.68,40.47,40.47,0,0,0-9-6.85C200.6,28.19,198.76,27.79,198.43,28.33Z" style="fill:#fff"/><path d="M225.77,26.33c-1,.82,1.24,5.29,4.51,10.31s6.31,8.92,7.49,8.36-.13-5.63-3.58-10.9S226.76,25.54,225.77,26.33Z" style="fill:#fff"/><path d="M247.77,21c-.62.21-.69,1.76-.53,4.1s.5,5.5.89,9c.76,7,1.65,12.87,3,12.88s2.47-6,1.66-13.4a32.77,32.77,0,0,0-2.32-9.3C249.43,22,248.36,20.79,247.77,21Z" style="fill:#fff"/><path d="M297.1,280c0,.66.78,1.21,1.88,1.76s2.54,1.13,4.14,1.79c3.16,1.32,6.17,2.51,7,1.45.38-.51.11-1.47-.78-2.57a11.17,11.17,0,0,0-4.42-3.19,10.21,10.21,0,0,0-5.54-.76C297.91,278.75,297.09,279.37,297.1,280Z" style="fill:#fff"/><path d="M300.1,306c0,1.31,2.08,2.28,4.35,2.45a8.5,8.5,0,0,0,3-.21A2.31,2.31,0,0,0,309.1,307c.21-.6-.11-1.34-.89-2a6.35,6.35,0,0,0-3.37-1.23C302.1,303.6,300.11,304.73,300.1,306Z" style="fill:#fff"/><path d="M331.1,305c-.54.35-.69,1.18-.48,2.21a10.6,10.6,0,0,0,1.46,3.29,13.82,13.82,0,0,0,2,2.59c.67.65,1.36,1.07,2,.91s1.06-.88,1.12-2a7.15,7.15,0,0,0-1.19-4,8.07,8.07,0,0,0-2.72-2.73A2.18,2.18,0,0,0,331.1,305Z" style="fill:#fff"/><path d="M302.1,343a2.5,2.5,0,0,0,2,.46,9,9,0,0,0,2.73-.77c2-.88,3.71-2.45,3.28-3.69s-2.63-1.66-5.18-.57a6,6,0,0,0-2.81,2.39C301.6,341.74,301.64,342.56,302.1,343Z" style="fill:#fff"/><path d="M319.1,364c-1.29,0-2.33,1.79-2.33,4s1,4,2.33,4,2.33-1.79,2.33-4S320.39,364,319.1,364Z" style="fill:#fff"/><path d="M298.1,394c.62,1.14,2.54,1.3,4.47.82A7,7,0,0,0,305,393.7a2.31,2.31,0,0,0,1.08-1.7,1.84,1.84,0,0,0-1.36-1.59,5.44,5.44,0,0,0-3.33-.11C298.88,391,297.48,392.88,298.1,394Z" style="fill:#fff"/><path d="M293.1,429c.3,1.25,2.88,1.7,5.71.84s4.69-2.62,4.29-3.84-3-1.45-5.65-.63S292.8,427.74,293.1,429Z" style="fill:#fff"/><path d="M355.1,264c-.38.5-.11,1.48.84,2.56a10.94,10.94,0,0,0,4.58,2.91,12.55,12.55,0,0,0,5.21.72c1.36-.14,2.24-.56,2.37-1.19.27-1.3-2.69-2.8-6-3.93a39.35,39.35,0,0,0-4.39-1.32C356.45,263.49,355.49,263.48,355.1,264Z" style="fill:#fff"/><path d="M358.1,291c-1,.73-.1,4,2.87,6.8a10.6,10.6,0,0,0,4.53,2.63c1.35.34,2.32.14,2.6-.43s-.12-1.42-.87-2.37a31.21,31.21,0,0,0-3.07-3.23C361.69,292.06,359.16,290.22,358.1,291Z" style="fill:#fff"/><path d="M354.1,343c-.78,1,1.43,4.13,5.55,6.32a13.69,13.69,0,0,0,5.72,1.68c1.59,0,2.61-.38,2.73-1s-.61-1.36-1.75-2.15a43.48,43.48,0,0,0-4.53-2.66C358.22,343.29,354.9,342,354.1,343Z" style="fill:#fff"/><path d="M342.1,361c-.6.19-1,1-.86,2.14a7.06,7.06,0,0,0,5.72,5.72c1.16.13,2-.26,2.14-.86a2.57,2.57,0,0,0-.6-2.06,19.71,19.71,0,0,0-4.34-4.34A2.57,2.57,0,0,0,342.1,361Z" style="fill:#fff"/><path d="M357.1,396c-.58,1.19,1.59,3.26,4.08,5.2a26.86,26.86,0,0,0,3.48,2.4c1,.56,1.92.79,2.44.4s.55-1.33.06-2.55a9.93,9.93,0,0,0-3.11-3.93,10.32,10.32,0,0,0-4.48-2.09C358.3,395.22,357.39,395.43,357.1,396Z" style="fill:#fff"/><path d="M334.1,415c-.61.2-1,1-.93,2.16a8.1,8.1,0,0,0,1.49,4c1.92,2.74,4.57,3.75,5.44,2.83s-.07-3.27-1.6-5.49a14.75,14.75,0,0,0-2.31-2.69C335.44,415.18,334.72,414.8,334.1,415Z" style="fill:#fff"/><path d="M356.1,428c-.62,0-1.28.63-1.43,1.94a4.87,4.87,0,0,0,.37,2.3,6.18,6.18,0,0,0,1.7,2.28,6.42,6.42,0,0,0,4.31,1.59c1.16-.05,1.9-.49,2.05-1.11.33-1.28-1.82-2.73-3.34-4a23.38,23.38,0,0,1-1.88-1.78C357.32,428.59,356.76,428,356.1,428Z" style="fill:#fff"/><path d="M328.1,448c-.65,0-1.22.59-1.75,1.37a21.91,21.91,0,0,0-1.59,3c-1.09,2.33-1.78,4.95-.66,5.67.54.35,1.36.18,2.27-.44a8.15,8.15,0,0,0,2.64-3.3,7.2,7.2,0,0,0,.61-4.44C329.35,448.64,328.73,448,328.1,448Z" style="fill:#fff"/><path d="M321.1,13c-1.13.67.15,4.62,2.38,8.86a43.34,43.34,0,0,0,3.19,5.28c1,1.3,1.81,2.06,2.43,1.86s.85-1.35.64-3.07a19.44,19.44,0,0,0-2.12-6.23C325.23,15.18,322.18,12.36,321.1,13Z" style="fill:#fff"/><path d="M334.1,30c1.3-.13,1.59-6.94.95-15.15S333.39,0,332.1,0s-2.37,6.83-1.7,15.2S332.84,30.12,334.1,30Z" style="fill:#fff"/><path d="M340.1,29c.65,0,1.22-1.6,1.66-4.16s.76-6.06,1.15-9.84.89-7.1,1.27-9.59.53-4.14-.08-4.41S342.29,2,341,4.39a29.86,29.86,0,0,0-2.77,10.12,42,42,0,0,0,.19,10.3C338.87,27.41,339.46,29,340.1,29Z" style="fill:#fff"/><path d="M346.1,32c.58.26,1.64-.7,2.79-2.52a40.65,40.65,0,0,0,3.45-7.36c1.1-2.91,2-5.52,2.52-7.46s.78-3.29.24-3.66-1.77.4-3.16,2.12a26.86,26.86,0,0,0-4,7.35,43.81,43.81,0,0,0-2.17,7.83C345.48,30.35,345.5,31.74,346.1,32Z" style="fill:#fff"/><path d="M208.1,211c-1.18-.56-3.31,1.52-5.19,4.4s-2.85,5.82-1.81,6.6,3.67-.92,5.72-4.06S209.25,211.54,208.1,211Z" style="fill:#fff"/><path d="M215.1,220c-.44-.45-1.41-.34-2.56.37a10.85,10.85,0,0,0-3.37,3.65c-1.93,3.31-2.19,6.41-1.07,7s3.35-1.65,5.07-4.59a21.64,21.64,0,0,0,1.91-3.93C215.46,221.37,215.56,220.47,215.1,220Z" style="fill:#fff"/><path d="M226.1,221c-1.29,0-2.33,2.69-2.33,6s1,6,2.33,6,2.33-2.69,2.33-6S227.39,221,226.1,221Z" style="fill:#fff"/><path d="M453.1,223a2.42,2.42,0,0,0,.47-.06h.12a0,0,0,0,1,.05,0h0l-.22-.08-.12-.06,0,0a.21.21,0,0,1,0,.12.53.53,0,0,1,0,.3,1.57,1.57,0,0,1-.16.46l-.07.2,0,0a.4.4,0,0,0,0,.11,1.4,1.4,0,0,0,.06.24A8.61,8.61,0,0,0,455,227c1.84,2,4.23,3,5.13,2s.18-3.17-1.73-5.23a7.93,7.93,0,0,0-3.24-2.17,4.73,4.73,0,0,0-1-.21h-.33a2,2,0,0,0-.43.05,1.3,1.3,0,0,0-.51.22,1,1,0,0,0-.35.39,1.21,1.21,0,0,0-.09.35.65.65,0,0,0,0,.21.54.54,0,0,0,.19.26A.78.78,0,0,0,453.1,223Z" style="fill:#fff"/><path d="M462.1,216c-.29.58.14,1.43,1,2.4a18.19,18.19,0,0,0,3.78,3.08,14.74,14.74,0,0,0,4.64,2c1.34.27,2.32.09,2.6-.48s-.14-1.43-1-2.4a17.84,17.84,0,0,0-3.77-3.08,14.83,14.83,0,0,0-4.64-2C463.36,215.25,462.38,215.43,462.1,216Z" style="fill:#fff"/><path d="M470.1,210c-.32,1.27,2.42,3,5.9,4s6.6,1.21,7.1,0-2-3.36-5.75-4.47S470.41,208.77,470.1,210Z" style="fill:#fff"/><path d="M337.08,244.77V123.87h0c-38,0-68.88,23.2-68.88,51.82,0,26.1,25.63,47.68,59,51.29a83.27,83.27,0,0,1,9.08,18.47c.06.82.09,1.27.09,1.27l.17-.5.17.54s0-.33,0-.94C336.78,245.53,336.92,245.17,337.08,244.77Z" style="fill:#e26026"/><path d="M242.61,94.69a13.76,13.76,0,1,1-13.75-13.76A13.76,13.76,0,0,1,242.61,94.69Z" style="fill:#fff"/><path d="M209.1,132.1s28.34-10.94,63.87.73c0,0,.86,62-30.8,62.35S209.1,132.1,209.1,132.1Z" style="fill:#e8704f"/><path d="M466,136.1s-28.34-10.94-63.87.73c0,0-.86,62,30.8,62.35S466,136.1,466,136.1Z" style="fill:#e8704f"/></svg>