<svg id="Capa_1" data-name="Capa 1" xmlns="http://www.w3.org/2000/svg" viewBox="0 0 667 622">
<path d="M437.39,498.26c37,1.16,76.87-26.61,98.67-51.94,5.53,15.18-4.93,29.86-18.18,37.45,8,.25,17,.53,25-.22-2.47,14.93-19.58,18.4-31.64,20,3.9,3.13,23.92,2.75,24.7,9.78,2.6,13.09-24.36,11.24-30.26,8.06,5.75,8.18,7.43,18.24-2.66,20.92-9.09,2.72-21.67-10.68-27.54-14.86C461.85,516,449.29,501.63,431,510.07" 
style="fill:#406faf"/><path d="M229.1,495c-37,0-76-29-97-55-6,15,4,30,17,38-8,0-17,0-25-1,2,15,19,19,31,21-4,3-24,2-25,9-3,13,24,12,30,9-6,8-8,18,2,21,9,3,22-10,28-14,14-11,27-25,45-16" 
style="fill:#406faf"/></svg>