<svg id="Capa_1" data-name="Capa 1" xmlns="http://www.w3.org/2000/svg" viewBox="0 0 667 622"><path d="M518.9,393.82c9.21-7.52,20.92-15.05,29.28-23.42,13.38-13.38,21.75-30.95,33.46-45.17,18.4,24.26,55.21,23.42,84.48,18.41,4.19,15.05-16.73,15.05-25.93,13.38,7.53,4.18,23.42,19.24,15.06,28.44-6.69,6.69-30.11-.84-37.64-3.35,7.53,5.86,17.56,25.93,4.18,32.63-10.87,4.18-25.93-10-30.11-17.57,11.71,22.59-14.22,20.08-17.57.84,8.37,17.56-15.89,14.22-21.75,2.51,10,10-7.53,16.73-11.71,1.67-4.18,3.35-13.38,2.51-17.56,2.51" style="fill:#406faf"/><path d="M526.43,395.5l53.12-47.26,49.35,7.52s22.59,11.3-16.31,8.79c0,0,14.22,15.05-16.31,12.54,0,0,10.87,14.11-9.62,7.27,0,0,8.45,14.48-20.24-4.34,0,0,5.47,14.52-5.27,4.34,0,0-1,8-12.13,4.45C549,388.81,542.74,383.79,526.43,395.5Z" style="opacity:0.33"/><g style="opacity:0.04"><path d="M518.9,393.82c9.21-7.52,20.92-15.05,29.28-23.42,13.38-13.38,21.75-30.95,33.46-45.17,18.4,24.26,55.21,23.42,84.48,18.41,4.19,15.05-16.73,15.05-25.93,13.38,7.53,4.18,23.42,19.24,15.06,28.44-6.69,6.69-30.11-.84-37.64-3.35,7.53,5.86,17.56,25.93,4.18,32.63-10.87,4.18-25.93-10-30.11-17.57,11.71,22.59-14.22,20.08-17.57.84,8.37,17.56-15.89,14.22-21.75,2.51,10,10-7.53,16.73-11.71,1.67-4.18,3.35-13.38,2.51-17.56,2.51" style="fill:#fff"/></g><path d="M148.1,393.82c-9.21-7.52-20.92-15.05-29.28-23.42C105.44,357,97.07,339.45,85.36,325.23,67,349.49,30.15,348.65.88,343.64-3.31,358.69,17.61,358.69,26.81,357c-7.53,4.18-23.43,19.24-15.06,28.44,6.69,6.69,30.11-.84,37.64-3.35C41.86,388,31.83,408,45.21,414.74c10.87,4.18,25.93-10,30.11-17.57-11.71,22.59,14.22,20.08,17.57.84-8.37,17.56,15.89,14.22,21.75,2.51-10,10,7.53,16.73,11.71,1.67,4.18,3.35,13.38,2.51,17.56,2.51" style="fill:#406faf"/><g style="opacity:0.04"><path d="M148.1,393.82c-9.21-7.52-20.92-15.05-29.28-23.42C105.44,357,97.07,339.45,85.36,325.23,67,349.49,30.15,348.65.88,343.64-3.31,358.69,17.61,358.69,26.81,357c-7.53,4.18-23.43,19.24-15.06,28.44,6.69,6.69,30.11-.84,37.64-3.35C41.86,388,31.83,408,45.21,414.74c10.87,4.18,25.93-10,30.11-17.57-11.71,22.59,14.22,20.08,17.57.84-8.37,17.56,15.89,14.22,21.75,2.51-10,10,7.53,16.73,11.71,1.67,4.18,3.35,13.38,2.51,17.56,2.51" style="fill:#fff"/></g><path d="M140.57,395.5,87.45,348.24,38.1,355.76s-22.59,11.3,16.31,8.79c0,0-14.22,15.05,16.31,12.54,0,0-10.87,14.11,9.62,7.27,0,0-8.45,14.48,20.24-4.34,0,0-5.47,14.52,5.27,4.34,0,0,1,8,12.13,4.45C118,388.81,124.26,383.79,140.57,395.5Z" style="opacity:0.33"/></svg>