<svg id="Capa_1" data-name="Capa 1" xmlns="http://www.w3.org/2000/svg" viewBox="0 0 667 622"><path d="M516.53,395.07c7.24-9.43,16.92-19.44,23.15-29.49,10-16.09,14.1-35.1,22.26-51.62,23.45,19.41,59.09,10.19,86.45-1.39,7.51,13.71-12.85,18.48-22.19,19,8.29,2.35,27.2,13.38,21.16,24.25-5,8-29.51,6.06-37.41,5.34,8.67,4,23,21.23,11.52,30.8-9.63,6.56-27.53-3.85-33.33-10.22,16.56,19.31-9.25,22.79-16.91,4.83,12.16,15.19-12.22,17.47-20.6,7.41,12.07,7.48-3.5,18-11,4.3-3.31,4.22-12.46,5.5-16.53,6.46" style="fill:#406faf"/><path d="M524.24,395l40.92-58.15,49.76-3.95s24.57,5.84-13.87,12.28c0,0,17.28,11.41-13,15.94,0,0,13.8,11.25-7.71,9.27,0,0,11.54,12.17-20.7.41,0,0,8.65,12.88-4.14,5.42,0,0,.81,8-10.79,7.1C544.7,383.3,537.45,379.85,524.24,395Z" style="opacity:0.33"/><g style="opacity:0.04"><path d="M516.53,395.07c7.24-9.43,16.92-19.44,23.15-29.49,10-16.09,14.1-35.1,22.26-51.62,23.45,19.41,59.09,10.19,86.45-1.39,7.51,13.71-12.85,18.48-22.19,19,8.29,2.35,27.2,13.38,21.16,24.25-5,8-29.51,6.06-37.41,5.34,8.67,4,23,21.23,11.52,30.8-9.63,6.56-27.53-3.85-33.33-10.22,16.56,19.31-9.25,22.79-16.91,4.83,12.16,15.19-12.22,17.47-20.6,7.41,12.07,7.48-3.5,18-11,4.3-3.31,4.22-12.46,5.5-16.53,6.46" style="fill:#fff"/></g><path d="M151.5,395.85c-6.16-10.17-14.67-21.19-19.75-31.87-8.14-17.09-10.14-36.44-16.42-53.76-25.46,16.7-59.86,3.59-85.77-10.94-9,12.79,10.73,19.79,20,21.29C41,322,21,330.86,25.81,342.34c4.07,8.54,28.66,9.29,36.59,9.44-9,3-25.23,18.56-14.86,29.34,8.85,7.58,27.8-.78,34.26-6.47-18.6,17.36,6.68,23.67,16.27,6.67C84.31,395.07,108.29,400,117.73,391c-12.82,6.1,1.49,18.28,10.47,5.49C131,401,140,403.3,143.91,404.7" style="fill:#406faf"/><g style="opacity:0.04"><path d="M151.5,395.85c-6.16-10.17-14.67-21.19-19.75-31.87-8.14-17.09-10.14-36.44-16.42-53.76-25.46,16.7-59.86,3.59-85.77-10.94-9,12.79,10.73,19.79,20,21.29C41,322,21,330.86,25.81,342.34c4.07,8.54,28.66,9.29,36.59,9.44-9,3-25.23,18.56-14.86,29.34,8.85,7.58,27.8-.78,34.26-6.47-18.6,17.36,6.68,23.67,16.27,6.67C84.31,395.07,108.29,400,117.73,391c-12.82,6.1,1.49,18.28,10.47,5.49C131,401,140,403.3,143.91,404.7" style="fill:#fff"/></g><path d="M143.84,394.91,109.61,332.6l-49-9.43S35.52,326.25,73,336.91c0,0-18.44,9.43,11.17,17.28,0,0-15,9.65,6.64,10.06,0,0-12.81,10.83,20.52,2.69,0,0-10,11.86,3.52,5.85,0,0-1.7,7.87,9.94,8.25C124.8,381,132.39,378.41,143.84,394.91Z" style="opacity:0.33"/></svg>