<svg id="Capa_1" data-name="Capa 1" xmlns="http://www.w3.org/2000/svg" viewBox="0 0 667 622"><path d="M369.67,530.59c2.56-.81,1.86-2.72,3.53-4.72,2.61-4.22,6.38-7.63,9.71-11.64,2.4-3.49,3.53-4.72,3.78-8.83.19-4.45-1.54-6.5,3.07-9,8.18-5.24,10.54,3.81,17.66,3.85,7.07-.3,14.3-3.33,20-7.44,1.85,8.13-.77,10-9.38,13-5.71,2.08-15.89,8-17.4-.19-4.74,1.89-6.9,6.7-10.73,9.78-5.83,5.15-15.41,12-17.8,19.24Z" style="fill:#f8b19c"/><path d="M425,496.89c6.64,1,13.05,2.89,19.63,3.56,3.14.56,15.65.52,11.5,4.7-6,6.43-34.38-1.21-32.67-8.36Z" style="fill:#406faf"/><path d="M421.86,500.85c7.61,4,13.18,11.73,21.38,16.33-3.43,6.64-17.31-.76-19.27-4.16-2.55-4-1.49-9.4-3.57-13.63Z" style="fill:#406faf"/><path d="M405.48,504.78c3.33,5.14-4.51,14.06-4.07,20.08-11.35,2.78,2.35-18.41,3.95-20.74Z" style="fill:#406faf"/><path d="M416.66,504.7c2.43,3.47,4.39,7.18,7,10.46,1.12,1.66,6.6,7.31,2.89,7.25C421,522.5,412,506.32,416,504Z" style="fill:#406faf"/><path d="M413.5,505c1.5,5.2.44,11.1,1.94,16.81-4.51,1.35-7.22-8.16-6.54-10.54.7-2.89,3.61-4.78,4.62-7.57Z" style="fill:#406faf"/><path d="M295.67,530.59c-2.51-1-1.72-2.81-3.28-4.9-2.39-4.34-6-7.94-9.09-12.12-2.22-3.61-3.29-4.9-3.33-9,0-4.45,1.88-6.41-2.59-9.19-7.9-5.66-10.72,3.26-17.84,2.93-7-.66-14.11-4.07-19.57-8.46-2.27,8,.25,10,8.69,13.43,5.61,2.37,15.46,8.81,17.4.7,4.63,2.14,6.54,7.05,10.21,10.33,5.55,5.44,14.76,12.79,16.77,20.13" style="fill:#f8b19c"/><path d="M242.17,494.07c-6.69.7-13.19,2.21-19.79,2.55-3.17.39-15.66-.3-11.73,4.1,5.68,6.73,34.4.56,33.06-6.66" style="fill:#406faf"/><path d="M245.09,498.19c-7.81,3.62-13.77,11-22.2,15.2,3.09,6.81,17.33.14,19.46-3.15,2.76-3.85,2-9.31,4.27-13.43" style="fill:#406faf"/><path d="M261.24,503c-3.59,5,3.78,14.27,3,20.26,11.19,3.37-1.4-18.5-2.88-20.91" style="fill:#406faf"/><path d="M250.08,502.31c-2.6,3.34-4.76,6.94-7.49,10.08-1.2,1.6-7,7-3.26,7.1,5.53.37,15.28-15.33,11.42-17.88" style="fill:#406faf"/><path d="M253.22,502.79c-1.77,5.11-1,11.06-2.81,16.69,4.44,1.58,7.63-7.78,7.07-10.19-.54-2.93-3.35-5-4.21-7.8" style="fill:#406faf"/></svg>