<svg id="Capa_1" data-name="Capa 1" xmlns="http://www.w3.org/2000/svg" viewBox="0 0 254.49 287.07"><g style="opacity:0.64"><rect x="165.99" y="27.96" width="89.76" height="48.08" rx="19.23" transform="translate(98.53 -133.88) rotate(45)" style="fill:#020202"/><rect x="-1.01" y="26.96" width="89.76" height="48.08" rx="19.23" transform="translate(110.95 56.04) rotate(135)" style="fill:#020202"/><rect x="52.82" y="53.91" width="18" height="27.45" transform="translate(-29.72 63.53) rotate(-45)" style="fill:#020202"/><rect x="172.1" y="59.64" width="27.45" height="18" transform="translate(5.89 151.5) rotate(-45)" style="fill:#020202"/></g><g style="opacity:0.64"><circle cx="126.31" cy="169.07" r="118" style="fill:#020202"/><path d="M125.87,69.08A100,100,0,0,0,33.71,206.87L125.87,170Z" style="fill:#020202"/><path d="M126.31,69.07h-.44V170L33.71,206.87a100,100,0,1,0,92.6-137.8Z" style="fill:#020202"/><path d="M126.31,241.28a72.21,72.21,0,1,1,51.06-21.15,71.73,71.73,0,0,1-51.06,21.15Zm0-136A63.76,63.76,0,1,0,171.38,124,63.33,63.33,0,0,0,126.31,105.32Z" style="fill:#020202"/><path d="M122.08,113.79h8.46v11.3h-8.46Z" style="fill:#020202"/><path d="M154.4,135l8-8,6,6-8,8Z" style="fill:#020202"/><path d="M170.29,164.84h11.29v8.46H170.29Z" style="fill:#020202"/><path d="M154.4,203.16l6-6,8,8-6,6Z" style="fill:#020202"/><path d="M122.08,213.05h8.46v11.3h-8.46Z" style="fill:#020202"/><path d="M84.22,205.16l8-8,6,6-8,8Z" style="fill:#020202"/><path d="M71,164.84H82.32v8.46H71Z" style="fill:#020202"/><path d="M84.22,133l6-6,8,8-6,6Z" style="fill:#020202"/><path d="M156.18,173.3h-34.1V139.2h8.46v25.64h25.64Z" style="fill:#020202"/></g><path d="M127,0a15,15,0,0,0-5.5,29V44.21A117.31,117.31,0,0,0,73.66,56.88l-7.4-7.4,9.62-9.61a19.29,19.29,0,0,0,0-27.2l-6.8-6.8a19.29,19.29,0,0,0-27.2,0L5.61,42.13a19.29,19.29,0,0,0,0,27.2l6.8,6.8a19.29,19.29,0,0,0,27.2,0L53.54,62.21l4.35,4.35a118,118,0,0,0,69.29,213.51h.06V0Z" style="fill:#4f2910"/><path d="M214.88,76.13a19.29,19.29,0,0,0,27.2,0l6.8-6.8a19.29,19.29,0,0,0,0-27.2L212.61,5.87a19.29,19.29,0,0,0-27.2,0l-6.8,6.8a19.29,19.29,0,0,0,0,27.2l7.56,7.56L178,55.57a117.29,117.29,0,0,0-45.55-11.38V29A15,15,0,0,0,127.24,0V280.07A118,118,0,0,0,194.15,64.91l4.75-4.75Z" style="fill:#693919"/><path d="M126.31,62.07h-.44a98,98,0,1,0,.44,0Z" style="fill:#d9fafc"/></svg>