<svg id="Capa_1" data-name="Capa 1" xmlns="http://www.w3.org/2000/svg" viewBox="0 0 254.49 287.07"><path d="M126.31,234.28a72.21,72.21,0,1,1,51.06-21.15,71.73,71.73,0,0,1-51.06,21.15Zm0-136A63.76,63.76,0,1,0,171.38,117,63.33,63.33,0,0,0,126.31,98.32Z" style="fill:#2e6b8e"/><path d="M122.08,106.79h8.46v11.3h-8.46Z" style="fill:#2e6b8e"/><path d="M154.4,128l8-8,6,6-8,8Z" style="fill:#2e6b8e"/><path d="M170.29,157.84h11.29v8.46H170.29Z" style="fill:#2e6b8e"/><path d="M154.4,196.16l6-6,8,8-6,6Z" style="fill:#2e6b8e"/><path d="M122.08,206.05h8.46v11.3h-8.46Z" style="fill:#2e6b8e"/><path d="M84.22,198.16l8-8,6,6-8,8Z" style="fill:#2e6b8e"/><path d="M71,157.84H82.32v8.46H71Z" style="fill:#2e6b8e"/><path d="M84.22,126l6-6,8,8-6,6Z" style="fill:#2e6b8e"/><path d="M156.18,166.3h-34.1V132.2h8.46v25.64h25.64Z" style="fill:#2e6b8e"/></svg>