<svg id="Capa_1" data-name="Capa 1" xmlns="http://www.w3.org/2000/svg" viewBox="240 0 1440 1080"><rect x="1.19" y="-0.65" width="1920.1" height="2160.12" style="fill:#aadae1"/><path d="M1722.07,938.65c-99.72,0-184.93,51-219.18,123a189.8,189.8,0,0,0-130.29,1.59c-10.8-98.56-111.56-175.81-234.29-175.81-72.91,0-138,27.26-181.21,70.05C918.12,895,839,852.18,747.62,852.18c-99.72,0-184.93,51-219.18,123a187.06,187.06,0,0,0-63-10.75c-49.63,0-93.92,18.82-122.87,48.25-27.82-19.94-64.2-32-104-32-67.11,0-124.46,34.32-147.51,82.78a125.68,125.68,0,0,0-42.41-7.24,124.85,124.85,0,0,0-47.44,9.18v590.9H1923.3V1031.81C1882,976,1807.36,938.65,1722.07,938.65Z" style="fill:#fff"/><path d="M1721.07,938.65c-99.72,0-184.93,51-219.18,123a189.8,189.8,0,0,0-130.29,1.59c-10.8-98.56-111.56-175.81-234.29-175.81-72.91,0-138,27.26-181.21,70.05C917.12,895,838,852.18,746.62,852.18c-99.72,0-184.93,51-219.18,123a187.06,187.06,0,0,0-63-10.75c-49.63,0-93.92,18.82-122.87,48.25-27.82-19.94-64.2-32-104-32-67.11,0-124.46,34.32-147.51,82.78a125.68,125.68,0,0,0-42.41-7.24,124.85,124.85,0,0,0-47.44,9.18v590.9H1922.3V1031.81C1881,976,1806.36,938.65,1721.07,938.65Z" style="fill:#fff"/><path d="M487.2,697.74c0-46.61-46-84.4-102.69-84.4-43.52,0-80.71,22.26-95.66,53.68a81.53,81.53,0,0,0-27.5-4.7c-31,0-57.29,16.87-65.93,40a76.22,76.22,0,0,0-26.82-4.63c-26.79,0-48.5,12.42-48.5,27.74H481.52A71,71,0,0,0,487.2,697.74Z" style="fill:#fff"/><path d="M623,744.66c0-31.55-31.11-57.13-69.5-57.13-29.46,0-54.63,15.06-64.75,36.33a55.28,55.28,0,0,0-18.61-3.17c-21,0-38.78,11.41-44.63,27.1a51.53,51.53,0,0,0-18.16-3.13c-18.12,0-32.82,8.4-32.82,18.78H619.17A48,48,0,0,0,623,744.66Z" style="fill:#fff"/><path d="M884.37,396.58c0-58.71-57.9-106.3-129.33-106.3-54.81,0-101.66,28-120.49,67.6A102.74,102.74,0,0,0,599.92,352c-39.1,0-72.15,21.24-83,50.44a96,96,0,0,0-33.78-5.83c-33.74,0-61.08,15.64-61.08,34.94H877.21A89.15,89.15,0,0,0,884.37,396.58Z" style="fill:#fff"/><path d="M1604.29,668.43c0-35.07-34.59-63.5-77.26-63.5-32.74,0-60.72,16.75-72,40.39a61.37,61.37,0,0,0-20.69-3.53c-23.35,0-43.1,12.68-49.6,30.13a57.3,57.3,0,0,0-20.18-3.49c-20.15,0-36.48,9.35-36.48,20.87H1600A53.21,53.21,0,0,0,1604.29,668.43Z" style="fill:#fff"/><path d="M1755.27,585.6c0-46.61-46-84.4-102.68-84.4-43.53,0-80.72,22.25-95.67,53.67a81.73,81.73,0,0,0-27.5-4.69c-31,0-57.29,16.86-65.93,40.05a76,76,0,0,0-26.82-4.63c-26.78,0-48.5,12.42-48.5,27.74h361.42A71,71,0,0,0,1755.27,585.6Z" style="fill:#fff"/><path d="M1857.6,626.75c0-22.06-21.76-40-48.59-40-20.6,0-38.21,10.54-45.28,25.41a38.59,38.59,0,0,0-13-2.22c-14.69,0-27.11,8-31.2,19a35.93,35.93,0,0,0-12.7-2.19c-12.67,0-23,5.88-23,13.13h171.06A33.58,33.58,0,0,0,1857.6,626.75Z" style="fill:#fff"/><path d="M1375.88,251.5c0-35.47-35-64.23-78.14-64.23-33.12,0-61.42,16.94-72.8,40.85a62,62,0,0,0-20.93-3.57c-23.62,0-43.59,12.83-50.17,30.48a57.9,57.9,0,0,0-20.42-3.53c-20.38,0-36.9,9.45-36.9,21.11h275A53.88,53.88,0,0,0,1375.88,251.5Z" style="fill:#fff"/><rect x="756.46" y="-0.65" width="409.56" height="1993.79" style="fill:#955023"/><path d="M782,1888.78c0,5.59-2.35,10.13-5.25,10.13h0c-2.9,0-5.25-4.54-5.25-10.13V9.13c0-5.6,2.35-10.13,5.25-10.13h0C779.68-1,782,3.53,782,9.13Z" style="fill:#693919"/><rect x="851.14" y="-0.65" width="220.21" height="1993.79" style="fill:#82461e"/><path d="M839,1779.7a5.25,5.25,0,0,1-5.25,5.25h0a5.25,5.25,0,0,1-5.25-5.25V1072.36a5.25,5.25,0,0,1,5.25-5.25h0a5.25,5.25,0,0,1,5.25,5.25Z" style="fill:#693919"/><path d="M1088.87,944.11c-18.68,0-33.83,72.2-33.83,161.26s15.15,161.27,33.83,161.27,33.82-72.2,33.82-161.27S1107.55,944.11,1088.87,944.11Zm0,297.46c-15.78,0-28.57-61-28.57-136.2s12.79-136.19,28.57-136.19,28.57,61,28.57,136.19S1104.64,1241.57,1088.87,1241.57Z" style="fill:#693919"/><path d="M1005.54,1556.65c0,6.78-2.35,12.27-5.25,12.27h0c-2.9,0-5.25-5.49-5.25-12.27V11.27C995,4.49,997.39-1,1000.29-1h0c2.9,0,5.25,5.49,5.25,12.27Z" style="fill:#693919"/><path d="M1040,1326c0,6.44-2,11.66-4.5,11.66h0c-2.48,0-4.5-5.22-4.5-11.66V251.38c0-6.43,2-11.65,4.5-11.65h0c2.49,0,4.5,5.22,4.5,11.65Z" style="fill:#693919"/><path d="M1095.62,378.21a5.21,5.21,0,0,1,5.21-5.21h0a5.21,5.21,0,0,1,5.21,5.21V907.82a5.21,5.21,0,0,1-5.21,5.21h0a5.21,5.21,0,0,1-5.21-5.21Z" style="fill:#693919"/><path d="M1106,228.71c0,6.71-2.33,12.15-5.21,12.15h0c-2.88,0-5.21-5.44-5.21-12.15V11.16c0-6.71,2.33-12.15,5.21-12.15h0c2.88,0,5.21,5.44,5.21,12.15Z" style="fill:#693919"/><path d="M1148.05,476.21c0,1.78-2,3.22-4.5,3.22h0c-2.49,0-4.5-1.44-4.5-3.22V7c0-1.78,2-3.22,4.5-3.22h0c2.48,0,4.5,1.44,4.5,3.22Z" style="fill:#693919"/><path d="M1148.05,1590.51c0,3.39-2,6.13-4.5,6.13h0c-2.49,0-4.5-2.74-4.5-6.13V698.17c0-3.38,2-6.13,4.5-6.13h0c2.48,0,4.5,2.75,4.5,6.13Z" style="fill:#693919"/><path d="M923,150.32c0,1.08-1.67,2-3.75,2h0c-2.07,0-3.75-.87-3.75-2V7.13c0-1.08,1.68-2,3.75-2h0c2.08,0,3.75.88,3.75,2Z" style="fill:#693919"/><path d="M923,1190.19c0,7.32-1.67,13.25-3.75,13.25h0c-2.07,0-3.75-5.93-3.75-13.25V220.73c0-7.32,1.68-13.26,3.75-13.26h0c2.08,0,3.75,5.94,3.75,13.26Z" style="fill:#693919"/><path d="M881,809.23c0,7.36-1.68,13.33-3.75,13.33h0c-2.07,0-3.75-6-3.75-13.33v-352c0-7.37,1.68-13.34,3.75-13.34h0c2.07,0,3.75,6,3.75,13.34Z" style="fill:#693919"/><path d="M961.25,1341c0,7.45-1.84,13.49-4.11,13.49h0c-2.27,0-4.1-6-4.1-13.49V503c0-7.45,1.83-13.49,4.1-13.49h0c2.27,0,4.11,6,4.11,13.49Z" style="fill:#693919"/><path d="M797,1379.85c0,7.54,4,13.66,8.93,13.66h0c4.93,0,8.93-6.12,8.93-13.66V486.68c0-7.54-4-13.65-8.93-13.65h0c-4.93,0-8.93,6.11-8.93,13.65Z" style="fill:#693919"/><path d="M798.83,332.63c0,31,9.24,56.07,20.64,56.07s20.64-25.1,20.64-56.07-9.24-56.06-20.64-56.06S798.83,301.67,798.83,332.63Zm3.21,0c0-26.14,7.8-47.34,17.43-47.34s17.43,21.2,17.43,47.34S829.1,380,819.47,380,802,358.78,802,332.63Z" style="fill:#693919"/><path d="M792.4,290.63c0,89.07,15.14,161.27,33.82,161.27s33.83-72.2,33.83-161.27S844.9,129.36,826.22,129.36,792.4,201.56,792.4,290.63Zm5.25,0c0-75.22,12.79-136.2,28.57-136.2s28.57,61,28.57,136.2S842,426.83,826.22,426.83,797.65,365.85,797.65,290.63Z" style="fill:#693919"/><path d="M962.25,390c-5.48,0-9.92,12.06-9.92,26.93s4.44,26.94,9.92,26.94,9.91-12.06,9.91-26.94S967.72,390,962.25,390Zm0,49.68c-4.63,0-8.38-10.18-8.38-22.75s3.75-22.75,8.38-22.75,8.37,10.19,8.37,22.75S966.87,439.71,962.25,439.71Z" style="fill:#693919"/><path d="M962.25,360.9c-11.4,0-20.65,25.1-20.65,56.06S950.85,473,962.25,473s20.64-25.1,20.64-56.07S973.65,360.9,962.25,360.9Zm0,103.41c-9.63,0-17.44-21.2-17.44-47.35s7.81-47.35,17.44-47.35,17.43,21.2,17.43,47.35S971.87,464.31,962.25,464.31Z" style="fill:#693919"/><path d="M937.27,159c0,25.59-13.82,46.35-30.87,46.35S875.53,184.61,875.53,159s13.82-46.35,30.87-46.35S937.27,133.42,937.27,159Z" style="fill:#693919"/><path d="M937.27,155.26c0,25.6-13.82,46.35-30.87,46.35s-30.87-20.75-30.87-46.35,13.82-46.34,30.87-46.34S937.27,129.66,937.27,155.26Z" style="fill:#955023"/><path d="M936.89,152.82c0,25.59-13.82,46.34-30.87,46.34s-30.87-20.75-30.87-46.34S889,106.47,906,106.47,936.89,127.22,936.89,152.82Z" style="fill:#693919"/><ellipse cx="906.78" cy="151.69" rx="28.13" ry="42.23" style="fill:#955023"/><ellipse cx="906.78" cy="151.69" rx="25.72" ry="38.61" style="fill:#392012"/><path d="M583.54,197.3c8.73-.93,13.43,3,14,8.4s-3.2,10.21-11.93,11.14-19.56-6.73-19.67-7.8S574.82,198.22,583.54,197.3Z" style="fill:#487e3b"/><path d="M565.94,209c.11,1.07,10.95,8.72,19.67,7.8s12.5-5.75,11.93-11.14Z" style="fill:#5a9e44"/><polyline points="586.33 206.88 578.54 201.54 583.18 207.22" style="fill:#5a9e44"/><polyline points="595.78 205.88 587.86 199.28 592.63 206.22" style="fill:#5a9e44"/><polyline points="586.33 206.88 579.83 213.73 583.18 207.22" style="fill:#487e3b"/><polyline points="595.78 205.88 589.42 213.99 592.63 206.22" style="fill:#487e3b"/><path d="M605.23,171.06c6.43,9.57,4.76,17.45-1.17,21.43s-13.84,2.56-20.28-7-4.21-26.88-3-27.67S598.79,161.48,605.23,171.06Z" style="fill:#487e3b"/><path d="M580.75,157.81c-1.18.79-3.41,18.09,3,27.67s14.36,11,20.28,7Z" style="fill:#5a9e44"/><polyline points="595.79 180.19 597.21 167.85 593.47 176.73" style="fill:#5a9e44"/><polyline points="602.77 190.56 605.57 177.3 600.44 187.1" style="fill:#5a9e44"/><polyline points="595.79 180.19 583.83 176.84 593.47 176.73" style="fill:#487e3b"/><polyline points="602.77 190.56 589.43 188.15 600.44 187.1" style="fill:#487e3b"/><path d="M750.38,199.93h-145v5l18.38,2.24,12.88,1.24,113.15,9.94c.91,6.94,4.53,11.73,6.76,11.73V188.69C754.41,188.69,751.32,193.26,750.38,199.93Z" style="fill:#955023"/><path d="M756.4,197.73c.06-.43.13-.85.19-1.26v-7.78c-1.93,0-3.64,3.59-4.65,9Z" style="fill:#82461e"/><polygon points="645.21 206.91 610.24 202.77 610.24 199.93 605.42 199.93 605.42 204.97 645.21 209.41 645.21 206.91" style="fill:#82461e"/><path d="M756.33,216.2,641.5,206.26l-3,2.37,111.79,9.76c.91,6.94,4.05,11.73,6.28,11.73V218C756.5,217.39,756.41,216.81,756.33,216.2Z" style="fill:#82461e"/><polyline points="610.24 199.93 602.71 192.42 601.5 194.29 605.87 201.07 598.14 203.7 598.14 206.11 610.07 205.49" style="fill:#82461e"/><path d="M669.18,266.81c-5,21.36-31,38.25-39.11,36.36S606,274.66,611,253.3s22-35.65,38.07-31.92S674.14,245.45,669.18,266.81Z" style="fill:#512d14"/><path d="M654.15,223.22c.4,3.24.68,6.51,1,9.79a90.74,90.74,0,0,1-4.69,39,242.11,242.11,0,0,1-12.78,29.49c10.73-3.24,27.62-18,31.49-34.7C673.59,247.82,667,229.64,654.15,223.22Z" style="fill:#442714"/><path d="M639.78,254.36a8.9,8.9,0,1,1-6.65-10.68A8.9,8.9,0,0,1,639.78,254.36Z" style="fill:#7e4620"/><path d="M626.71,264.68a4.11,4.11,0,1,1-3.08-4.93A4.11,4.11,0,0,1,626.71,264.68Z" style="fill:#7e4620"/><path d="M646.44,221.16c2.53-4.49,4.18-6.44,1.73-14.29l6.35,3.08s-.86,4-5.37,12.83" style="fill:#765c49"/><path d="M649.62,219a29.56,29.56,0,0,0-35.49,22.11l57.6,13.38A29.57,29.57,0,0,0,649.62,219Z" style="fill:#846b58"/><path d="M656.55,236.93a49.23,49.23,0,0,1-1.8,13.65l17,3.95a29.57,29.57,0,0,0-17.86-34.16A61,61,0,0,1,656.55,236.93Z" style="fill:#765c49"/><path d="M648.71,231.58a3.12,3.12,0,1,1-2.33-3.75A3.12,3.12,0,0,1,648.71,231.58Z" style="fill:#765c49"/><path d="M654.52,236.46a2.14,2.14,0,1,1-1.6-2.57A2.13,2.13,0,0,1,654.52,236.46Z" style="fill:#765c49"/><path d="M656.51,239.11l-1.23-.28-1.24-.29,1.24.29Z" style="fill:#765c49"/><path d="M634.72,233.14a3.38,3.38,0,1,1-2.53-4.07A3.37,3.37,0,0,1,634.72,233.14Z" style="fill:#765c49"/><path d="M637.38,227.47a1.71,1.71,0,0,1-2,1.27,1.69,1.69,0,1,1,2-1.27Z" style="fill:#765c49"/><path d="M630.9,228.91a2.86,2.86,0,1,1-2.14-3.44A2.87,2.87,0,0,1,630.9,228.91Z" style="fill:#765c49"/><path d="M625.09,234.37l-1.78-.41-1.77-.41,1.77.41Z" style="fill:#765c49"/><path d="M632.77,239.83a1.5,1.5,0,0,1-2.92-.68,1.5,1.5,0,1,1,2.92.68Z" style="fill:#765c49"/><path d="M627.46,234.5a2.08,2.08,0,1,1-1.56-2.5A2.08,2.08,0,0,1,627.46,234.5Z" style="fill:#765c49"/><path d="M622.94,237.86a2.21,2.21,0,1,1-1.65-2.65A2.21,2.21,0,0,1,622.94,237.86Z" style="fill:#765c49"/><path d="M624.08,232.93a2.21,2.21,0,1,1-1.65-2.65A2.21,2.21,0,0,1,624.08,232.93Z" style="fill:#765c49"/><path d="M642.71,239a3.9,3.9,0,1,1-2.92-4.69A3.91,3.91,0,0,1,642.71,239Z" style="fill:#765c49"/><path d="M648.57,243.17a2.22,2.22,0,1,1-1.66-2.66A2.23,2.23,0,0,1,648.57,243.17Z" style="fill:#765c49"/><path d="M643.73,244.38a1.1,1.1,0,1,1-.83-1.33A1.1,1.1,0,0,1,643.73,244.38Z" style="fill:#765c49"/><path d="M656,244.3a2.68,2.68,0,1,1-5.22-1.21A2.68,2.68,0,0,1,656,244.3Z" style="fill:#765c49"/><path d="M653.07,245.12a1.34,1.34,0,0,0-1-1.6,1.33,1.33,0,0,0-1.6,1,1.34,1.34,0,1,0,2.61.6Z" style="fill:#765c49"/><path d="M656.71,238.27a1.27,1.27,0,1,1-1-1.53A1.28,1.28,0,0,1,656.71,238.27Z" style="fill:#765c49"/><path d="M659.12,230.9a3.75,3.75,0,1,1-2.8-4.5A3.75,3.75,0,0,1,659.12,230.9Z" style="fill:#765c49"/><path d="M652.81,224.92a2.22,2.22,0,1,1-1.66-2.66A2.21,2.21,0,0,1,652.81,224.92Z" style="fill:#765c49"/><path d="M645.89,225.32a2,2,0,1,1-1.46-2.34A2,2,0,0,1,645.89,225.32Z" style="fill:#765c49"/><path d="M641.9,225.26a2.8,2.8,0,1,1-2.1-3.36A2.8,2.8,0,0,1,641.9,225.26Z" style="fill:#765c49"/><path d="M634.83,223.45a2,2,0,1,1-1.49-2.39A2,2,0,0,1,634.83,223.45Z" style="fill:#765c49"/><path d="M640.41,231.65a2,2,0,1,1-1.46-2.34A2,2,0,0,1,640.41,231.65Z" style="fill:#765c49"/><path d="M628.57,241.62a2.39,2.39,0,1,1-1.79-2.87A2.38,2.38,0,0,1,628.57,241.62Z" style="fill:#765c49"/><path d="M635.61,243.69a1.63,1.63,0,1,1-1.22-1.95A1.63,1.63,0,0,1,635.61,243.69Z" style="fill:#765c49"/><path d="M641.61,243.73a1.23,1.23,0,1,1-.92-1.48A1.23,1.23,0,0,1,641.61,243.73Z" style="fill:#765c49"/><path d="M647.65,236.14a1.56,1.56,0,1,1-1.17-1.88A1.56,1.56,0,0,1,647.65,236.14Z" style="fill:#765c49"/><path d="M651.16,247.42a1.74,1.74,0,1,1-1.3-2.09A1.74,1.74,0,0,1,651.16,247.42Z" style="fill:#765c49"/><path d="M646.83,221.25l-1.19-.27-1.2-.28,1.2.28Z" style="fill:#765c49"/></svg>
