<svg id="Capa_1" data-name="Capa 1" xmlns="http://www.w3.org/2000/svg" viewBox="240 0 1440 1080"><rect x="1.19" y="-1050.65" width="1920.1" height="2160.12" style="fill:#aadae1"/><path d="M1722.07-111.35c-99.72,0-184.93,51-219.18,123a189.8,189.8,0,0,0-130.29,1.59C1361.8-85.34,1261-162.59,1138.31-162.59c-72.91,0-138,27.26-181.21,70.05C918.12-155,839-197.82,747.62-197.82c-99.72,0-184.93,51-219.18,123a187.06,187.06,0,0,0-63-10.75c-49.63,0-93.92,18.82-122.87,48.25-27.82-19.94-64.2-32-104-32C171.44-69.35,114.09-35,91,13.43A125.68,125.68,0,0,0,48.63,6.19,124.85,124.85,0,0,0,1.19,15.37v590.9H1923.3V-18.19C1882-74,1807.36-111.35,1722.07-111.35Z" style="fill:#fff"/><path d="M1721.07-111.35c-99.72,0-184.93,51-219.18,123a189.8,189.8,0,0,0-130.29,1.59C1360.8-85.34,1260-162.59,1137.31-162.59c-72.91,0-138,27.26-181.21,70.05C917.12-155,838-197.82,746.62-197.82c-99.72,0-184.93,51-219.18,123a187.06,187.06,0,0,0-63-10.75c-49.63,0-93.92,18.82-122.87,48.25-27.82-19.94-64.2-32-104-32C170.44-69.35,113.09-35,90,13.43A125.68,125.68,0,0,0,47.63,6.19,124.85,124.85,0,0,0,.19,15.37v590.9H1922.3V-18.19C1881-74,1806.36-111.35,1721.07-111.35Z" style="fill:#fff"/><path d="M1836.23,319.32a30,30,0,0,1-13.65,1.76l6.68,18.85c1.86-2.55,3.71-5.12,5.49-7.76a18.07,18.07,0,0,1-8.45-3.44A104.1,104.1,0,0,1,1836.23,319.32Z" style="fill:none"/><path d="M1378.05,422.25l.32-.9-.66,0Z" style="fill:none"/><path d="M.19,290v1.4l.86-1.24Z" style="fill:none"/><path d="M540.71,470a11.07,11.07,0,0,0,3.21-2.45,20.46,20.46,0,0,1-5.42-3.91l-13.57-38.29a10,10,0,0,0,4.88-.71c-2.53-4.72-5.81-8.53-8.68-12.77a7.48,7.48,0,0,0,3.51-1.43,73,73,0,0,0-7.34-6.62l-5.85-16.52a5.22,5.22,0,0,0,3.28-.32c-2.05-3.6-5-6.08-6.68-10l-.16.33-2.15-6.08c-3.27-4.61-8.58-4.61-11.86,0l-2.28,6.44-.32-.69c-1.7,3.95-4.63,6.43-6.69,10a5.44,5.44,0,0,0,3.62.24l-5.76,16.23c-1.29,1.12-2.61,2.18-3.9,3.29l-.16-.14L440.62,300a27.48,27.48,0,0,0,13.57-2c-7-13.13-16.18-23.72-24.16-35.55a21,21,0,0,0,9.79-4c-6.39-7.06-13.54-12.54-20.45-18.42l-16.29-46a14.72,14.72,0,0,0,9.15-.88c-5.73-10-13.89-16.94-18.61-27.94l-.43.92-6-16.9c-9.12-12.85-23.9-12.85-33,0l-6.35,17.9-.91-1.92c-4.72,11-12.88,17.92-18.61,27.94a15.19,15.19,0,0,0,10.06.67l-16,45.17c-7.27,6.28-14.89,12-21.64,19.44a21,21,0,0,0,9.78,4c-8,11.83-17.11,22.42-24.15,35.55A27.77,27.77,0,0,0,300.78,300L264.23,403.12,250.79,365.2a18,18,0,0,0,8.9-1.3c-4.62-8.6-10.6-15.55-15.84-23.3a13.77,13.77,0,0,0,6.42-2.61c-4.19-4.62-8.88-8.22-13.4-12.07l-10.68-30.14a9.66,9.66,0,0,0,6-.57c-3.75-6.58-9.1-11.11-12.19-18.32l-.29.61-3.92-11.08c-6-8.42-15.66-8.42-21.63,0L190,278.15l-.59-1.26c-3.09,7.21-8.45,11.74-12.2,18.32a10,10,0,0,0,6.6.43l-10.5,29.61c-4.76,4.12-9.75,7.85-14.18,12.74a13.73,13.73,0,0,0,6.42,2.61c-5.23,7.75-11.22,14.7-15.84,23.3a18.21,18.21,0,0,0,9.45,1.27L148.2,396.05l-25-70.64a25.91,25.91,0,0,0,12.74-1.87c-6.61-12.32-15.18-22.27-22.68-33.36a19.79,19.79,0,0,0,9.19-3.74c-6-6.63-12.71-11.77-19.19-17.29L87.93,226a13.74,13.74,0,0,0,8.58-.82c-5.37-9.41-13-15.9-17.46-26.23l-.41.87L73,183.93c-8.56-12.06-22.43-12.06-31,0l-6,16.81-.85-1.81c-4.43,10.33-12.09,16.82-17.47,26.23a14.22,14.22,0,0,0,9.45.62l-15,42.41c-4,3.42-8,6.66-12,10.14V290l.86.16-.86,1.24V484.33H160.66l.4-1c9.11-.21,17.74-2.4,24.65-7.16H277l.28-.7c7.05-.16,13.69-2,18.74-6.14H457.45a8.71,8.71,0,0,0,1.43.82,23.34,23.34,0,0,0-.68,4.8,35.67,35.67,0,0,1-11.26,4.45c2.82,4.52,7.83,6.35,13.25,6.41l.15.38h78.94l.16-.38c5.29-.12,10.18-2,12.95-6.41a35.6,35.6,0,0,1-10.95-4.26A23.67,23.67,0,0,0,540.71,470Z" style="fill:#21515a"/><path d="M803.19,442.55a17.27,17.27,0,0,0,5-3.79,31.74,31.74,0,0,1-8.37-6l-21-59.17a15.22,15.22,0,0,0,7.53-1.1c-3.9-7.29-9-13.17-13.41-19.73a11.75,11.75,0,0,0,5.44-2.21c-3.55-3.92-7.52-7-11.35-10.22l-9-25.53a8.16,8.16,0,0,0,5.07-.49c-3.18-5.56-7.71-9.4-10.32-15.51l-.25.51-3.32-9.38c-5.06-7.13-13.27-7.13-18.32,0l-3.53,9.94-.5-1.07c-2.62,6.11-7.15,9.95-10.33,15.51a8.44,8.44,0,0,0,5.59.37l-8.89,25.08c-4,3.48-8.26,6.64-12,10.79a11.71,11.71,0,0,0,5.43,2.21c-4.43,6.56-9.5,12.44-13.41,19.73a15.47,15.47,0,0,0,8,1.08l-10.28,29c-.83-1.14-1.65-2.28-2.45-3.46a8.29,8.29,0,0,0,3.93-1.6,83,83,0,0,0-8.2-7.39l-6.54-18.46a5.87,5.87,0,0,0,3.67-.35c-2.3-4-5.58-6.8-7.47-11.22l-.18.37-2.4-6.78c-3.66-5.16-9.59-5.16-13.25,0l-2.55,7.18-.36-.77c-1.9,4.42-5.17,7.19-7.47,11.22a6.11,6.11,0,0,0,4,.27l-6.43,18.13a92.73,92.73,0,0,0-8.68,7.8,8.26,8.26,0,0,0,3.92,1.6c-3.2,4.75-6.87,9-9.69,14.27a11.09,11.09,0,0,0,5.78.78l-15,42.27a22.72,22.72,0,0,1-6.58,4.9,12.16,12.16,0,0,0,3.89,2.88,25.94,25.94,0,0,0-.76,5.36,39.68,39.68,0,0,1-12.58,5c3.15,5,8.75,7.1,14.8,7.17l.17.42h88.21l.17-.43c5.92-.13,11.38-2.21,14.47-7.16a39.93,39.93,0,0,1-12.24-4.76c0-.76-.09-1.51-.17-2.25h90l.24-.59c8.19-.19,15.74-3.06,20-9.9a55.26,55.26,0,0,1-16.92-6.59A35.75,35.75,0,0,0,803.19,442.55Z" style="fill:#21515a"/><path d="M1250.94,457.15a17.54,17.54,0,0,0,5-3.79,31.63,31.63,0,0,1-8.38-6l-21-59.17a15.28,15.28,0,0,0,7.54-1.1c-3.91-7.29-9-13.17-13.42-19.73a11.75,11.75,0,0,0,5.44-2.21c-3.55-3.92-7.52-7-11.35-10.23l-9-25.52a8.16,8.16,0,0,0,5.07-.49c-3.17-5.56-7.71-9.4-10.32-15.51l-.24.51-3.33-9.38c-5.06-7.13-13.26-7.13-18.32,0l-3.53,9.94-.5-1.07c-2.62,6.11-7.15,9.95-10.33,15.51a8.44,8.44,0,0,0,5.59.37l-8.89,25.08c-4,3.48-8.26,6.64-12,10.79a11.71,11.71,0,0,0,5.43,2.21c-4.43,6.56-9.5,12.44-13.41,19.73a15.49,15.49,0,0,0,8,1.08l-20.72,58.45a31.55,31.55,0,0,1-9.1,6.78,16.84,16.84,0,0,0,5.37,4,36.77,36.77,0,0,0-1,7.41,55.15,55.15,0,0,1-17.4,6.89c4.36,7,12.11,9.81,20.47,9.9l.24.59h122l.24-.59c8.19-.19,15.74-3.06,20-9.9a55.21,55.21,0,0,1-16.93-6.59A36.36,36.36,0,0,0,1250.94,457.15Z" style="fill:#21515a"/><path d="M1914.64,273.15a12.73,12.73,0,0,0,7.89-.76c-4.94-8.66-12-14.63-16-24.12l-.38.8-5.17-14.59c-7.87-11.09-20.63-11.09-28.49,0L1867,249.93l-.79-1.66c-4.07,9.49-11.12,15.46-16.06,24.12a13.12,13.12,0,0,0,8.69.57L1845,312c-2.63,2.26-5.31,4.45-8,6.69-7.55-14-17.31-25.33-25.84-38a22.54,22.54,0,0,0,10.53-4.29c-6.87-7.6-14.56-13.49-22-19.82l-17.53-49.48a15.83,15.83,0,0,0,9.85-.95c-6.17-10.79-15-18.23-20-30.07l-.48,1-6.44-18.19c-9.81-13.82-25.72-13.82-35.52,0l-6.83,19.27-1-2.07c-5.08,11.84-13.87,19.28-20,30.07a16.37,16.37,0,0,0,10.83.72l-17.23,48.61c-7.82,6.76-16,12.89-23.28,20.92a22.54,22.54,0,0,0,10.53,4.29c-8.59,12.72-18.42,24.12-26,38.25A29.92,29.92,0,0,0,1672.1,321l-40.17,113.33a61.05,61.05,0,0,1-17.63,13.14,32.66,32.66,0,0,0,10.42,7.71,69.9,69.9,0,0,0-2,14.37,99,99,0,0,1-10.14,5.46,62.14,62.14,0,0,1-6.32-3.29,43,43,0,0,0-1.32-9.34,20.18,20.18,0,0,0,5.86-4.47,37.08,37.08,0,0,1-9.89-7.13L1576.1,381a18,18,0,0,0,8.89-1.31c-4.61-8.6-10.6-15.54-15.83-23.29a13.73,13.73,0,0,0,6.41-2.61c-4.18-4.63-8.87-8.22-13.39-12.07l-10.68-30.14a9.67,9.67,0,0,0,6-.58c-3.75-6.57-9.1-11.11-12.19-18.31l-.29.6-3.92-11.08c-6-8.42-15.67-8.42-21.64,0l-4.16,11.74-.59-1.26c-3.1,7.2-8.45,11.74-12.2,18.31a10,10,0,0,0,6.59.44L1498.6,341c-4.76,4.11-9.75,7.84-14.18,12.74a13.73,13.73,0,0,0,6.41,2.61c-5.23,7.75-11.21,14.69-15.83,23.29a18.1,18.1,0,0,0,9.45,1.28l-24.46,69a36.42,36.42,0,0,1-3.18,3,22.72,22.72,0,0,1-3.22-2.67l-15-42.3a10.78,10.78,0,0,0,5.38-.79c-2.79-5.21-6.41-9.41-9.58-14.1a8.33,8.33,0,0,0,3.88-1.58,80,80,0,0,0-8.11-7.31L1423.7,366a5.88,5.88,0,0,0,3.63-.35c-2.27-4-5.51-6.72-7.38-11.09l-.17.37-2.38-6.71c-3.62-5.1-9.48-5.1-13.1,0l-2.52,7.1-.36-.76c-1.87,4.37-5.11,7.11-7.38,11.09a6,6,0,0,0,4,.26l-6.35,17.93a89.48,89.48,0,0,0-8.59,7.72,8.33,8.33,0,0,0,3.88,1.58c-3.16,4.69-6.79,8.89-9.59,14.1a10.91,10.91,0,0,0,5.73.77l-3,8.52c-2-3-4.19-5.72-6.18-8.67a7.53,7.53,0,0,0,3.51-1.43,75.51,75.51,0,0,0-7.34-6.62l-5.85-16.52a5.23,5.23,0,0,0,3.28-.31c-2.06-3.6-5-6.09-6.68-10l-.16.33-2.15-6.07c-3.28-4.61-8.59-4.61-11.86,0l-2.28,6.43-.33-.69c-1.69,4-4.62,6.44-6.68,10a5.41,5.41,0,0,0,3.61.24l-5.75,16.23a81.45,81.45,0,0,0-7.77,7,7.53,7.53,0,0,0,3.51,1.43c-2.86,4.25-6.14,8.06-8.67,12.77a10,10,0,0,0,5.18.7l-13.41,37.83a20.34,20.34,0,0,1-5.89,4.39,10.82,10.82,0,0,0,3.48,2.57,24.14,24.14,0,0,0-.69,4.8,35.42,35.42,0,0,1-11.25,4.46c2.82,4.51,7.83,6.35,13.24,6.41l.16.38h78.94l.15-.38c5.3-.13,10.19-2,13-6.41l-.72-.16h42.7a64.46,64.46,0,0,1-13.35,4.35c5.15,8.23,14.3,11.58,24.18,11.69l.27.69H1596.8c8.51,7,19.85,10.09,31.83,10.23l.46,1.13h139.12c6.52,4.45,14.68,6.42,23.27,6.52l.37.91H1923.3V297.59Zm-536.59,149.1-.34-.94.66,0Zm456.7-90.08c-1.78,2.64-3.63,5.21-5.49,7.76l-6.68-18.85a30,30,0,0,0,13.65-1.76,104.1,104.1,0,0,0-9.93,9.41A18.07,18.07,0,0,0,1834.75,332.17Z" style="fill:#21515a"/><path d="M-8.14,286.44A19.34,19.34,0,0,0,.19,290V278.33A100.73,100.73,0,0,0-8.14,286.44Z" style="fill:#21515a"/><path d="M11.54,427c-.92-1.44-1.86-2.8-2.85-4.07Z" style="fill:#6fbb44"/><path d="M1921.3,462.27c-31.51-29.25-66.46-61.86-86.71-3.35-1.82-3.65-6.61-8.78-9.55-14.2-1.1-10.74-4.06-20.26-10.7-28.56-11.25,6.75-15.75,22.5-18,36,0-11.25-6.76-22.51-6.76-31.51-19,10.58-28.14,33.1-44.12,45.1h-4.14c-5.75-13-6.1-27.81-12.5-40.6v18c-4.5-58.51-54-24.76-49.5,18-6.75-6.75-15.76-9-22.51-13.5v15.75c-13.5-13.5-24.75-27-40.5-40.51,0,15.75,4.5,29.26,4.5,42.76-18-6.75-29.26-22.5-40.51-38.26v38.26c-10.42-17.88-21.84-11.1-30.32.09h-16c-1.39-8.07-2-16.37-3.2-22.59-2.25,6.75-6.75,13.5-9,22.5-6.75-13.5-9-27-11.25-40.51-9,9-15.75,22.51-20.25,36,0-13.5,2.25-27,0-40.51-22.5,6.14-32,23.42-33.52,45.1H1451c-4.35-4.53-9.4-9.06-12.42-13.59a47.37,47.37,0,0,1,.89,13.59h-21.13c-4-4.88-7.61-10.36-11.26-15.84a110.88,110.88,0,0,1,4.39,15.84H1380.7a261.52,261.52,0,0,1-25.43-24.84c0,6.75-2.25,13.5-2.25,20.25-13.5-4.5-22.51-18-27-33.76,2.25,13.51,2.25,27,0,38.26-10.26-2.8-19.37-2.5-27.63.09H1270.9c1.08-9.21,1.31-18.49-1.15-27.1-6.75,6.76-18,15.76-24.75,22.51,4.5-15.75,15.75-31.51,15.75-47.26-18.43,8.19-35,29.44-41.22,51.85h-.79a73.79,73.79,0,0,0-5.24-31.6c-13.6,5.1-18.21,17.89-19.65,31.6H1181.7c-6.89-10.21-12.42-21.8-20-29.35,0,9.46,1.1,20-.56,29.35H1143.4c-4.53-7.39-6.94-16.9-10.92-24.84a96.83,96.83,0,0,0-6,24.84h-17c-7.65-10.12-13.48-23.09-22-31.6,1.75,10.54,4.86,21.07,5.08,31.6h-13.8c-8.27-7.88-14.41-18.61-20.54-29.35,2.91,10.19,4.88,20.38,4.08,29.35h-8.06c-1.6-10.85-.52-22.89-.52-33.85-4.5,6.75-13.5,20.26-15.75,29.26-2.25-13.5-2.25-27-2.25-40.51-15.43,7.72-22.59,27-24.32,45.1h-.8c-.85-10.44-3.37-20.58-8.64-29.35-12,6-20.48,17.4-27,29.35h-8.35c-8.55-7.28-15.88-17.93-23.21-27.1,0,9,0,18.07-.67,27.1H931.43c-3.16-3.66-6.31-7.5-8.23-11.34,0,3-2,7-4,11.34h-8.43c-6.22-8.38-11.08-18.86-14.57-29.35,1.81,10.85,3.61,20.24,3.08,29.35h-7.36c-13.89-14.07-33.37-31.51-43-4.59a96.9,96.9,0,0,0,0-36c-16.69,6.26-29.5,22.18-33.08,40.6h-.12c.52-9.21-3.11-16.75-5.06-22.59a24.83,24.83,0,0,0-14.93,16.5,114.27,114.27,0,0,0-3.07-21c-8.44,5.07-13.08,12.66-14.87,21.84-.57-19.84-19.14-14.63-21.73,5.26h-9c-4.48-5.56-9.07-10.7-12.93-15.84,1.34,7.37,1.28,12.49.16,15.84H712.54c-13.9-8-30.26-22.68-36.88-27.1,3,9,6,18.07,7.68,27.1h-27c-1.24-8.28-1.78-16.56-3.16-24.84-3.61,3.6-6.85,6.48-9.3,9.51a51.1,51.1,0,0,0-2-23,24.06,24.06,0,0,0-13.11,10c-8.18-7.17-28.54,2.07-26.56,28.3h-4.19c-4.35-6-9.38-12.06-12.4-18.09,0,3.44-2.64,12.17-3.88,18.09h-7.52c-10-7.71-18.43-19.31-31.36-24.84,2.25,4.5,2.25,13.5,2.25,20.25-6.75-9-15.75-15.75-20.25-27,2.25,11.26-2.25,22.51-4.5,31.51-14.61-16.7-40.84-25.65-44.56.09h-.52c-.29-11.6-1.74-32.05-8.93-33.85-6.56-1.87-11.55.55-15.15,4.66a39.88,39.88,0,0,0-2.85-11.41,34.91,34.91,0,0,0-25,32.26c-2-22.17-16-8-24.07,8.34H374.86c-6.51-7.21-12.42-15.44-21-20.34,1.81,5.43.71,13.77,1.39,20.34H353c-11.82-17.17-20.44-37.54-32.86-54.1,4.5,13.5,9,27,6.75,40.51-2.25-2.25-9-4.5-13.5-6.75,0,6.05-1.81,13.91-2.18,20.34h-.71c-5.17-19.83,7.39-43.56,7.39-63.1-23.9,8.69-41.51,42.55-54.85,63.1h-3.5a313.75,313.75,0,0,1-20.41-24.84c0,6.75-2.25,13.5,0,18-9-6.75-15.76-18-22.51-31.51,2,12.06,4,25.91,2.82,38.35H216.8c-4.84-9.25-12.36-17.05-18.21-24.84,1.59,7.95-.19,17-1.37,24.84h-7.64c-7-6.73-15.12-7.61-21.67,0h-1.57c3-10.25,2.71-21.78.74-31.6-12.69,9.07-21,19.61-29.64,31.6h-4c4.05-14.45,8.09-27.87,4.35-42.85-12.49,12.5-26.39,26.41-33.86,42.85H98.08c-1.51-7-3.83-13.23-5.26-20.34,0,4.5-2.25,9-2.25,13.5,0-13.5-4.5-27-11.25-36-4.5,13.5-6.75,27-9,42.76-4.5-9-13.5-18-18-29.26,0,10.1,0,20.2-.94,29.35H45c-4.76-6.15-11.08-10.43-17.4-13.59,1,3.92,1.11,8.7,1.31,13.59h-8.6C9,454,19.52,457.77,11.54,427c7.78,12.21-6.33,24.41-10.35,45.69v635.27H1921.3S1925.8,442,1921.3,462.27Z" style="fill:#6fbb44"/><path d="M1921.3,676.39c-6.55,4.33-12.46,10.24-15.84,18.68-2.25-11.25-2.25-24.75-2.25-38.25-4.5,11.25-13.5,20.25-18,29.25-2.25-15.75-4.5-29.25-9-42.76-6.76,9-11.26,22.51-11.26,36,0-4.5-2.25-9-2.25-13.5-2.25,11.25-6.75,20.25-6.75,33.75-4.5-22.5-22.5-40.5-38.25-56.26-4.5,18,2.25,33.76,6.75,51.76-11.25-15.75-20.26-29.25-36-40.5-2.25,11.25-2.25,24.75,2.25,36-9-15.75-22.5-11.25-31.5,4.5,0-9-4.5-22.5-2.25-33.75-6.75,9-15.75,18-20.26,29.25-2.25-13.5,0-29.25,2.26-42.76-6.76,13.51-13.51,24.76-22.51,31.51,2.25-4.5,0-11.25,0-18-6.75,9-15.75,20.25-22.5,27-13.5-20.25-31.51-56.26-56.26-65.26,0,20.25,13.5,45,6.75,65.26,0-6.75-2.25-15.75-2.25-22.5-4.5,2.25-11.25,4.5-13.5,6.75-2.25-13.5,2.25-27,6.75-40.51-13.5,18-22.5,40.51-36,58.51,2.25-6.75,0-18,2.25-24.75-15.75,9-22.5,29.25-40.5,33.75-4.24-19.06-26.42-50.08-29-21.75a34.91,34.91,0,0,0-25-32.26A40,40,0,0,0,1504.3,657c-3.6-4.11-8.6-6.53-15.15-4.65-9,2.25-9,33.75-9,40.5,0-33.75-29.25-24.75-45-6.75-2.25-9-6.75-20.25-4.5-31.5-4.5,11.25-13.5,18-20.26,27,0-6.75,0-15.75,2.25-20.25-15.75,6.75-24.75,22.5-38.25,29.25,0-4.5-4.5-18-4.5-22.5-4.5,9-13.5,18-18,27,7.85-33-16.11-45.14-25.15-37.21a24.06,24.06,0,0,0-13.11-10.05,51.14,51.14,0,0,0-1.95,23c-2.45-3-5.7-5.92-9.3-9.52-2.25,13.5-2.25,27-6.75,40.5-4.5,0-18-2.25-24.76-2.25,0-13.5,4.5-27,9-40.5-13.5,9-67.51,60.76-58.5,11.25-6.76,9-15.76,18-22.51,29.25,6.06-30.26-20.45-42.43-21.13-18.67-1.79-9.18-6.43-16.77-14.87-21.83a114,114,0,0,0-3.07,21,24.84,24.84,0,0,0-14.94-16.51c-2,6.11-5.89,14.06-4.95,23.86-3.22-18.95-16.24-35.47-33.3-41.87a96.9,96.9,0,0,0,0,36c-11.25-31.51-36-2.25-49.51,11.25-2.25-11.25,0-22.5,2.25-36-4.5,13.5-11.25,27-20.25,36-2.25-6.75-6.75-13.5-6.75-18-4.5,9-15.76,18-18,24.75-2.25-13.5-2.25-27-2.25-40.5-9,11.25-18,24.75-29.25,31.5-6.75-13.5-15.75-27-29.26-33.75-6.75,11.25-9,24.75-9,38.25,0-20.25-6.75-45-24.75-54,0,13.51,0,27-2.25,40.51-2.25-9-11.25-22.5-15.75-29.25,0,15.75,2.25,33.75-4.5,47.25-6.76-11.25-4.51-27,0-42.75-9,15.75-18,31.5-33.76,38.25-2.25-13.5,2.25-27,4.5-40.5-13.5,13.5-20.25,38.25-38.25,45,0-13.5-2.26-27-6.76-38.25-6.75,13.5-9,31.5-24.75,36-6.75-11.25-4.5-27-4.5-40.5-11.25,11.25-18,31.5-31.51,42.75,0-18-2.25-38.25-20.25-45a72.22,72.22,0,0,0-4.5,38.25c-4.5-24.75-22.5-49.51-42.76-58.51,0,15.75,11.26,31.51,15.76,47.26-6.75-6.75-18-15.75-24.76-22.5-4.34,15.2-.3,32.5,2,47.85h-1.23c-15.4-17-33-27.39-57-20.85-2.25-11.25-2.25-24.75,0-38.26-4.5,15.76-13.5,29.26-27,33.76,0-6.75-2.25-13.5-2.25-20.25-15.75,18-74.26,74.26-51.76,9-9,13.5-18,27-31.5,31.5,0-9-2.25-20.25,0-29.25-4.5,6.75-13.5,13.5-18,20.25,0-24.75-9-45-33.75-51.76-2.25,13.51,0,27,0,40.51-4.5-13.5-11.25-27-20.25-36-2.25,13.51-4.5,27-11.26,40.51-2.25-9-6.75-15.75-9-22.5-2.25,11.25-2.25,29.25-9,40.5-6.75-15.75-24.75-45-40.51-18V647.81c-11.25,15.76-22.5,31.51-40.5,38.26,0-13.5,4.5-27,4.5-42.76-15.75,13.51-27,27-40.51,40.51V668.07c-6.75,4.5-15.75,6.75-22.5,13.5,4.5-42.76-45-76.51-49.51-18v-18c-6.75,13.51-6.75,29.26-13.5,42.76-18-11.25-27-36-47.26-47.26,0,9-6.75,20.26-6.75,31.51-2.25-13.5-6.75-29.26-18-36-6.64,8.3-9.6,17.82-10.7,28.57-2.94,5.41-7.73,10.54-9.55,14.19-20.26-58.51-27-38.26-58.51-9-4.5-20.26-20.26-33.76-33.76-9,7.15-28.58-8.39-35.89-27.48-30.94v479.08H1921.3Z" style="fill:#5d9e43"/><path d="M546.87,855.77c-33.42-4.62-51.95,9.89-54.81,30.56s11,39.66,44.46,44.29,76-23.45,76.55-27.55S580.28,860.4,546.87,855.77Z" style="fill:#365d2c"/><path d="M613.07,903.07c-.56,4.1-43.14,32.17-76.55,27.55S489.2,907,492.06,886.33Z" style="fill:#49803c"/><polyline points="535 892.27 565.58 872.72 547.07 893.94" style="fill:#49803c"/><polyline points="498.78 887.26 530.03 862.88 510.85 888.93" style="fill:#49803c"/><polyline points="535 892.27 559.13 919.39 547.07 893.94" style="fill:#365d2c"/><polyline points="498.78 887.26 522.24 919.21 510.85 888.93" style="fill:#365d2c"/><path d="M494.6,948.15c25.3-11.14,32-29.22,25.1-44.87s-24.74-22.93-50-11.79-42.94,49-41.58,52.11S469.3,959.28,494.6,948.15Z" style="fill:#365d2c"/><path d="M428.08,943.6c-1.36-3.11,16.28-41,41.58-52.11s43.15-3.86,50,11.79Z" style="fill:#49803c"/><polyline points="487.2 917.58 474.26 944.37 478.06 921.61" style="fill:#49803c"/><polyline points="514.62 905.51 503.29 935.96 505.48 909.54" style="fill:#49803c"/><polyline points="487.2 917.58 458.7 909.03 478.06 921.61" style="fill:#365d2c"/><polyline points="514.62 905.51 484.52 893.31 505.48 909.54" style="fill:#365d2c"/><path d="M415.87,859c-24.8-9.09-41.38-1.06-47,14.27s1.86,32.18,26.65,41.27,62-5.31,63.15-8.36S440.66,868.08,415.87,859Z" style="fill:#365d2c"/><path d="M458.66,906.17c-1.12,3.05-38.35,17.45-63.15,8.36s-32.27-25.93-26.65-41.27Z" style="fill:#49803c"/><polyline points="400.72 884.94 427.37 875.06 409.68 888.22" style="fill:#49803c"/><polyline points="373.85 875.09 401.81 861.63 382.81 878.37" style="fill:#49803c"/><polyline points="400.72 884.94 414.68 909.7 409.68 888.22" style="fill:#365d2c"/><polyline points="373.85 875.09 386.49 903.43 382.81 878.37" style="fill:#365d2c"/><rect x="756.46" y="-1050.65" width="409.56" height="1993.79" style="fill:#955023"/><path d="M782,838.78c0,5.59-2.35,10.13-5.25,10.13h0c-2.9,0-5.25-4.54-5.25-10.13V-1040.87c0-5.6,2.35-10.13,5.25-10.13h0c2.9,0,5.25,4.53,5.25,10.13Z" style="fill:#693919"/><rect x="851.14" y="-1050.65" width="220.21" height="1993.79" style="fill:#82461e"/><path d="M839,729.7a5.25,5.25,0,0,1-5.25,5.25h0a5.25,5.25,0,0,1-5.25-5.25V22.36a5.25,5.25,0,0,1,5.25-5.25h0A5.25,5.25,0,0,1,839,22.36Z" style="fill:#693919"/><path d="M848.09,790.54c-5.48,0-9.92,12.06-9.92,26.93s4.44,26.94,9.92,26.94S858,832.35,858,817.47,853.56,790.54,848.09,790.54Zm0,49.68c-4.63,0-8.38-10.18-8.38-22.75s3.75-22.75,8.38-22.75,8.37,10.19,8.37,22.75S852.71,840.22,848.09,840.22Z" style="fill:#693919"/><path d="M848.09,761.41c-11.4,0-20.64,25.1-20.64,56.06s9.24,56.07,20.64,56.07,20.64-25.1,20.64-56.07S859.49,761.41,848.09,761.41Zm0,103.41c-9.63,0-17.43-21.2-17.43-47.35s7.8-47.35,17.43-47.35,17.43,21.2,17.43,47.35S857.71,864.82,848.09,864.82Z" style="fill:#693919"/><path d="M1095.62,41.32c-11.4,0-20.64,25.1-20.64,56.06s9.24,56.06,20.64,56.06,20.64-25.1,20.64-56.06S1107,41.32,1095.62,41.32Zm0,103.41c-9.63,0-17.43-21.2-17.43-47.35S1086,50,1095.62,50s17.43,21.2,17.43,47.35S1105.25,144.73,1095.62,144.73Z" style="fill:#693919"/><path d="M1095.62,41.32c-11.4,0-20.64,25.1-20.64,56.06s9.24,56.06,20.64,56.06,20.64-25.1,20.64-56.06S1107,41.32,1095.62,41.32Zm0,103.41c-9.63,0-17.43-21.2-17.43-47.35S1086,50,1095.62,50s17.43,21.2,17.43,47.35S1105.25,144.73,1095.62,144.73Z" style="fill:#693919"/><path d="M868.73,63.45c-12.63,0-22.87,62.53-22.87,139.67s10.24,139.67,22.87,139.67,22.88-62.53,22.88-139.67S881.37,63.45,868.73,63.45Zm0,257.63c-10.67,0-19.32-52.82-19.32-118s8.65-118,19.32-118,19.32,52.81,19.32,118S879.4,321.08,868.73,321.08Z" style="fill:#693919"/><path d="M1088.87-105.89c-18.68,0-33.83,72.2-33.83,161.26s15.15,161.27,33.83,161.27,33.82-72.2,33.82-161.27S1107.55-105.89,1088.87-105.89Zm0,297.46c-15.78,0-28.57-61-28.57-136.2s12.79-136.19,28.57-136.19,28.57,61,28.57,136.19S1104.64,191.57,1088.87,191.57Z" style="fill:#693919"/><path d="M1005.54,506.65c0,6.78-2.35,12.27-5.25,12.27h0c-2.9,0-5.25-5.49-5.25-12.27V-1038.73c0-6.78,2.35-12.27,5.25-12.27h0c2.9,0,5.25,5.49,5.25,12.27Z" style="fill:#693919"/><path d="M1040,276c0,6.44-2,11.66-4.5,11.66h0c-2.48,0-4.5-5.22-4.5-11.66V-798.62c0-6.43,2-11.65,4.5-11.65h0c2.49,0,4.5,5.22,4.5,11.65Z" style="fill:#693919"/><path d="M1095.62,408.33a5.22,5.22,0,0,1,5.21-5.22h0a5.22,5.22,0,0,1,5.21,5.22v529.6a5.21,5.21,0,0,1-5.21,5.21h0a5.21,5.21,0,0,1-5.21-5.21Z" style="fill:#693919"/><path d="M1122.69,681.77a3.68,3.68,0,0,1,3.68-3.68h0a3.68,3.68,0,0,1,3.68,3.68V931.49a3.67,3.67,0,0,1-3.68,3.67h0a3.67,3.67,0,0,1-3.68-3.67Z" style="fill:#693919"/><path d="M1148.05,540.51c0,3.39-2,6.13-4.5,6.13h0c-2.49,0-4.5-2.74-4.5-6.13V-351.83c0-3.38,2-6.13,4.5-6.13h0c2.48,0,4.5,2.75,4.5,6.13Z" style="fill:#693919"/><path d="M1106,351.16a5.21,5.21,0,0,1-5.21,5.21h0a5.21,5.21,0,0,1-5.21-5.21V257.84a5.21,5.21,0,0,1,5.21-5.21h0a5.21,5.21,0,0,1,5.21,5.21Z" style="fill:#693919"/><path d="M1049,869a4.5,4.5,0,0,1-4.5,4.5h0a4.51,4.51,0,0,1-4.5-4.5V468.64a4.5,4.5,0,0,1,4.5-4.5h0a4.49,4.49,0,0,1,4.5,4.5Z" style="fill:#693919"/><path d="M953,930.66a4.5,4.5,0,0,1-4.5,4.5h0a4.49,4.49,0,0,1-4.5-4.5V439.26a4.49,4.49,0,0,1,4.5-4.5h0a4.5,4.5,0,0,1,4.5,4.5Z" style="fill:#693919"/><path d="M923,140.19c0,7.32-1.67,13.25-3.75,13.25h0c-2.07,0-3.75-5.93-3.75-13.25V-829.27c0-7.32,1.68-13.26,3.75-13.26h0c2.08,0,3.75,5.94,3.75,13.26Z" style="fill:#693919"/><path d="M915.53,668.47a4.66,4.66,0,0,1-4.66,4.66h0a4.66,4.66,0,0,1-4.66-4.66V372.79a4.66,4.66,0,0,1,4.66-4.66h0a4.66,4.66,0,0,1,4.66,4.66Z" style="fill:#693919"/><path d="M961.25,291c0,7.45-1.84,13.49-4.11,13.49h0c-2.27,0-4.1-6-4.1-13.49V-547c0-7.45,1.83-13.49,4.1-13.49h0c2.27,0,4.11,6,4.11,13.49Z" style="fill:#693919"/><path d="M808.93,929.21a6,6,0,0,1-5.95,5.95h0a6,6,0,0,1-6-5.95V780.61a6,6,0,0,1,6-6h0a6,6,0,0,1,5.95,6Z" style="fill:#693919"/><path d="M891.61,929.88a5.29,5.29,0,0,1-5.29,5.28h0a5.29,5.29,0,0,1-5.29-5.28v-118a5.29,5.29,0,0,1,5.29-5.29h0a5.29,5.29,0,0,1,5.29,5.29Z" style="fill:#693919"/><path d="M923,929.08a6.08,6.08,0,0,1-6.08,6.08h0a6.08,6.08,0,0,1-6.08-6.08V729.73a6.08,6.08,0,0,1,6.08-6.08h0a6.08,6.08,0,0,1,6.08,6.08Z" style="fill:#693919"/><path d="M797,329.85c0,7.54,4,13.66,8.93,13.66h0c4.93,0,8.93-6.12,8.93-13.66V-563.32c0-7.54-4-13.65-8.93-13.65h0c-4.93,0-8.93,6.11-8.93,13.65Z" style="fill:#693919"/><path d="M829.36,538c0,16.84-9.09,30.49-20.3,30.49S788.75,554.79,788.75,538s9.09-30.48,20.31-30.48S829.36,521.11,829.36,538Z" style="fill:#693919"/><path d="M829.36,535.48c0,16.84-9.09,30.48-20.3,30.48s-20.31-13.64-20.31-30.48S797.84,505,809.06,505,829.36,518.64,829.36,535.48Z" style="fill:#955023"/><ellipse cx="808.81" cy="533.87" rx="20.31" ry="30.48" style="fill:#693919"/><path d="M827.81,533.13c0,15.34-8.29,27.78-18.51,27.78s-18.5-12.44-18.5-27.78,8.28-27.77,18.5-27.77S827.81,517.79,827.81,533.13Z" style="fill:#955023"/><path d="M826.22,533.13c0,14-7.57,25.4-16.92,25.4s-16.91-11.37-16.91-25.4,7.57-25.4,16.91-25.4S826.22,519.1,826.22,533.13Z" style="fill:#392012"/><path d="M1012.39,647.33c0,33.15-17.9,60-40,60s-40-26.87-40-60,17.89-60,40-60S1012.39,614.18,1012.39,647.33Z" style="fill:#693919"/><path d="M1012.39,642.46c0,33.15-17.9,60-40,60s-40-26.88-40-60,17.89-60,40-60S1012.39,609.31,1012.39,642.46Z" style="fill:#955023"/><path d="M1011.9,639.3c0,33.15-17.9,60-40,60s-40-26.87-40-60,17.9-60,40-60S1011.9,606.15,1011.9,639.3Z" style="fill:#693919"/><ellipse cx="972.89" cy="637.84" rx="36.43" ry="54.69" style="fill:#955023"/><ellipse cx="972.89" cy="637.84" rx="33.31" ry="50.01" style="fill:#392012"/><path d="M1262.92,923.07c6-30.27-20.45-42.43-21.13-18.67-1.79-9.18-6.44-16.77-14.87-21.83a114,114,0,0,0-3.07,21,24.85,24.85,0,0,0-14.94-16.5c-2,6.1-5.89,14.06-5,23.86-3.22-19-16.24-35.47-33.3-41.87a96.9,96.9,0,0,0,0,36c-11.25-31.51-36-2.25-49.51,11.25-2.25-11.25,0-22.5,2.25-36-4.5,13.51-11.25,27-20.25,36-2.25-6.75-6.75-13.5-6.75-18-4.51,9-15.76,18-18,24.75-2.25-13.5-2.25-27-2.25-40.5-9,11.25-18,24.75-29.25,31.5-6.75-13.5-15.75-27-29.26-33.76-6.75,11.26-9,24.76-9,38.26,0-20.25-6.75-45-24.75-54,0,13.5,0,27-2.25,40.51-2.25-9-11.25-22.5-15.75-29.26,0,15.76,2.25,33.76-4.51,47.26-6.75-11.25-4.5-27,0-42.76-9,15.76-18,31.51-33.75,38.26-2.25-13.5,2.25-27,4.5-40.51-13.5,13.51-20.25,38.26-38.26,45,0-13.5-2.25-27-6.75-38.25-6.75,13.5-9,31.5-24.75,36-6.75-11.25-4.5-27-4.5-40.51-11.25,11.26-18,31.51-31.51,42.76,0-18-2.25-38.25-20.25-45a72.27,72.27,0,0,0-4.5,38.26c-4.5-24.75-22.5-49.51-42.76-58.51,0,15.75,11.25,31.51,15.76,47.26-6.76-6.75-18-15.75-24.76-22.5-4.34,15.2-.3,32.5,2,47.85h-1.23c-15.4-17-33-27.39-57-20.85-2.25-11.25-2.25-24.75,0-38.26-4.5,15.76-13.5,29.26-27,33.76,0-6.75-2.25-13.5-2.25-20.25a259.61,259.61,0,0,1-27.54,26.59v198.05h640.06V904.38A147.63,147.63,0,0,0,1262.92,923.07Z" style="fill:#5d9e43"/><path d="M1039.81,955.77c-28.62-4-44.49,8.47-46.94,26.17s9.46,34,38.08,37.93,65.08-20.08,65.56-23.59S1068.43,959.73,1039.81,955.77Z" style="fill:#365d2c"/><path d="M1096.51,996.28c-.48,3.51-36.94,27.55-65.56,23.59s-40.52-20.23-38.08-37.93Z" style="fill:#49803c"/><polyline points="1029.64 987.03 1055.84 970.28 1039.98 988.46" style="fill:#49803c"/><polyline points="998.62 982.74 1025.4 961.86 1008.96 984.17" style="fill:#49803c"/><polyline points="1029.64 987.03 1050.31 1010.26 1039.98 988.46" style="fill:#365d2c"/><polyline points="998.62 982.74 1018.72 1010.1 1008.96 984.17" style="fill:#365d2c"/><path d="M1459,843.81l-34.72,5.84,11.43-33.3,6.23-25.93s-41,17.06-49.68,21.47-24,2.61-24,2.61l27.75-41.23c-27.86-2.94-35.82.86-35.82.86l-11.9-25.31,23.25-19.72c-.82-28.81-11.41-43.43-11.41-43.43s-31.48,29.65-43.6,37-17.49,14.83-17.49,14.83,4.23-24.24,4.39-30.27,12.11-45.68,12.11-45.68l-27.57,2.73a58.23,58.23,0,0,0-25.15-16.2c-74.63,68.09-87.73,177.27-45.74,226.79,43.06,50.77,157.47,54.67,237.21-13q4.27-3.63,8.32-7.25Z" style="fill:#fff"/><path d="M1454.38,861.89q4.27-3.63,8.32-7.25L1459,843.81l-34.72,5.84,11.43-33.3,6.23-25.93s-41,17.06-49.68,21.47c-5.24,2.67-12.89,3.06-18.12,3-6.4,5.27-13.09,10.21-19.92,15a472.52,472.52,0,0,1-50.51,30.72,636.32,636.32,0,0,1-67.91,30.66C1287.52,925.5,1384.33,921.29,1454.38,861.89Z" style="fill:#f3e0b7"/><path d="M1525.9,890.32c3.91-19.55-13.22-27.41-13.65-12.06a20.21,20.21,0,0,0-9.61-14.11,73.48,73.48,0,0,0-2,13.58,16,16,0,0,0-9.65-10.67c-1.31,4-3.81,9.09-3.2,15.42-2.08-12.25-10.49-22.92-21.52-27.05a62.73,62.73,0,0,0,0,23.26c-7.27-20.36-23.26-1.45-32,7.27-1.45-7.27,0-14.54,1.46-23.26-2.91,8.72-7.28,17.45-13.09,23.26-1.46-4.36-4.36-8.72-4.36-11.63-2.91,5.82-10.18,11.63-11.64,16-1.45-8.72-1.45-17.45-1.45-26.17-5.82,7.27-11.63,16-18.91,20.36-4.36-8.73-10.17-17.45-18.9-21.81-4.36,7.27-5.81,16-5.81,24.72,0-13.09-4.37-29.09-16-34.9,0,8.72,0,17.45-1.45,26.17-1.46-5.82-7.27-14.54-10.18-18.9,0,10.18,1.45,21.81-2.91,30.53-4.36-7.27-2.91-17.45,0-27.62-5.82,10.17-11.63,20.35-21.81,24.72-1.46-8.73,1.45-17.45,2.9-26.18-8.72,8.73-13.08,24.72-24.72,29.08a67.9,67.9,0,0,0-4.36-24.72c-4.36,8.73-5.81,20.36-16,23.27-4.37-7.27-2.91-17.45-2.91-26.17-7.27,7.27-11.63,20.35-20.36,27.62,0-11.63-1.45-24.72-13.09-29.08a46.7,46.7,0,0,0-2.9,24.72c-2.91-16-14.55-32-27.63-37.8,0,10.17,7.27,20.35,10.18,30.53-4.37-4.36-11.64-10.18-16-14.54-2.81,9.83-.2,21,1.3,30.92h-.8c-9.95-11-21.35-17.7-36.85-13.47a70.17,70.17,0,0,1,0-24.72c-2.91,10.18-8.73,18.9-17.45,21.81,0-4.36-1.46-8.72-1.46-13.09a165.64,165.64,0,0,1-17.79,17.19v128H1534.9V878.25A95.64,95.64,0,0,0,1525.9,890.32Z" style="fill:#5d9e43"/><path d="M1423.9,912.18c25.69-2.75,36.77-17,35.08-32.84s-15.54-27.43-41.23-24.69-52.13,31.47-51.79,34.63S1398.22,914.92,1423.9,912.18Z" style="fill:#365d2c"/><path d="M1366,889.28c-.34-3.16,26.11-31.88,51.79-34.63s39.53,8.8,41.23,24.69Z" style="fill:#49803c"/><polyline points="1425.98 882.86 1406.86 903.05 1416.7 883.86" style="fill:#49803c"/><polyline points="1453.81 879.89 1435.1 903.79 1444.54 880.88" style="fill:#49803c"/><polyline points="1425.98 882.86 1403.03 867.17 1416.7 883.86" style="fill:#365d2c"/><polyline points="1453.81 879.89 1430.47 860.49 1444.54 880.88" style="fill:#365d2c"/><path d="M1482.22,914.14c30,15.35,52.31,7.73,61.8-10.85s2.6-41.08-27.44-56.43-79.47-2.83-81.35.86S1452.18,898.8,1482.22,914.14Z" style="fill:#365d2c"/><path d="M1435.23,847.72c1.88-3.69,51.31-16.2,81.35-.86s36.93,37.85,27.44,56.43Z" style="fill:#49803c"/><polyline points="1505.42 883.57 1470.11 891.99 1494.57 878.03" style="fill:#49803c"/><polyline points="1537.98 900.21 1500.45 912.97 1527.13 894.66" style="fill:#49803c"/><polyline points="1505.42 883.57 1491.54 850.03 1494.57 878.03" style="fill:#365d2c"/><polyline points="1537.98 900.21 1526.32 862.32 1527.13 894.66" style="fill:#365d2c"/><path d="M580.07,982.72,594.25,963l10.58,21.87,9.55,15.74s11.8-28.28,13.91-34.67S638.77,953,638.77,953l6.44,33.69c15.08-12.1,17.13-17.83,17.13-17.83l18.14,6.62-1.82,21c14.41,13.72,26.71,15.74,26.71,15.74s1-29.84,3.39-39.31,1.37-15.77,1.37-15.77,9.71,13.93,12.56,17S739,1002.36,739,1002.36l12.18-14.74a40.29,40.29,0,0,0,20.2-4.28c3.48-69.65-43.17-129.52-87.81-133.38-45.78-4-103.75,49.75-110,121.64q-.33,3.85-.55,7.6Z" style="fill:#fff"/><path d="M573.57,971.6q-.33,3.85-.55,7.6l7.05,3.52L594.25,963l10.58,21.87,9.55,15.74s11.8-28.28,13.91-34.67c1.28-3.85,4.83-7.76,7.45-10.26.57-5.69,1.45-11.36,2.48-17A322.7,322.7,0,0,1,648,899a436,436,0,0,1,18.38-48C624.43,859.33,579,908.44,573.57,971.6Z" style="fill:#f3e0b7"/></svg>
