<svg id="Capa_1" data-name="Capa 1" xmlns="http://www.w3.org/2000/svg" viewBox="0 0 306.08 356.56">
  <path
    d="M306.08,189.45c0,92.29-68.1,167.11-152.11,167.11S1.85,281.74,1.85,189.45,70,22.35,154,22.35,306.08,97.16,306.08,189.45Z"
    style="fill:#693919"/>
  <path d="M306.08,175.9C306.08,268.19,238,343,154,343S1.85,268.19,1.85,175.9,70,8.8,154,8.8,306.08,83.62,306.08,175.9Z"
        style="fill:#955023"/>
  <path d="M304.23,167.1c0,92.29-68.1,167.1-152.12,167.1S0,259.39,0,167.1,68.1,0,152.11,0,304.23,74.81,304.23,167.1Z"
        style="fill:#693919"/>
  <path
    d="M294.42,163c0,84.09-62.05,152.26-138.6,152.26S17.21,247.13,17.21,163,79.27,10.78,155.82,10.78,294.42,79,294.42,163Z"
    style="fill:#955023"/>
  <ellipse cx="155.82" cy="163.04" rx="126.74" ry="139.23" style="fill:#392012"/>
</svg>
