<svg id="Capa_1" data-name="Capa 1" xmlns="http://www.w3.org/2000/svg" viewBox="0 0 252.18 255.22"><circle cx="126.09" cy="124.64" r="117.09" transform="translate(-21.17 223.36) rotate(-78.51)" style="fill:#4597a5"/><path d="M126.09,0A126.09,126.09,0,1,0,252.18,126.09,126.09,126.09,0,0,0,126.09,0Zm0,235.6A109.51,109.51,0,1,1,235.6,126.09,109.51,109.51,0,0,1,126.09,235.6Z" style="fill:#693919"/><path d="M126.09,2.7A120.36,120.36,0,1,0,246.45,123.06,120.36,120.36,0,0,0,126.09,2.7Zm0,224.89A104.53,104.53,0,1,1,230.62,123.06,104.53,104.53,0,0,1,126.09,227.59Z" style="fill:#955023"/><path d="M21.56,123.06A104.53,104.53,0,0,1,126.09,18.53V2.7a120.36,120.36,0,0,0,0,240.72V227.59A104.53,104.53,0,0,1,21.56,123.06Z" style="fill:#82461e"/><path d="M36.9,48.8c-5.62-.86-12.12-7.36-14.28-12.12-3.46,3.46,2.16,16.88,3.89,22.08" style="fill:#82461e"/><path d="M191,219.35c5.62-2.16,10.38,5.63,12.55,10,1.3-.87,4.76-3,5.63-4.76,1.73-3.9.43-1.3-.44-5.2-.86-2.16-3.46-8.22-3.89-9.09" style="fill:#955023"/><path d="M217.84,196.84c4.33-.43,9.09,2.17,12.56,4.33.86-1.3,2.16-3.89,3-5.19-5.2-.87-8.23-6.93-11.69-8.66" style="fill:#955023"/><path d="M13.59,35.9c4.16,5.62,9,6.26,12.48,3.69s4.28-7.4.11-13S11.68,18.71,11,19.22,9.42,30.28,13.59,35.9Z" style="fill:#487e3b"/><path d="M11,19.22c.69-.51,11,1.73,15.19,7.35s3.37,10.44-.11,13Z" style="fill:#5a9e44"/><polyline points="20.72 32.36 13.38 30.67 19.21 30.33" style="fill:#5a9e44"/><polyline points="25.23 38.46 17.08 37.36 23.73 36.42" style="fill:#5a9e44"/><polyline points="20.72 32.36 21.24 24.85 19.21 30.33" style="fill:#487e3b"/><polyline points="25.23 38.46 26.56 30.34 23.73 36.42" style="fill:#487e3b"/><path d="M14.08,45.74c7,.7,10.7-2.44,11.13-6.75s-2.58-8.14-9.54-8.85S.09,35.57,0,36.43,7.12,45,14.08,45.74Z" style="fill:#487e3b"/><path d="M0,36.43c.09-.86,8.7-7,15.67-6.29s10,4.54,9.54,8.85Z" style="fill:#5a9e44"/><polyline points="16.27 38.08 10.07 42.36 13.75 37.83" style="fill:#5a9e44"/><polyline points="23.82 38.85 17.52 44.14 21.3 38.59" style="fill:#5a9e44"/><polyline points="16.27 38.08 11.06 32.64 13.75 37.83" style="fill:#487e3b"/><polyline points="23.82 38.85 18.71 32.4 21.3 38.59" style="fill:#487e3b"/><path d="M212.05,240.55c.24-7-3.15-10.51-7.48-10.66S196.62,233,196.39,240s6.46,15.18,7.32,15.21S211.81,247.54,212.05,240.55Z" style="fill:#487e3b"/><path d="M203.71,255.22c-.86,0-7.56-8.21-7.32-15.21s3.86-10.27,8.18-10.12Z" style="fill:#5a9e44"/><polyline points="204.27 238.88 208.95 244.77 204.18 241.41" style="fill:#5a9e44"/><polyline points="204.53 231.3 210.22 237.23 204.44 233.82" style="fill:#5a9e44"/><polyline points="204.27 238.88 199.19 244.44 204.18 241.41" style="fill:#487e3b"/><polyline points="204.53 231.3 198.43 236.82 204.44 233.82" style="fill:#487e3b"/></svg>