<svg id="Capa_1" data-name="Capa 1" xmlns="http://www.w3.org/2000/svg" viewBox="0 0 533.39 171.02"><path d="M24,79.07c11.9-1.26,18.3,4.09,19.08,11.45s-4.36,13.92-16.26,15.18S.16,96.54,0,95.08,12.1,80.33,24,79.07Z" style="fill:#487e3b"/><path d="M0,95.08C.16,96.54,14.92,107,26.81,105.7s17-7.83,16.26-15.18Z" style="fill:#5a9e44"/><polyline points="27.79 92.13 17.17 84.86 23.49 92.59" style="fill:#5a9e44"/><polyline points="40.68 90.77 29.88 81.78 36.38 91.22" style="fill:#5a9e44"/><polyline points="27.79 92.13 18.93 101.47 23.49 92.59" style="fill:#487e3b"/><polyline points="40.68 90.77 32 101.82 36.38 91.22" style="fill:#487e3b"/><path d="M57.71,24c11.58,17.23,8.56,31.4-2.09,38.56S30.7,67.17,19.11,49.94,11.55,1.58,13.66.16,46.12,6.77,57.71,24Z" style="fill:#487e3b"/><path d="M13.66.16c-2.11,1.42-6.13,32.55,5.45,49.78S45,69.73,55.62,62.56Z" style="fill:#5a9e44"/><polyline points="40.73 40.42 43.28 18.22 36.55 34.2" style="fill:#5a9e44"/><polyline points="53.29 59.1 58.33 35.23 49.1 52.87" style="fill:#5a9e44"/><polyline points="40.73 40.42 19.21 34.41 36.55 34.2" style="fill:#487e3b"/><polyline points="53.29 59.1 29.28 54.75 49.1 52.87" style="fill:#487e3b"/><path d="M514,76.64h-453V92.4l57.43,7,40.25,3.89,353.66,31.08C515.1,156.05,526.4,171,533.39,171V41.53C526.56,41.53,516.9,55.79,514,76.64Z" style="fill:#955023"/><path d="M532.79,69.79c.18-1.34.39-2.66.6-4V41.53c-6,0-11.38,11.2-14.55,28.26Z" style="fill:#82461e"/><polygon points="185.26 98.46 75.98 85.54 75.98 76.64 60.92 76.64 60.92 92.39 185.26 106.27 185.26 98.46" style="fill:#82461e"/><path d="M532.57,127.51,173.66,96.44l-9.3,7.41,349.4,30.52C516.61,156.05,526.4,171,533.39,171V133Q532.94,130.35,532.57,127.51Z" style="fill:#82461e"/><path d="M311.43,88.43a2.47,2.47,0,0,0,2.47,2.46H523.65a2.46,2.46,0,0,0,2.46-2.46h0A2.46,2.46,0,0,0,523.65,86H313.9a2.47,2.47,0,0,0-2.47,2.47Z" style="fill:#693919"/><path d="M529.45,97.45a1,1,0,0,0-1-1H408a1,1,0,0,0-1,1h0a1,1,0,0,0,1,1H528.44a1,1,0,0,0,1-1Z" style="fill:#693919"/><path d="M367.94,112.65a2.19,2.19,0,0,1,2.19-2.19H527.26a2.19,2.19,0,0,1,2.19,2.19h0a2.19,2.19,0,0,1-2.19,2.19H370.13a2.19,2.19,0,0,1-2.19-2.19Z" style="fill:#693919"/><polyline points="75.98 76.64 52.42 53.17 48.67 59.03 62.33 80.23 38.17 88.43 38.17 95.97 75.43 94.02" style="fill:#82461e"/><path d="M470.33,61.46l-7.69.3-.1-.07a19.88,19.88,0,0,0,2-8.53,19.17,19.17,0,0,0-.34-3.56l11.56-.3-.32-4.5-12.63.32a26.72,26.72,0,0,0-5.48-7.88l10.18,2.56,2.89-4.16-4.55-1.15.58,0L465.48,30l-13.61,1-2.8-.7,13.13-8.13L456.82,19l-5.91,3.66-2-1.38-9.56,5q-2.4-.89-5-1.6l1.74-5.79-7.38-.81-.11.35L427,15.66l-7.07,1.5L423,22.42a87.51,87.51,0,0,0-10.75-.67h-1.79L412,12.13l-7.46-.44-1.64,10.06H388.22l-5.05-2.89.91-4.59-7.45-.53L376.39,15l-2.33-1.33-5.17,3.27,6.39,3.66-.23,1.17h-.81l-3.83-2-2.9,2h-2.64l-4.6-4.86-4.45,1.52-6.13-.15,0,.35L347.39,16l-6.65,2.08,3.19,3.69h-11.6l-.54-8-7.5.19.54,7.83H304.7l-.12-3.58-7.5.09.05,1.25-2.61-1.12-4,3.36h-8.42l-4.7-2.45-3.56,2.45h-9.91l.25-3.77-7.49-.18,0,.36-2.27-2.64-6.66,2.08,3.59,4.15h-12l-.58-8.48-7.49.19.56,8.29H211.7l-.13-4-7.5.09,0,1.25-2.6-1.12-4.38,3.66.38.16h-10.8l.46-2.17L179.73,19l-.08.35-1.89-2.74-6.93,1.73,2.35,3.39H161.92l.61-8.16-7.5-.2-.62,8.36h-19.1l-1-.52.5-4.62-7.48-.29-.14,1.25-2.43-1.25-4.88,3.42,4.08,2.1a83.85,83.85,0,0,0-9.7,1l-3-2.82-6.31,2.44,2,1.89a67.46,67.46,0,0,0-8.75,2.9L85,19l-5.38,3.14L92.3,30c-.4.22-.78.45-1.16.67l-1.21.3-13.6-1-.93,4.48.59,0-4.56,1.15,2.89,4.16L82,37.87a26.42,26.42,0,0,0-4.86,7.2L66.39,44.8l-.32,4.5,9.66.25a19.72,19.72,0,0,0-.35,3.61,20,20,0,0,0,2,8.53l-5.86-.23L71,66l2.08.08L71,67.51l5.71,2.92L81,67.38a34.64,34.64,0,0,0,5,4.79l-8.91,3.44,4.05,3.79,9.88-3.82c9.42,5.56,22.32,9,36.56,9H412.27c14.62,0,27.83-3.61,37.31-9.43l11,4.27,4.06-3.79-10.21-4a32.83,32.83,0,0,0,5.08-5.14l5.54,3.91,5.71-2.92L468.72,66,470.8,66Z" style="fill:#c8862a"/><path d="M458.11,74.43l-10.31.27c.08.45.14.91.19,1.36q.81-.45,1.59-.93l11,4.27,4.06-3.79L458,73Z" style="fill:#f3b22d"/><path d="M470.33,61.46l-7.69.3-.1-.07a19.88,19.88,0,0,0,2-8.53,19.17,19.17,0,0,0-.34-3.56l11.56-.3-.32-4.5-12.63.32a26.72,26.72,0,0,0-5.48-7.88l10.18,2.56,2.89-4.16-4.55-1.15.58,0L465.48,30l-13.61,1-2.8-.7,13.13-8.13L456.82,19l-5.91,3.66-2-1.38-9.56,5q-2.4-.89-5-1.6l1.74-5.79-7.38-.81-.11.35L427,15.66l-7.07,1.5L423,22.42a87.51,87.51,0,0,0-10.75-.67h-1.79L412,12.13l-7.46-.44-1.64,10.06H388.22l-5.05-2.89.91-4.59-7.45-.53L376.39,15l-2.33-1.33-5.17,3.27,6.39,3.66-.23,1.17h-.81l-3.83-2-2.9,2h-2.64l-4.6-4.86-4.45,1.52-6.13-.15,0,.35L347.39,16l-6.65,2.08,3.19,3.69h-11.6l-.54-8-7.5.19.54,7.83H304.7l-.12-3.58-7.5.09.05,1.25-2.61-1.12-4,3.36h-8.42l-4.7-2.45-3.56,2.45h-9.91l.25-3.77-7.49-.18,0,.36-2.27-2.64-6.66,2.08,3.59,4.15h-12l-.58-8.48-7.49.19.56,8.29H211.7l-.13-4-7.5.09,0,1.25-2.6-1.12-4.38,3.66.38.16h-10.8l.46-2.17L179.73,19l-.08.35-1.89-2.74-6.93,1.73,2.35,3.39H161.92l.61-8.16-7.5-.2-.62,8.36h-19.1l-1-.52.5-4.62-7.48-.29-.14,1.25-2.43-1.25-4.88,3.42,4.08,2.1a83.85,83.85,0,0,0-9.7,1l-3-2.82-6.31,2.44,2,1.89a67.46,67.46,0,0,0-8.75,2.9L85,19l-5.38,3.14L92.3,30c-.4.22-.78.45-1.16.67l-1.21.3-13.6-1-.93,4.48.59,0-4.56,1.15,2.89,4.16L82,37.87a26.42,26.42,0,0,0-4.86,7.2L66.39,44.8l-.32,4.5,9.66.25a19.72,19.72,0,0,0-.35,3.61,20,20,0,0,0,2,8.53l-5.86-.23L71,66l2.08.08L71,67.51l5.71,2.92L81,67.38a34.64,34.64,0,0,0,5,4.79l-8.91,3.44,4.05,3.79,9.88-3.82a57.81,57.81,0,0,0,10.09,4.65,17.07,17.07,0,0,1,.15-5.57l-8.61-.23L93,70.37l9.58.25a23.56,23.56,0,0,1,4.32-6.49L100,65.86l-2.57-3.75,4.06-1L101,61l.82-4,12.14.91,1.07-.27,1-.6L104.76,50l4.8-2.83,11.79,7.38a61,61,0,0,1,7.8-2.61l-1.8-1.71L133,48l2.68,2.53a77.24,77.24,0,0,1,8.65-.86l-3.64-1.89L145,44.69l2.17,1.13.12-1.13L154,45l-.45,4.16.91.47h17l.55-7.54,6.69.18-.54,7.36h10l-2.09-3.06L192.31,45,194,47.44l.07-.31,6.64.51-.41,2h9.63l-.33-.14,3.9-3.31,2.32,1,0-1.13,6.69-.09.12,3.65h18l-.5-7.48,6.68-.17.51,7.65h10.67l-3.2-3.74L260.66,44l2,2.38,0-.32,6.69.16-.23,3.4H278l3.17-2.21,4.19,2.21h7.51l3.58-3,2.32,1,0-1.13,6.69-.08.11,3.23h17.95L323,42.52l6.68-.16.49,7.23h10.35l-2.85-3.33,5.93-1.87,2,2.37,0-.32,5.46.13,4-1.37,4.11,4.39h2.35l2.59-1.8,3.41,1.8h.72l.21-1.06-5.7-3.3,4.62-2.94,2.07,1.2.22-1.13,6.64.48L375.55,47l4.51,2.6h13.13l1.46-9.07,6.65.4-1.39,8.67h1.6a74.75,74.75,0,0,1,9.58.61l-2.76-4.75,6.3-1.36,1.47,2.53.1-.32,6.58.72-1.55,5.23c1.52.44,3,.91,4.44,1.44l8.52-4.5L436,50.43l5.27-3.3L446,50l-11.71,7.33,2.5.63L449,57l.83,4-.53,0,4.07,1-2.58,3.75-9.09-2.3a24.14,24.14,0,0,1,4.89,7.11l9.34-.25a31.64,31.64,0,0,0,3.65-3.9l5.54,3.91,5.71-2.92L468.72,66,470.8,66Z" style="fill:#f3b22d"/><polygon points="114.58 71.08 119.55 70.06 110.91 54.69 105.94 55.7 114.58 71.08" style="fill:#f3b22d"/><polygon points="205.79 57.14 206.47 60.27 233.24 58.19 232.57 55.06 205.79 57.14" style="fill:#f3b22d"/><polygon points="231.34 79.56 234.8 77.18 214.45 66.51 211 68.89 231.34 79.56" style="fill:#f3b22d"/><polygon points="112.74 68 116.72 70.06 134.35 57.76 130.37 55.7 112.74 68" style="fill:#f3b22d"/><polygon points="145.9 78.89 148.85 76.28 126.49 67.18 123.55 69.79 145.9 78.89" style="fill:#f3b22d"/><polygon points="233.24 63.71 234.76 66.73 260.61 62.05 259.1 59.03 233.24 63.71" style="fill:#f3b22d"/><polygon points="164.07 71.08 169.04 70.06 160.4 54.69 155.43 55.7 164.07 71.08" style="fill:#f3b22d"/><polygon points="195.41 65.85 198.15 63.16 175.1 54.7 172.37 57.39 195.41 65.85" style="fill:#f3b22d"/><polygon points="179.97 73.22 182.69 75.92 205.79 67.52 203.07 64.82 179.97 73.22" style="fill:#f3b22d"/><polygon points="259.69 71.13 264.67 70.12 256.03 54.74 251.05 55.75 259.69 71.13" style="fill:#f3b22d"/><polygon points="350.91 57.2 351.58 60.33 378.36 58.24 377.69 55.12 350.91 57.2" style="fill:#f3b22d"/><polygon points="376.46 79.61 379.92 77.24 359.57 66.56 356.12 68.94 376.46 79.61" style="fill:#f3b22d"/><polygon points="257.86 68.05 261.84 70.11 279.47 57.82 275.49 55.76 257.86 68.05" style="fill:#f3b22d"/><polygon points="291.02 78.95 293.96 76.33 271.61 67.23 268.67 69.84 291.02 78.95" style="fill:#f3b22d"/><polygon points="378.36 63.76 379.88 66.79 405.73 62.1 404.21 59.08 378.36 63.76" style="fill:#f3b22d"/><polygon points="309.18 71.13 314.16 70.12 305.52 54.74 300.55 55.75 309.18 71.13" style="fill:#f3b22d"/><polygon points="340.53 65.9 343.26 63.21 320.22 54.75 317.48 57.45 340.53 65.9" style="fill:#f3b22d"/><polygon points="325.08 73.27 327.8 75.97 350.91 67.58 348.19 64.88 325.08 73.27" style="fill:#f3b22d"/><polygon points="397.9 69.16 402.88 68.15 394.24 52.77 389.26 53.78 397.9 69.16" style="fill:#f3b22d"/><polygon points="108.85 43.8 109.53 46.93 136.3 44.85 135.63 41.72 108.85 43.8" style="fill:#c8862a"/><polygon points="134.41 66.22 137.86 63.84 117.51 53.17 114.06 55.55 134.41 66.22" style="fill:#c8862a"/><polygon points="396.07 66.08 400.05 68.14 417.68 55.85 413.7 53.79 396.07 66.08" style="fill:#f3b22d"/><polygon points="429.23 76.98 432.17 74.37 409.82 65.26 406.87 67.88 429.23 76.98" style="fill:#f3b22d"/><polygon points="136.3 50.37 137.82 53.39 163.67 48.71 162.16 45.69 136.3 50.37" style="fill:#c8862a"/><polygon points="447.39 69.16 452.37 68.15 443.73 52.77 438.75 53.78 447.39 69.16" style="fill:#f3b22d"/><polygon points="98.47 52.51 101.21 49.81 78.16 41.36 75.43 44.05 98.47 52.51" style="fill:#c8862a"/><polygon points="83.03 59.88 85.75 62.58 108.85 54.18 106.13 51.48 83.03 59.88" style="fill:#c8862a"/><polygon points="139.29 29.06 139.97 32.19 166.74 30.11 166.07 26.98 139.29 29.06" style="fill:#c8862a"/><polygon points="164.84 51.48 168.3 49.1 147.95 38.43 144.5 40.81 164.84 51.48" style="fill:#c8862a"/><polygon points="166.74 35.63 168.26 38.65 194.11 33.97 192.6 30.95 166.74 35.63" style="fill:#c8862a"/><polygon points="128.91 37.77 131.65 35.07 108.6 26.62 105.87 29.31 128.91 37.77" style="fill:#c8862a"/><polygon points="113.47 45.14 116.19 47.84 139.29 39.44 136.57 36.74 113.47 45.14" style="fill:#c8862a"/><polygon points="199.28 32.54 199.96 35.67 226.74 33.59 226.06 30.46 199.28 32.54" style="fill:#c8862a"/><polygon points="224.84 54.96 228.29 52.58 207.95 41.91 204.49 44.29 224.84 54.96" style="fill:#c8862a"/><polygon points="226.74 39.11 228.25 42.13 254.11 37.45 252.59 34.43 226.74 39.11" style="fill:#c8862a"/><polygon points="188.91 41.25 191.64 38.55 168.59 30.1 165.86 32.79 188.91 41.25" style="fill:#c8862a"/><polygon points="173.46 48.62 176.18 51.32 199.28 42.92 196.57 40.22 173.46 48.62" style="fill:#c8862a"/><polygon points="253.97 26.75 254.65 29.89 281.42 27.8 280.75 24.67 253.97 26.75" style="fill:#c8862a"/><polygon points="279.52 49.17 282.98 46.79 262.63 36.12 259.18 38.5 279.52 49.17" style="fill:#c8862a"/><polygon points="281.42 33.32 282.94 36.34 308.79 31.66 307.28 28.64 281.42 33.32" style="fill:#c8862a"/><polygon points="243.59 35.46 246.33 32.77 223.28 24.31 220.54 27 243.59 35.46" style="fill:#c8862a"/><polygon points="228.15 42.83 230.86 45.53 253.97 37.13 251.25 34.43 228.15 42.83" style="fill:#c8862a"/><polygon points="314.39 32.3 315.06 35.44 341.84 33.35 341.17 30.22 314.39 32.3" style="fill:#c8862a"/><polygon points="339.94 54.72 343.39 52.34 323.05 41.67 319.6 44.05 339.94 54.72" style="fill:#c8862a"/><polygon points="341.84 38.87 343.35 41.89 369.21 37.21 367.69 34.19 341.84 38.87" style="fill:#c8862a"/><polygon points="304.01 41.01 306.75 38.32 283.7 29.86 280.96 32.55 304.01 41.01" style="fill:#c8862a"/><polygon points="288.56 48.38 291.28 51.08 314.39 42.68 311.67 39.98 288.56 48.38" style="fill:#c8862a"/><polygon points="374.76 25.48 375.43 28.61 402.21 26.52 401.54 23.39 374.76 25.48" style="fill:#c8862a"/><polygon points="400.31 47.89 403.76 45.51 383.42 34.84 379.97 37.22 400.31 47.89" style="fill:#c8862a"/><polygon points="402.21 32.04 403.73 35.06 429.58 30.38 428.06 27.36 402.21 32.04" style="fill:#c8862a"/><polygon points="364.38 34.18 367.12 31.49 344.07 23.03 341.33 25.72 364.38 34.18" style="fill:#c8862a"/><polygon points="348.93 41.55 351.65 44.25 374.76 35.85 372.04 33.15 348.93 41.55" style="fill:#c8862a"/><polygon points="406.98 36.95 407.65 40.08 434.43 37.99 433.76 34.86 406.98 36.95" style="fill:#c8862a"/><polygon points="432.53 59.36 435.98 56.99 415.64 46.31 412.19 48.69 432.53 59.36" style="fill:#c8862a"/><polygon points="434.43 43.51 435.94 46.53 461.8 41.85 460.29 38.83 434.43 43.51" style="fill:#c8862a"/><polygon points="396.6 45.65 399.33 42.96 376.29 34.5 373.55 37.2 396.6 45.65" style="fill:#c8862a"/><polygon points="381.15 53.02 383.87 55.72 406.98 47.33 404.26 44.63 381.15 53.02" style="fill:#c8862a"/></svg>