<svg id="Capa_1" data-name="Capa 1" xmlns="http://www.w3.org/2000/svg" viewBox="0 0 533.39 171.02"><path d="M465.44,135.81c-14.68-2.7-23.15,3.34-24.82,12.42s4.1,17.75,18.78,20.45,34.05-8.87,34.38-10.67S480.12,138.51,465.44,135.81Z" style="fill:#487e3b"/><path d="M493.78,158c-.33,1.8-19.7,13.37-34.38,10.67S439,157.31,440.62,148.23Z" style="fill:#5a9e44"/><polyline points="459.48 151.7 473.38 143.66 464.78 152.68" style="fill:#5a9e44"/><polyline points="443.57 148.78 457.87 138.62 448.87 149.75" style="fill:#5a9e44"/><polyline points="459.48 151.7 469.61 164.16 464.78 152.68" style="fill:#487e3b"/><polyline points="443.57 148.78 453.31 163.36 448.87 149.75" style="fill:#487e3b"/><path d="M448,132.59c-6.38,8.65-5.13,16,.22,20s12.78,2.95,19.16-5.7,5-24.84,3.94-25.63S454.38,123.94,448,132.59Z" style="fill:#487e3b"/><path d="M471.32,121.25c1.06.79,2.44,17-3.94,25.63s-13.81,9.65-19.16,5.7Z" style="fill:#5a9e44"/><polyline points="456.41 141.47 455.6 129.93 458.72 138.34" style="fill:#5a9e44"/><polyline points="449.5 150.84 447.43 138.38 451.8 147.72" style="fill:#5a9e44"/><polyline points="456.41 141.47 467.68 138.84 458.72 138.34" style="fill:#487e3b"/><polyline points="449.5 150.84 462.01 149.14 451.8 147.72" style="fill:#487e3b"/><path d="M481.75,45.05c-11.59,17.24-8.57,31.4,2.09,38.57s24.91,4.61,36.5-12.62,7.57-48.36,5.45-49.78S493.33,27.82,481.75,45.05Z" style="fill:#487e3b"/><path d="M525.79,21.22c2.12,1.42,6.13,32.55-5.45,49.78s-25.85,19.78-36.5,12.62Z" style="fill:#5a9e44"/><polyline points="498.72 61.48 496.17 39.28 502.9 55.26" style="fill:#5a9e44"/><polyline points="486.16 80.16 481.13 56.28 490.35 73.93" style="fill:#5a9e44"/><polyline points="498.72 61.48 520.24 55.46 502.9 55.26" style="fill:#487e3b"/><polyline points="486.16 80.16 510.17 75.81 490.35 73.93" style="fill:#487e3b"/><path d="M19.42,75.19H487.47V91L415,98l36.14,54.46-7,4.66-69.37-55.23L21.13,132.92C18.28,154.6,7,169.57,0,169.57V40.08C6.82,40.08,16.49,54.34,19.42,75.19Z" style="fill:#955023"/><path d="M.6,68.34c-.19-1.34-.39-2.66-.6-4V40.08c6.05,0,11.38,11.2,14.55,28.26Z" style="fill:#82461e"/><polygon points="436.11 145.56 399.97 91.09 472.41 84.09 472.41 75.19 487.47 75.19 487.47 90.95 415.03 97.95 451.17 152.41 444.16 157.07 432.61 147.88 436.11 145.56" style="fill:#82461e"/><path d="M.82,126.06,359.72,95,369,102.4,19.63,132.92C16.78,154.6,7,169.57,0,169.57v-38Q.45,128.9.82,126.06Z" style="fill:#82461e"/><path d="M222,87a2.47,2.47,0,0,1-2.46,2.47H9.74A2.48,2.48,0,0,1,7.27,87h0a2.47,2.47,0,0,1,2.47-2.47H219.49A2.46,2.46,0,0,1,222,87Z" style="fill:#693919"/><path d="M3.94,96a1,1,0,0,1,1-1H125.44a1,1,0,0,1,1,1h0a1,1,0,0,1-1,1H5a1,1,0,0,1-1-1Z" style="fill:#693919"/><path d="M165.45,111.2a2.19,2.19,0,0,0-2.19-2.19H6.13a2.19,2.19,0,0,0-2.19,2.19h0a2.19,2.19,0,0,0,2.19,2.19H163.26a2.19,2.19,0,0,0,2.19-2.19Z" style="fill:#693919"/><path d="M63.06,60l7.68.3.1-.07a20,20,0,0,1-2-8.53,19.17,19.17,0,0,1,.34-3.56l-11.56-.3.32-4.5,12.63.32a26.72,26.72,0,0,1,5.48-7.88L65.9,38.35,63,34.19,67.57,33,67,33l.93-4.48,13.61,1,2.8-.7L71.19,20.71l5.38-3.14,5.91,3.66,2-1.38,9.56,5c1.61-.59,3.27-1.11,5-1.6l-1.74-5.79,7.38-.81.11.36,1.65-2.8,7.06,1.5L110.37,21a87.54,87.54,0,0,1,10.75-.66h1.79l-1.56-9.63,7.46-.44,1.64,10.07h14.72l5.05-2.89-.91-4.6,7.45-.53.24,1.24,2.32-1.32,5.18,3.26-6.39,3.66.23,1.18h.81l3.83-2,2.9,2h2.64l4.6-4.87L177.57,17l6.13-.15,0,.36L186,14.53l6.65,2.08-3.19,3.7h11.59l.55-8,7.49.19-.53,7.84h20.12l.13-3.59,7.5.09-.05,1.25,2.61-1.12,4,3.37h8.42L256,17.85l3.56,2.46h9.92l-.25-3.78,7.49-.18,0,.36L279,14.07l6.66,2.08-3.59,4.16h12l.58-8.49,7.49.19-.56,8.3h20.14l.13-4,7.5.09,0,1.25,2.6-1.12,4.38,3.66-.38.17h10.8l-.46-2.18,7.44-.56.08.35,1.89-2.74,6.93,1.73-2.35,3.4h11.26l-.61-8.17,7.49-.2.62,8.37h19.11l1-.53-.5-4.62,7.48-.29.14,1.25,2.43-1.25,4.88,3.43-4.08,2.09a83.46,83.46,0,0,1,9.69,1l3-2.82L428.46,21l-2,1.89a66.81,66.81,0,0,1,8.74,2.9l13.22-8.19,5.38,3.14-12.69,7.86,1.16.67,1.21.3,13.6-1L458,33l-.59,0L462,34.19l-2.89,4.16-7.67-1.93a26.15,26.15,0,0,1,4.85,7.2L467,43.35l.32,4.5-9.65.25a19.72,19.72,0,0,1,.35,3.61,20,20,0,0,1-2,8.53l5.86-.23.48,4.5-2.08.08,2.08,1.47L456.68,69l-4.33-3a35.7,35.7,0,0,1-5,4.79l8.91,3.44L452.21,78l-9.88-3.81c-9.42,5.55-22.32,9-36.56,9H121.12c-14.62,0-27.83-3.61-37.31-9.42L72.77,78l-4.06-3.79,10.21-4a32.83,32.83,0,0,1-5.08-5.14L68.3,69l-5.71-2.92,2.08-1.47-2.08-.08Z" style="fill:#c8862a"/><path d="M75.28,73l10.31.26c-.09.45-.14.91-.2,1.36l-1.58-.92L72.77,78l-4.06-3.79,6.66-2.57Z" style="fill:#f3b22d"/><path d="M63.06,60l7.68.3.1-.07a20,20,0,0,1-2-8.53,19.17,19.17,0,0,1,.34-3.56l-11.56-.3.32-4.5,12.63.32a26.72,26.72,0,0,1,5.48-7.88L65.9,38.35,63,34.19,67.57,33,67,33l.93-4.48,13.61,1,2.8-.7L71.19,20.71l5.38-3.14,5.91,3.66,2-1.38,9.56,5c1.61-.59,3.27-1.11,5-1.6l-1.74-5.79,7.38-.81.11.36,1.65-2.8,7.06,1.5L110.37,21a87.54,87.54,0,0,1,10.75-.66h1.79l-1.56-9.63,7.46-.44,1.64,10.07h14.72l5.05-2.89-.91-4.6,7.45-.53.24,1.24,2.32-1.32,5.18,3.26-6.39,3.66.23,1.18h.81l3.83-2,2.9,2h2.64l4.6-4.87L177.57,17l6.13-.15,0,.36L186,14.53l6.65,2.08-3.19,3.7h11.59l.55-8,7.49.19-.53,7.84h20.12l.13-3.59,7.5.09-.05,1.25,2.61-1.12,4,3.37h8.42L256,17.85l3.56,2.46h9.92l-.25-3.78,7.49-.18,0,.36L279,14.07l6.66,2.08-3.59,4.16h12l.58-8.49,7.49.19-.56,8.3h20.14l.13-4,7.5.09,0,1.25,2.6-1.12,4.38,3.66-.38.17h10.8l-.46-2.18,7.44-.56.08.35,1.89-2.74,6.93,1.73-2.35,3.4h11.26l-.61-8.17,7.49-.2.62,8.37h19.11l1-.53-.5-4.62,7.48-.29.14,1.25,2.43-1.25,4.88,3.43-4.08,2.09a83.46,83.46,0,0,1,9.69,1l3-2.82L428.46,21l-2,1.89a66.81,66.81,0,0,1,8.74,2.9l13.22-8.19,5.38,3.14-12.69,7.86,1.16.67,1.21.3,13.6-1L458,33l-.59,0L462,34.19l-2.89,4.16-7.67-1.93a26.15,26.15,0,0,1,4.85,7.2L467,43.35l.32,4.5-9.65.25a19.72,19.72,0,0,1,.35,3.61,20,20,0,0,1-2,8.53l5.86-.23.48,4.5-2.08.08,2.08,1.47L456.68,69l-4.33-3a35.7,35.7,0,0,1-5,4.79l8.91,3.44L452.21,78l-9.88-3.81a58.53,58.53,0,0,1-10.09,4.64,17.69,17.69,0,0,0,.16-2.31,16.84,16.84,0,0,0-.32-3.26L440.7,73l-.29-4.07-9.58.25a23.38,23.38,0,0,0-4.33-6.49l6.84,1.73,2.58-3.75-4.06-1,.52,0-.83-4-12.13.92-1.08-.28-1-.6,11.32-7.09-4.8-2.83L412,53.06a61.49,61.49,0,0,0-7.8-2.61l1.8-1.71-5.63-2.19-2.68,2.53a77.24,77.24,0,0,0-8.65-.86l3.64-1.89-4.35-3.09-2.17,1.13-.12-1.13-6.68.27.45,4.16-.91.47h-17l-.56-7.54-6.68.18.54,7.36h-10l2.09-3.06-6.18-1.56L339.39,46l-.07-.32-6.64.51.41,2h-9.63l.33-.14-3.9-3.31-2.32,1,0-1.13-6.69-.08-.12,3.64h-18l.5-7.48-6.68-.16-.52,7.64H275.46l3.2-3.74-5.93-1.87-2,2.37,0-.32-6.69.16.23,3.4h-8.85l-3.18-2.21L248,48.14H240.5l-3.58-3-2.33,1,0-1.13-6.69-.08-.11,3.23h-18l.48-7.06-6.68-.17-.49,7.23H192.84l2.85-3.33-5.94-1.87-2,2.37,0-.32-5.46.13-4-1.37-4.11,4.39h-2.35l-2.59-1.8-3.41,1.8h-.73l-.2-1.06,5.7-3.3L166,40.84,163.89,42l-.22-1.12-6.64.47.81,4.15-4.51,2.6H140.2l-1.46-9.07-6.66.4,1.4,8.67h-1.6a74.75,74.75,0,0,0-9.58.61L125.06,44l-6.3-1.36-1.47,2.53-.1-.32-6.58.73,1.55,5.22c-1.52.44-3,.91-4.44,1.44l-8.53-4.5L97.42,49l-5.27-3.3-4.81,2.83,11.71,7.33-2.49.64-12.14-.92-.83,4,.53,0-4.07,1,2.58,3.75,9.09-2.3a24.14,24.14,0,0,0-4.89,7.11L77.49,69a30.89,30.89,0,0,1-3.65-3.9L68.3,69l-5.71-2.92,2.08-1.47-2.08-.08Z" style="fill:#f3b22d"/><polygon points="418.81 69.63 413.84 68.61 422.48 53.24 427.45 54.25 418.81 69.63" style="fill:#f3b22d"/><polygon points="327.6 55.7 326.92 58.83 300.15 56.74 300.82 53.61 327.6 55.7" style="fill:#f3b22d"/><polygon points="302.04 78.11 298.59 75.73 318.94 65.06 322.39 67.44 302.04 78.11" style="fill:#f3b22d"/><polygon points="420.64 66.55 416.67 68.61 399.04 56.31 403.01 54.25 420.64 66.55" style="fill:#f3b22d"/><polygon points="387.49 77.45 384.54 74.83 406.9 65.73 409.84 68.34 387.49 77.45" style="fill:#f3b22d"/><polygon points="300.15 62.26 298.63 65.28 272.78 60.6 274.29 57.58 300.15 62.26" style="fill:#f3b22d"/><polygon points="369.32 69.63 364.35 68.61 372.99 53.24 377.96 54.25 369.32 69.63" style="fill:#f3b22d"/><polygon points="337.98 64.4 335.24 61.71 358.29 53.25 361.02 55.94 337.98 64.4" style="fill:#f3b22d"/><polygon points="353.42 71.77 350.7 74.47 327.6 66.07 330.31 63.37 353.42 71.77" style="fill:#f3b22d"/><polygon points="273.69 69.68 268.72 68.67 277.36 53.29 282.33 54.3 273.69 69.68" style="fill:#f3b22d"/><polygon points="182.48 55.75 181.81 58.88 155.03 56.8 155.7 53.67 182.48 55.75" style="fill:#f3b22d"/><polygon points="156.93 78.17 153.47 75.79 173.82 65.11 177.27 67.49 156.93 78.17" style="fill:#f3b22d"/><polygon points="275.53 66.6 271.55 68.66 253.92 56.37 257.9 54.31 275.53 66.6" style="fill:#f3b22d"/><polygon points="242.37 77.5 239.42 74.89 261.78 65.78 264.72 68.39 242.37 77.5" style="fill:#f3b22d"/><polygon points="155.03 62.31 153.51 65.34 127.66 60.66 129.17 57.63 155.03 62.31" style="fill:#f3b22d"/><polygon points="224.21 69.68 219.23 68.67 227.87 53.29 232.84 54.3 224.21 69.68" style="fill:#f3b22d"/><polygon points="192.86 64.45 190.12 61.76 213.17 53.3 215.91 56 192.86 64.45" style="fill:#f3b22d"/><polygon points="208.3 71.82 205.59 74.53 182.48 66.13 185.2 63.43 208.3 71.82" style="fill:#f3b22d"/><polygon points="135.49 67.71 130.51 66.7 139.15 51.32 144.13 52.33 135.49 67.71" style="fill:#f3b22d"/><polygon points="424.54 42.35 423.86 45.48 397.08 43.4 397.76 40.27 424.54 42.35" style="fill:#c8862a"/><polygon points="398.98 64.77 395.53 62.39 415.88 51.72 419.33 54.1 398.98 64.77" style="fill:#c8862a"/><polygon points="137.32 64.63 133.34 66.69 115.71 54.4 119.69 52.34 137.32 64.63" style="fill:#f3b22d"/><polygon points="104.16 75.53 101.22 72.92 123.57 63.81 126.52 66.43 104.16 75.53" style="fill:#f3b22d"/><polygon points="397.08 48.92 395.57 51.94 369.72 47.26 371.23 44.24 397.08 48.92" style="fill:#c8862a"/><polygon points="86 67.71 81.02 66.7 89.66 51.32 94.64 52.33 86 67.71" style="fill:#f3b22d"/><polygon points="434.91 51.06 432.18 48.37 455.23 39.91 457.96 42.6 434.91 51.06" style="fill:#c8862a"/><polygon points="450.36 58.43 447.64 61.13 424.54 52.73 427.25 50.03 450.36 58.43" style="fill:#c8862a"/><polygon points="394.1 27.61 393.42 30.74 366.65 28.66 367.32 25.53 394.1 27.61" style="fill:#c8862a"/><polygon points="368.54 50.03 365.09 47.65 385.44 36.98 388.89 39.36 368.54 50.03" style="fill:#c8862a"/><polygon points="366.65 34.18 365.13 37.2 339.28 32.52 340.79 29.5 366.65 34.18" style="fill:#c8862a"/><polygon points="404.48 36.32 401.74 33.63 424.79 25.17 427.52 27.86 404.48 36.32" style="fill:#c8862a"/><polygon points="419.92 43.69 417.2 46.39 394.1 37.99 396.81 35.29 419.92 43.69" style="fill:#c8862a"/><polygon points="334.1 31.09 333.43 34.22 306.65 32.14 307.33 29.01 334.1 31.09" style="fill:#c8862a"/><polygon points="308.55 53.51 305.1 51.13 325.44 40.46 328.89 42.84 308.55 53.51" style="fill:#c8862a"/><polygon points="306.65 37.66 305.14 40.68 279.28 36 280.8 32.98 306.65 37.66" style="fill:#c8862a"/><polygon points="344.48 39.8 341.75 37.1 364.79 28.65 367.53 31.34 344.48 39.8" style="fill:#c8862a"/><polygon points="359.93 47.17 357.21 49.87 334.1 41.47 336.82 38.77 359.93 47.17" style="fill:#c8862a"/><polygon points="279.42 25.3 278.74 28.44 251.97 26.35 252.64 23.22 279.42 25.3" style="fill:#c8862a"/><polygon points="253.87 47.72 250.41 45.34 270.76 34.67 274.21 37.05 253.87 47.72" style="fill:#c8862a"/><polygon points="251.97 31.87 250.45 34.89 224.6 30.21 226.11 27.19 251.97 31.87" style="fill:#c8862a"/><polygon points="289.8 34.01 287.06 31.32 310.11 22.86 312.84 25.55 289.8 34.01" style="fill:#c8862a"/><polygon points="305.24 41.38 302.53 44.08 279.42 35.68 282.14 32.98 305.24 41.38" style="fill:#c8862a"/><polygon points="219 30.86 218.33 33.98 191.55 31.9 192.22 28.77 219 30.86" style="fill:#c8862a"/><polygon points="193.45 53.27 190 50.89 210.34 40.22 213.79 42.6 193.45 53.27" style="fill:#c8862a"/><polygon points="191.55 37.42 190.03 40.44 164.18 35.76 165.69 32.74 191.55 37.42" style="fill:#c8862a"/><polygon points="229.38 39.56 226.64 36.87 249.69 28.41 252.43 31.1 229.38 39.56" style="fill:#c8862a"/><polygon points="244.82 46.93 242.11 49.63 219 41.23 221.72 38.53 244.82 46.93" style="fill:#c8862a"/><polygon points="158.63 24.02 157.96 27.16 131.18 25.07 131.85 21.94 158.63 24.02" style="fill:#c8862a"/><polygon points="133.08 46.44 129.62 44.06 149.97 33.39 153.42 35.77 133.08 46.44" style="fill:#c8862a"/><polygon points="131.18 30.59 129.66 33.61 103.81 28.93 105.32 25.91 131.18 30.59" style="fill:#c8862a"/><polygon points="169.01 32.73 166.27 30.04 189.32 21.58 192.06 24.27 169.01 32.73" style="fill:#c8862a"/><polygon points="184.45 40.1 181.74 42.8 158.63 34.4 161.35 31.7 184.45 40.1" style="fill:#c8862a"/><polygon points="126.41 35.5 125.74 38.63 98.96 36.55 99.63 33.41 126.41 35.5" style="fill:#c8862a"/><polygon points="100.86 57.91 97.4 55.54 117.75 44.87 121.2 47.24 100.86 57.91" style="fill:#c8862a"/><polygon points="98.96 42.06 97.44 45.09 71.59 40.41 73.1 37.38 98.96 42.06" style="fill:#c8862a"/><polygon points="136.79 44.2 134.05 41.51 157.1 33.05 159.84 35.75 136.79 44.2" style="fill:#c8862a"/><polygon points="152.23 51.57 149.52 54.27 126.41 45.88 129.13 43.18 152.23 51.57" style="fill:#c8862a"/></svg>
